STARTFONT 2.1
COMMENT This font was automatically resized by bdfresize-1.5
COMMENT   mag_x = 3/2, mag_y = 3/2, blackness = 4
COMMENT "Generated by fontforge, http://fontforge.sourceforge.net"
COMMENT "Based on Siji"
FONT -addy-waffle-Medium-R-Normal--15-150-75-75-P-180-ISO10646-1
SIZE 15 75 75
FONTBOUNDINGBOX 18 18 0 -3
STARTPROPERTIES 28
FOUNDRY "addy"
FAMILY_NAME "waffle_15"
WEIGHT_NAME "Medium"
SLANT "R"
SETWIDTH_NAME "Normal"
ADD_STYLE_NAME ""
PIXEL_SIZE 15
POINT_SIZE 150
RESOLUTION_X 75
RESOLUTION_Y 75
SPACING "P"
AVERAGE_WIDTH 180
CHARSET_REGISTRY "ISO10646"
CHARSET_ENCODING "1"
FONTNAME_REGISTRY ""
CHARSET_COLLECTIONS "ISO10646-1"
FONT_NAME "wafflemedium"
FACE_NAME "waffle medium"
COPYRIGHT "Copyright (C) 2018 Addy"
FONT_VERSION "1.00"
FONT_ASCENT 12
FONT_DESCENT 3
UNDERLINE_POSITION -1
UNDERLINE_THICKNESS 1
RAW_ASCENT 800
RAW_DESCENT 200
FIGURE_WIDTH -1
_GBDFED_INFO "Edited with gbdfed 1.6."
ENDPROPERTIES
CHARS 787
STARTCHAR U+E000
ENCODING 57344
SWIDTH 1728 0
DWIDTH 18 0
BBX 12 12 3 0
BITMAP
FFF0
FFF0
FFF0
FFF0
FFF0
FFF0
FFF0
FFF0
FFF0
FFF0
FFF0
FFF0
ENDCHAR
STARTCHAR U+E001
ENCODING 57345
SWIDTH 1728 0
DWIDTH 18 0
BBX 12 12 3 0
BITMAP
FFF0
FFF0
FFF0
E070
E070
E070
E070
E070
E070
FFF0
FFF0
FFF0
ENDCHAR
STARTCHAR U+E002
ENCODING 57346
SWIDTH 1728 0
DWIDTH 18 0
BBX 12 12 3 0
BITMAP
FDF0
FDF0
FDF0
FC00
FDF0
FDF0
FDF0
FDF0
FC00
FDF0
FDF0
FDF0
ENDCHAR
STARTCHAR U+E003
ENCODING 57347
SWIDTH 1728 0
DWIDTH 18 0
BBX 12 12 3 0
BITMAP
FFF0
FFF0
FFF0
FFF0
FFF0
FFF0
0000
EF70
EF70
EF70
EF70
EF70
ENDCHAR
STARTCHAR U+E004
ENCODING 57348
SWIDTH 1728 0
DWIDTH 18 0
BBX 12 12 3 0
BITMAP
FFF0
FFF0
FFF0
FFF0
FFF0
FFF0
0000
FFF0
FFF0
0000
FFF0
FFF0
ENDCHAR
STARTCHAR U+E005
ENCODING 57349
SWIDTH 1728 0
DWIDTH 18 0
BBX 12 12 3 0
BITMAP
EF70
EF70
EF70
0000
EF70
EF70
EF70
EF70
0000
EF70
EF70
EF70
ENDCHAR
STARTCHAR U+E006
ENCODING 57350
SWIDTH 1728 0
DWIDTH 18 0
BBX 12 12 3 0
BITMAP
FDF0
FDF0
FDF0
FDF0
FDF0
FDF0
01F0
FFF0
FFF0
FFF0
FFF0
FFF0
ENDCHAR
STARTCHAR U+E007
ENCODING 57351
SWIDTH 1728 0
DWIDTH 18 0
BBX 12 12 3 0
BITMAP
FDF0
FDF0
FDF0
FDF0
FDF0
FDF0
FC00
FDB0
FDB0
FD80
FDB0
FDB0
ENDCHAR
STARTCHAR U+E008
ENCODING 57352
SWIDTH 1728 0
DWIDTH 18 0
BBX 12 12 3 0
BITMAP
FDF0
FDF0
FDF0
FDF0
FDF0
FDF0
FC00
FDB0
FDB0
FC30
FDB0
FDB0
ENDCHAR
STARTCHAR U+E009
ENCODING 57353
SWIDTH 1728 0
DWIDTH 18 0
BBX 12 12 3 0
BITMAP
FDF0
FDF0
FDF0
FC00
FDF0
FDF0
01F0
FDF0
FC00
FDF0
FDF0
FDF0
ENDCHAR
STARTCHAR U+E00A
ENCODING 57354
SWIDTH 1728 0
DWIDTH 18 0
BBX 12 12 3 0
BITMAP
FDF0
FDF0
FDF0
FDF0
FDF0
FDF0
0000
EF70
EF70
EF70
EF70
EF70
ENDCHAR
STARTCHAR U+E00B
ENCODING 57355
SWIDTH 1728 0
DWIDTH 18 0
BBX 11 14 3 -2
BITMAP
0F00
0F80
0EC0
CE60
EEE0
6EC0
1F00
1F00
6EC0
EEE0
CE60
0EC0
0F80
0F00
ENDCHAR
STARTCHAR U+E00C
ENCODING 57356
SWIDTH 1728 0
DWIDTH 18 0
BBX 8 12 5 0
BITMAP
18
1B
1B
DB
DB
DB
DE
FC
78
18
18
18
ENDCHAR
STARTCHAR U+E00D
ENCODING 57357
SWIDTH 1728 0
DWIDTH 18 0
BBX 12 12 3 0
BITMAP
0F00
0F00
0F00
6F60
EF70
CF30
CF30
CF30
C030
6060
7FE0
1F80
ENDCHAR
STARTCHAR U+E00E
ENCODING 57358
SWIDTH 1728 0
DWIDTH 18 0
BBX 12 14 3 -2
BITMAP
0F00
0F00
0F00
1F80
1F80
1F80
7FE0
7FE0
79E0
F9F0
F9F0
E070
E070
C030
ENDCHAR
STARTCHAR U+E00F
ENCODING 57359
SWIDTH 1728 0
DWIDTH 18 0
BBX 12 12 3 0
BITMAP
1F80
7FE0
7BE0
FF80
FF80
FF00
FC00
FFF0
FFF0
7FE0
7FE0
1F80
ENDCHAR
STARTCHAR U+E010
ENCODING 57360
SWIDTH 1728 0
DWIDTH 18 0
BBX 12 12 3 0
BITMAP
FFF0
FFF0
FFF0
FFF0
FFF0
F9F0
F9F0
FFF0
FFF0
FFF0
FFF0
FFF0
ENDCHAR
STARTCHAR U+E011
ENCODING 57361
SWIDTH 1728 0
DWIDTH 18 0
BBX 12 12 3 0
BITMAP
FFF0
FFF0
FF30
FF30
FFF0
FFF0
FFF0
FFF0
CFF0
CFF0
FFF0
FFF0
ENDCHAR
STARTCHAR U+E012
ENCODING 57362
SWIDTH 1728 0
DWIDTH 18 0
BBX 12 12 3 0
BITMAP
FFF0
FFF0
FF30
FF30
FFF0
F9F0
F9F0
FFF0
CFF0
CFF0
FFF0
FFF0
ENDCHAR
STARTCHAR U+E013
ENCODING 57363
SWIDTH 1728 0
DWIDTH 18 0
BBX 12 12 3 0
BITMAP
FFF0
FFF0
CF30
CF30
FFF0
FFF0
FFF0
FFF0
CF30
CF30
FFF0
FFF0
ENDCHAR
STARTCHAR U+E014
ENCODING 57364
SWIDTH 1728 0
DWIDTH 18 0
BBX 12 12 3 0
BITMAP
FFF0
FFF0
CF30
CF30
FFF0
F9F0
F9F0
FFF0
CF30
CF30
FFF0
FFF0
ENDCHAR
STARTCHAR U+E015
ENCODING 57365
SWIDTH 1728 0
DWIDTH 18 0
BBX 12 12 3 0
BITMAP
1F80
7FE0
7BE0
FBF0
FBF0
FBF0
F830
FFF0
FFF0
7FE0
7FE0
1F80
ENDCHAR
STARTCHAR U+E016
ENCODING 57366
SWIDTH 1728 0
DWIDTH 18 0
BBX 12 12 3 0
BITMAP
1F80
7FE0
6060
CC30
CC30
CC30
CFB0
CFB0
C030
6060
7FE0
1F80
ENDCHAR
STARTCHAR U+E017
ENCODING 57367
SWIDTH 1728 0
DWIDTH 18 0
BBX 12 12 3 0
BITMAP
FFF0
FFF0
FBF0
FBF0
FBF0
FBF0
F830
FFF0
FFF0
FFF0
FFF0
FFF0
ENDCHAR
STARTCHAR U+E018
ENCODING 57368
SWIDTH 1728 0
DWIDTH 18 0
BBX 12 12 3 0
BITMAP
FFF0
FFF0
C030
CC30
CC30
CC30
CFB0
CFB0
C030
C030
FFF0
FFF0
ENDCHAR
STARTCHAR U+E019
ENCODING 57369
SWIDTH 1728 0
DWIDTH 18 0
BBX 12 12 3 0
BITMAP
0F00
1F80
1B80
7BE0
FBF0
FBF0
F830
FFF0
7FE0
1F80
1F80
0F00
ENDCHAR
STARTCHAR U+E01A
ENCODING 57370
SWIDTH 1728 0
DWIDTH 18 0
BBX 12 12 3 0
BITMAP
0F00
1F80
1980
6C60
EC70
CC30
CFB0
EFF0
6060
1980
1F80
0F00
ENDCHAR
STARTCHAR U+E01B
ENCODING 57371
SWIDTH 1728 0
DWIDTH 18 0
BBX 12 12 3 0
BITMAP
0C70
0DF0
01F0
63E0
6FE0
0D80
7B00
FF00
CC00
CC00
FC00
7800
ENDCHAR
STARTCHAR U+E01C
ENCODING 57372
SWIDTH 1728 0
DWIDTH 18 0
BBX 9 12 5 0
BITMAP
1980
7D80
7C00
7D80
7D80
7C00
6D80
EF80
C300
C300
FF00
7C00
ENDCHAR
STARTCHAR U+E01D
ENCODING 57373
SWIDTH 1728 0
DWIDTH 18 0
BBX 8 12 5 0
BITMAP
78
7F
7F
78
7F
7F
78
FC
FE
FE
FC
78
ENDCHAR
STARTCHAR U+E01E
ENCODING 57374
SWIDTH 1728 0
DWIDTH 18 0
BBX 11 12 3 0
BITMAP
7FC0
FFE0
FFE0
C060
C460
CE60
C360
C760
CE60
C060
FFE0
7FC0
ENDCHAR
STARTCHAR U+E01F
ENCODING 57375
SWIDTH 1728 0
DWIDTH 18 0
BBX 11 12 3 0
BITMAP
7FC0
FFE0
FFE0
C060
DF60
DF60
C060
DF60
DF60
C060
FFE0
7FC0
ENDCHAR
STARTCHAR U+E020
ENCODING 57376
SWIDTH 1728 0
DWIDTH 18 0
BBX 11 12 3 0
BITMAP
DB60
DB60
0000
FFE0
FFE0
FFE0
FFE0
FFE0
FFE0
0000
DB60
DB60
ENDCHAR
STARTCHAR U+E021
ENCODING 57377
SWIDTH 1728 0
DWIDTH 18 0
BBX 12 12 3 0
BITMAP
EF70
EF70
0000
FFF0
FFF0
FFF0
FFF0
FFF0
FFF0
0000
EF70
EF70
ENDCHAR
STARTCHAR U+E022
ENCODING 57378
SWIDTH 1728 0
DWIDTH 18 0
BBX 12 12 3 0
BITMAP
E070
FFF0
DFB0
7FE0
7FE0
7FE0
7FE0
7FE0
7FE0
DFB0
FFF0
E070
ENDCHAR
STARTCHAR U+E023
ENCODING 57379
SWIDTH 1728 0
DWIDTH 18 0
BBX 11 11 3 0
BITMAP
E0E0
FFE0
DF60
7FC0
7FC0
7FC0
7FC0
7FC0
DF60
FFE0
E0E0
ENDCHAR
STARTCHAR U+E024
ENCODING 57380
SWIDTH 1728 0
DWIDTH 18 0
BBX 12 12 3 0
BITMAP
C030
FFF0
7FE0
7FE0
7FE0
7FE0
7FE0
7FE0
7FE0
7FE0
FFF0
C030
ENDCHAR
STARTCHAR U+E025
ENCODING 57381
SWIDTH 1728 0
DWIDTH 18 0
BBX 11 11 3 0
BITMAP
C060
FFE0
7FC0
7FC0
7FC0
7FC0
7FC0
7FC0
7FC0
FFE0
C060
ENDCHAR
STARTCHAR U+E026
ENCODING 57382
SWIDTH 1728 0
DWIDTH 18 0
BBX 12 12 3 0
BITMAP
EF70
EF70
E070
1F80
DFB0
DFB0
DFB0
DFB0
1F80
E070
EF70
EF70
ENDCHAR
STARTCHAR U+E027
ENCODING 57383
SWIDTH 1728 0
DWIDTH 18 0
BBX 12 12 3 0
BITMAP
6000
6FF0
6FF0
7F80
7FE0
79E0
79E0
7FE0
1FE0
FF60
FF60
0060
ENDCHAR
STARTCHAR U+E028
ENCODING 57384
SWIDTH 1728 0
DWIDTH 18 0
BBX 11 11 3 0
BITMAP
DB60
DB60
0000
FFE0
FFE0
FFE0
FFE0
FFE0
0000
DB60
DB60
ENDCHAR
STARTCHAR U+E029
ENCODING 57385
SWIDTH 1728 0
DWIDTH 18 0
BBX 11 12 3 0
BITMAP
7FC0
FFE0
C060
C060
C060
C060
FFE0
FFE0
FFE0
FFE0
FFE0
FFE0
ENDCHAR
STARTCHAR U+E02A
ENCODING 57386
SWIDTH 1728 0
DWIDTH 18 0
BBX 11 11 3 0
BITMAP
FFE0
FFE0
DF60
C060
FFE0
FFE0
FFE0
DF60
C060
FFE0
FFE0
ENDCHAR
STARTCHAR U+E02B
ENCODING 57387
SWIDTH 1728 0
DWIDTH 18 0
BBX 12 12 3 0
BITMAP
FFF0
FFF0
DFB0
C030
FFF0
FFF0
DFB0
DFB0
C030
C030
FFF0
FFF0
ENDCHAR
STARTCHAR U+E02C
ENCODING 57388
SWIDTH 1728 0
DWIDTH 18 0
BBX 11 12 3 0
BITMAP
7FC0
FFE0
E0E0
DF60
DF60
DF60
DF60
FFE0
E0E0
7FC0
FFE0
C060
ENDCHAR
STARTCHAR U+E02D
ENCODING 57389
SWIDTH 1728 0
DWIDTH 18 0
BBX 12 12 3 0
BITMAP
FF00
FF80
C180
FC60
FF70
C330
F9B0
FDB0
CDB0
EDB0
FFF0
FFF0
ENDCHAR
STARTCHAR U+E02E
ENCODING 57390
SWIDTH 1728 0
DWIDTH 18 0
BBX 8 12 5 0
BITMAP
7E
7E
7E
00
FC
FE
7E
7E
7E
7E
FF
FF
ENDCHAR
STARTCHAR U+E02F
ENCODING 57391
SWIDTH 1728 0
DWIDTH 18 0
BBX 9 12 5 0
BITMAP
7F00
7F00
7F00
0000
FF00
FF00
7F00
7F00
7F00
7F00
FF80
FF80
ENDCHAR
STARTCHAR U+E030
ENCODING 57392
SWIDTH 1728 0
DWIDTH 18 0
BBX 9 12 5 0
BITMAP
1C00
FF80
FF80
C180
C180
C180
C180
C180
C180
C180
FF80
FF80
ENDCHAR
STARTCHAR U+E031
ENCODING 57393
SWIDTH 1728 0
DWIDTH 18 0
BBX 9 12 5 0
BITMAP
1C00
FF80
FF80
C180
C180
C180
D980
DD80
DD80
C180
FF80
FF80
ENDCHAR
STARTCHAR U+E032
ENCODING 57394
SWIDTH 1728 0
DWIDTH 18 0
BBX 9 12 5 0
BITMAP
1C00
FF80
FF80
C180
D980
D980
DD80
DD80
DD80
C180
FF80
FF80
ENDCHAR
STARTCHAR U+E033
ENCODING 57395
SWIDTH 1728 0
DWIDTH 18 0
BBX 9 12 5 0
BITMAP
1C00
FF80
FF80
C180
DD80
DD80
DD80
DD80
DD80
C180
FF80
FF80
ENDCHAR
STARTCHAR U+E034
ENCODING 57396
SWIDTH 1728 0
DWIDTH 18 0
BBX 11 12 3 0
BITMAP
1F00
FFE0
FFE0
C060
C060
C060
C060
C060
C060
C060
FFE0
FFE0
ENDCHAR
STARTCHAR U+E035
ENCODING 57397
SWIDTH 1728 0
DWIDTH 18 0
BBX 11 12 3 0
BITMAP
1F00
FFE0
FFE0
C060
C060
C060
D860
DC60
DE60
C060
FFE0
FFE0
ENDCHAR
STARTCHAR U+E036
ENCODING 57398
SWIDTH 1728 0
DWIDTH 18 0
BBX 11 12 3 0
BITMAP
1F00
FFE0
FFE0
C060
D860
D860
DE60
DF60
DF60
C060
FFE0
FFE0
ENDCHAR
STARTCHAR U+E037
ENCODING 57399
SWIDTH 1728 0
DWIDTH 18 0
BBX 11 12 3 0
BITMAP
1F00
FFE0
FFE0
C060
DF60
DF60
DF60
DF60
DF60
C060
FFE0
FFE0
ENDCHAR
STARTCHAR U+E038
ENCODING 57400
SWIDTH 1728 0
DWIDTH 18 0
BBX 12 9 3 0
BITMAP
FFE0
FFE0
C060
C070
C070
C070
C060
FFE0
FFE0
ENDCHAR
STARTCHAR U+E039
ENCODING 57401
SWIDTH 1728 0
DWIDTH 18 0
BBX 12 9 3 0
BITMAP
FFE0
FFE0
C060
D870
DC70
DC70
C060
FFE0
FFE0
ENDCHAR
STARTCHAR U+E03A
ENCODING 57402
SWIDTH 1728 0
DWIDTH 18 0
BBX 12 9 3 0
BITMAP
FFE0
FFE0
C060
DC70
DF70
DF70
C060
FFE0
FFE0
ENDCHAR
STARTCHAR U+E03B
ENCODING 57403
SWIDTH 1728 0
DWIDTH 18 0
BBX 12 9 3 0
BITMAP
FFE0
FFE0
C060
DF70
DF70
DF70
C060
FFE0
FFE0
ENDCHAR
STARTCHAR U+E03C
ENCODING 57404
SWIDTH 1728 0
DWIDTH 18 0
BBX 12 11 3 0
BITMAP
FFE0
FFE0
C060
C070
C070
C070
C070
C070
C060
FFE0
FFE0
ENDCHAR
STARTCHAR U+E03D
ENCODING 57405
SWIDTH 1728 0
DWIDTH 18 0
BBX 12 11 3 0
BITMAP
FFE0
FFE0
C060
C070
D070
D870
DC70
DC70
C060
FFE0
FFE0
ENDCHAR
STARTCHAR U+E03E
ENCODING 57406
SWIDTH 1728 0
DWIDTH 18 0
BBX 12 11 3 0
BITMAP
FFE0
FFE0
C060
D870
DC70
DC70
DF70
DF70
C060
FFE0
FFE0
ENDCHAR
STARTCHAR U+E03F
ENCODING 57407
SWIDTH 1728 0
DWIDTH 18 0
BBX 12 11 3 0
BITMAP
FFE0
FFE0
C060
DF70
DF70
DF70
DF70
DF70
C060
FFE0
FFE0
ENDCHAR
STARTCHAR U+E040
ENCODING 57408
SWIDTH 1728 0
DWIDTH 18 0
BBX 9 15 5 -2
BITMAP
0300
0F00
0C00
1C00
7C00
7800
7F80
FF80
FF00
0F00
1F00
1C00
1800
7800
6000
ENDCHAR
STARTCHAR U+E041
ENCODING 57409
SWIDTH 1728 0
DWIDTH 18 0
BBX 9 12 5 0
BITMAP
6300
6300
6300
FF80
FF80
FF80
FF80
FF80
7F00
1C00
1C00
1C00
ENDCHAR
STARTCHAR U+E042
ENCODING 57410
SWIDTH 1728 0
DWIDTH 18 0
BBX 12 9 3 2
BITMAP
0F80
1FF0
1FF0
FF80
FF80
FF80
1FF0
1FF0
0F80
ENDCHAR
STARTCHAR U+E043
ENCODING 57411
SWIDTH 1728 0
DWIDTH 18 0
BBX 12 12 3 0
BITMAP
1F00
7F00
6300
C3F0
C3F0
C300
C300
C3F0
C3F0
6300
7F00
1F00
ENDCHAR
STARTCHAR U+E044
ENCODING 57412
SWIDTH 1728 0
DWIDTH 18 0
BBX 6 6 6 3
BITMAP
0C
EC
EC
EC
EC
0C
ENDCHAR
STARTCHAR U+E045
ENCODING 57413
SWIDTH 1728 0
DWIDTH 18 0
BBX 9 9 5 2
BITMAP
0180
0D80
0D80
ED80
ED80
ED80
0D80
0D80
0180
ENDCHAR
STARTCHAR U+E046
ENCODING 57414
SWIDTH 1728 0
DWIDTH 18 0
BBX 12 12 3 0
BITMAP
0030
01B0
01B0
0DB0
EDB0
EDB0
EDB0
EDB0
0DB0
01B0
01B0
0030
ENDCHAR
STARTCHAR U+E047
ENCODING 57415
SWIDTH 1728 0
DWIDTH 18 0
BBX 8 9 8 0
BITMAP
07
07
07
E7
E7
E7
E7
E7
E7
ENDCHAR
STARTCHAR U+E048
ENCODING 57416
SWIDTH 1728 0
DWIDTH 18 0
BBX 12 12 3 0
BITMAP
0070
0070
0070
0F70
0F70
0F70
EF70
EF70
EF70
EF70
EF70
EF70
ENDCHAR
STARTCHAR U+E049
ENCODING 57417
SWIDTH 1728 0
DWIDTH 18 0
BBX 6 6 6 0
BITMAP
FC
FC
00
78
78
78
ENDCHAR
STARTCHAR U+E04A
ENCODING 57418
SWIDTH 1728 0
DWIDTH 18 0
BBX 9 9 5 0
BITMAP
FF80
FF80
0000
7F00
7F00
0000
1C00
1C00
1C00
ENDCHAR
STARTCHAR U+E04B
ENCODING 57419
SWIDTH 1728 0
DWIDTH 18 0
BBX 12 12 3 0
BITMAP
FFF0
FFF0
0000
7FE0
7FE0
0000
1F80
1F80
0000
0F00
0F00
0F00
ENDCHAR
STARTCHAR U+E04C
ENCODING 57420
SWIDTH 1728 0
DWIDTH 18 0
BBX 9 12 5 0
BITMAP
1C00
1C00
1C00
DD80
DD80
DD80
C180
FF80
7F00
1C00
FF80
FF80
ENDCHAR
STARTCHAR U+E04D
ENCODING 57421
SWIDTH 1728 0
DWIDTH 18 0
BBX 12 12 3 0
BITMAP
1F80
7FE0
6060
C030
C030
C030
C030
F9F0
F9F0
F9F0
F9F0
79E0
ENDCHAR
STARTCHAR U+E04E
ENCODING 57422
SWIDTH 1728 0
DWIDTH 18 0
BBX 8 12 5 0
BITMAP
03
07
07
FF
FF
FF
FF
FF
FF
07
07
03
ENDCHAR
STARTCHAR U+E04F
ENCODING 57423
SWIDTH 1728 0
DWIDTH 18 0
BBX 11 12 5 0
BITMAP
0300
0700
0F00
FF60
FFE0
FEC0
FB00
FF00
EE00
1B00
3B00
6300
ENDCHAR
STARTCHAR U+E050
ENCODING 57424
SWIDTH 1728 0
DWIDTH 18 0
BBX 11 12 3 0
BITMAP
0300
0700
0F00
FF60
FF60
FF60
FF60
FF60
FF60
0F00
0700
0300
ENDCHAR
STARTCHAR U+E051
ENCODING 57425
SWIDTH 1728 0
DWIDTH 18 0
BBX 8 11 5 0
BITMAP
03
07
07
FF
FF
FF
FF
FF
07
07
03
ENDCHAR
STARTCHAR U+E052
ENCODING 57426
SWIDTH 1728 0
DWIDTH 18 0
BBX 11 11 3 0
BITMAP
0300
0700
0F00
FF60
FFE0
FEC0
FF80
FB00
0E00
1F00
1B00
ENDCHAR
STARTCHAR U+E053
ENCODING 57427
SWIDTH 1728 0
DWIDTH 18 0
BBX 11 11 3 0
BITMAP
0300
0700
0F00
FF60
FF60
FF60
FF60
FF60
0F00
0700
0300
ENDCHAR
STARTCHAR U+E054
ENCODING 57428
SWIDTH 1728 0
DWIDTH 18 0
BBX 9 12 5 0
BITMAP
C180
C380
C380
CF80
DF80
DF80
DF80
DF80
CF80
C380
C380
C180
ENDCHAR
STARTCHAR U+E055
ENCODING 57429
SWIDTH 1728 0
DWIDTH 18 0
BBX 12 12 3 0
BITMAP
0C30
1C70
1C70
7DF0
FFF0
FFF0
FFF0
FFF0
7DF0
1C70
1C70
0C30
ENDCHAR
STARTCHAR U+E056
ENCODING 57430
SWIDTH 1728 0
DWIDTH 18 0
BBX 12 12 3 0
BITMAP
1F80
7FE0
7FE0
FFF0
FFF0
FFF0
FFF0
FFF0
FFF0
7FE0
7FE0
1F80
ENDCHAR
STARTCHAR U+E057
ENCODING 57431
SWIDTH 1728 0
DWIDTH 18 0
BBX 12 12 3 0
BITMAP
FFF0
FFF0
FFF0
FFF0
FFF0
FFF0
FFF0
FFF0
FFF0
FFF0
FFF0
FFF0
ENDCHAR
STARTCHAR U+E058
ENCODING 57432
SWIDTH 1728 0
DWIDTH 18 0
BBX 6 12 6 0
BITMAP
C0
E0
E0
F8
FC
FC
FC
FC
F8
E0
E0
C0
ENDCHAR
STARTCHAR U+E059
ENCODING 57433
SWIDTH 1728 0
DWIDTH 18 0
BBX 8 12 5 0
BITMAP
E7
E7
E7
E7
E7
E7
E7
E7
E7
E7
E7
E7
ENDCHAR
STARTCHAR U+E05A
ENCODING 57434
SWIDTH 1728 0
DWIDTH 18 0
BBX 9 12 5 0
BITMAP
C180
E180
E180
F980
FD80
FD80
FD80
FD80
F980
E180
E180
C180
ENDCHAR
STARTCHAR U+E05B
ENCODING 57435
SWIDTH 1728 0
DWIDTH 18 0
BBX 12 12 3 0
BITMAP
C300
E380
E380
FBE0
FFF0
FFF0
FFF0
FFF0
FBE0
E380
E380
C300
ENDCHAR
STARTCHAR U+E05C
ENCODING 57436
SWIDTH 1728 0
DWIDTH 18 0
BBX 12 12 3 0
BITMAP
1FF0
1FF0
1FF0
1830
1830
1830
1830
7870
7870
F9F0
F9F0
E1E0
ENDCHAR
STARTCHAR U+E05D
ENCODING 57437
SWIDTH 1728 0
DWIDTH 18 0
BBX 12 12 3 0
BITMAP
0C00
1C60
1C60
FC30
FDB0
FDB0
FDB0
FDB0
FC30
1C60
1C60
0C00
ENDCHAR
STARTCHAR U+E05E
ENCODING 57438
SWIDTH 1728 0
DWIDTH 18 0
BBX 11 9 3 0
BITMAP
C300
FF80
FFC0
FFE0
FFE0
FFE0
7FC0
3F80
0300
ENDCHAR
STARTCHAR U+E05F
ENCODING 57439
SWIDTH 1728 0
DWIDTH 18 0
BBX 11 9 3 0
BITMAP
1860
3FE0
7FE0
FFE0
FFE0
FFE0
7FC0
3F80
1800
ENDCHAR
STARTCHAR U+E060
ENCODING 57440
SWIDTH 1728 0
DWIDTH 18 0
BBX 12 12 3 0
BITMAP
0F00
1F80
1F80
7FE0
FFF0
FFF0
1F80
1F80
1F80
1F80
1F80
1F80
ENDCHAR
STARTCHAR U+E061
ENCODING 57441
SWIDTH 1728 0
DWIDTH 18 0
BBX 12 12 3 0
BITMAP
1F80
1F80
1F80
1F80
1F80
1F80
FFF0
FFF0
7FE0
1F80
1F80
0F00
ENDCHAR
STARTCHAR U+E062
ENCODING 57442
SWIDTH 1728 0
DWIDTH 18 0
BBX 12 12 3 0
BITMAP
0300
0380
0380
FFE0
FFF0
FFF0
FFF0
FFF0
FFE0
0380
0380
0300
ENDCHAR
STARTCHAR U+E063
ENCODING 57443
SWIDTH 1728 0
DWIDTH 18 0
BBX 12 12 3 0
BITMAP
0C00
1C00
1C00
7FF0
FFF0
FFF0
FFF0
FFF0
7FF0
1C00
1C00
0C00
ENDCHAR
STARTCHAR U+E064
ENCODING 57444
SWIDTH 1728 0
DWIDTH 18 0
BBX 12 12 3 0
BITMAP
0F00
1F80
1F80
7FE0
FFF0
FFF0
1F80
1F80
1F80
1F80
1FE0
0FE0
ENDCHAR
STARTCHAR U+E065
ENCODING 57445
SWIDTH 1728 0
DWIDTH 18 0
BBX 12 12 3 0
BITMAP
0FE0
1FE0
1F80
1F80
1F80
1F80
FFF0
FFF0
7FE0
1F80
1F80
0F00
ENDCHAR
STARTCHAR U+E066
ENCODING 57446
SWIDTH 1728 0
DWIDTH 18 0
BBX 12 12 3 0
BITMAP
0F00
1F80
1F80
7FE0
FFF0
FFF0
1F80
1F80
1F80
1F80
7F80
7F00
ENDCHAR
STARTCHAR U+E067
ENCODING 57447
SWIDTH 1728 0
DWIDTH 18 0
BBX 12 12 3 0
BITMAP
7F00
7F80
1F80
1F80
1F80
1F80
FFF0
FFF0
7FE0
1F80
1F80
0F00
ENDCHAR
STARTCHAR U+E068
ENCODING 57448
SWIDTH 1728 0
DWIDTH 18 0
BBX 12 12 3 0
BITMAP
0300
0380
0380
7FE0
FFF0
FFF0
FFF0
FFF0
FFE0
C380
C380
0300
ENDCHAR
STARTCHAR U+E069
ENCODING 57449
SWIDTH 1728 0
DWIDTH 18 0
BBX 12 12 3 0
BITMAP
0C00
1C00
1C00
7FE0
FFF0
FFF0
FFF0
FFF0
7FF0
1C30
1C30
0C00
ENDCHAR
STARTCHAR U+E06A
ENCODING 57450
SWIDTH 1728 0
DWIDTH 18 0
BBX 12 12 3 0
BITMAP
0300
C380
C380
FFE0
FFF0
FFF0
FFF0
FFF0
7FE0
0380
0380
0300
ENDCHAR
STARTCHAR U+E06B
ENCODING 57451
SWIDTH 1728 0
DWIDTH 18 0
BBX 12 12 3 0
BITMAP
0C00
1C30
1C30
7FF0
FFF0
FFF0
FFF0
FFF0
7FE0
1C00
1C00
0C00
ENDCHAR
STARTCHAR U+E06C
ENCODING 57452
SWIDTH 1728 0
DWIDTH 18 0
BBX 9 11 5 0
BITMAP
1C00
3E00
7F00
FF80
FF80
7F00
7F00
7F00
7F00
7F00
7F00
ENDCHAR
STARTCHAR U+E06D
ENCODING 57453
SWIDTH 1728 0
DWIDTH 18 0
BBX 9 11 5 0
BITMAP
7F00
7F00
7F00
7F00
7F00
7F00
FF80
FF80
7F00
3E00
1C00
ENDCHAR
STARTCHAR U+E06E
ENCODING 57454
SWIDTH 1728 0
DWIDTH 18 0
BBX 11 9 3 0
BITMAP
0300
FF80
FFC0
FFE0
FFE0
FFE0
FFC0
FF80
0300
ENDCHAR
STARTCHAR U+E06F
ENCODING 57455
SWIDTH 1728 0
DWIDTH 18 0
BBX 11 9 3 0
BITMAP
1800
3FE0
7FE0
FFE0
FFE0
FFE0
7FE0
3FE0
1800
ENDCHAR
STARTCHAR U+E070
ENCODING 57456
SWIDTH 1728 0
DWIDTH 18 0
BBX 12 12 3 0
BITMAP
FFF0
FFF0
7FE0
DFB0
FFF0
EF70
F9F0
FFF0
FFF0
FFF0
FFF0
FFF0
ENDCHAR
STARTCHAR U+E071
ENCODING 57457
SWIDTH 1728 0
DWIDTH 18 0
BBX 12 12 3 0
BITMAP
FFF0
FFF0
C030
E070
F9F0
D9B0
CF30
CF30
C030
C030
FFF0
FFF0
ENDCHAR
STARTCHAR U+E072
ENCODING 57458
SWIDTH 1728 0
DWIDTH 18 0
BBX 12 11 3 0
BITMAP
FFF0
FFF0
7FE0
DFB0
FFF0
EF70
FFF0
F9F0
FFF0
FFF0
FFF0
ENDCHAR
STARTCHAR U+E073
ENCODING 57459
SWIDTH 1728 0
DWIDTH 18 0
BBX 12 11 3 0
BITMAP
FFF0
FFF0
C030
E070
F0F0
D9B0
DFB0
CF30
C030
FFF0
FFF0
ENDCHAR
STARTCHAR U+E074
ENCODING 57460
SWIDTH 1728 0
DWIDTH 18 0
BBX 12 12 3 0
BITMAP
E000
FB80
FB80
EFE0
EFE0
6FE0
FB80
FFE0
EFE0
1FF0
1FF0
1FF0
ENDCHAR
STARTCHAR U+E075
ENCODING 57461
SWIDTH 1728 0
DWIDTH 18 0
BBX 9 11 5 0
BITMAP
1C00
3E00
7F00
7F00
7F00
1C00
7F00
7F00
FF80
FF80
FF80
ENDCHAR
STARTCHAR U+E076
ENCODING 57462
SWIDTH 1728 0
DWIDTH 18 0
BBX 12 12 3 0
BITMAP
FFF0
FFF0
DFB0
EF70
FFF0
F9F0
F9F0
FFF0
EF70
DFB0
FFF0
FFF0
ENDCHAR
STARTCHAR U+E077
ENCODING 57463
SWIDTH 1728 0
DWIDTH 18 0
BBX 9 12 5 0
BITMAP
7F00
FF80
E380
E380
E380
E380
E380
FF80
FF80
E380
FF80
7F00
ENDCHAR
STARTCHAR U+E078
ENCODING 57464
SWIDTH 1728 0
DWIDTH 18 0
BBX 9 12 5 0
BITMAP
7F00
FF80
E380
FF80
FF80
E380
E380
E380
E380
E380
FF80
7F00
ENDCHAR
STARTCHAR U+E079
ENCODING 57465
SWIDTH 1728 0
DWIDTH 18 0
BBX 12 12 3 0
BITMAP
1F80
7FE0
7FE0
FFF0
FFF0
E070
E070
FFF0
FFF0
7FE0
7FE0
1F80
ENDCHAR
STARTCHAR U+E07A
ENCODING 57466
SWIDTH 1728 0
DWIDTH 18 0
BBX 9 11 5 0
BITMAP
1C00
3E00
7F00
FF80
FF80
7F00
7F00
7F00
7F00
3F80
1F80
ENDCHAR
STARTCHAR U+E07B
ENCODING 57467
SWIDTH 1728 0
DWIDTH 18 0
BBX 9 11 5 0
BITMAP
1F80
3F80
7F00
7F00
7F00
7F00
FF80
FF80
7F00
3E00
1C00
ENDCHAR
STARTCHAR U+E07C
ENCODING 57468
SWIDTH 1728 0
DWIDTH 18 0
BBX 9 11 5 0
BITMAP
1C00
3E00
7F00
FF80
FF80
7F00
7F00
7F00
7F00
FE00
FC00
ENDCHAR
STARTCHAR U+E07D
ENCODING 57469
SWIDTH 1728 0
DWIDTH 18 0
BBX 9 11 5 0
BITMAP
FC00
FE00
7F00
7F00
7F00
7F00
FF80
FF80
7F00
3E00
1C00
ENDCHAR
STARTCHAR U+E07E
ENCODING 57470
SWIDTH 1728 0
DWIDTH 18 0
BBX 11 9 3 0
BITMAP
0300
3F80
7FC0
FFE0
FFE0
FFE0
FFC0
FF80
C300
ENDCHAR
STARTCHAR U+E07F
ENCODING 57471
SWIDTH 1728 0
DWIDTH 18 0
BBX 11 9 3 0
BITMAP
1800
3F80
7FC0
FFE0
FFE0
FFE0
7FE0
3FE0
1860
ENDCHAR
STARTCHAR U+E080
ENCODING 57472
SWIDTH 1728 0
DWIDTH 18 0
BBX 11 11 3 0
BITMAP
0E00
1F00
1B00
7BC0
FBE0
F860
FFE0
7FC0
1F00
1F00
0E00
ENDCHAR
STARTCHAR U+E081
ENCODING 57473
SWIDTH 1728 0
DWIDTH 18 0
BBX 11 11 3 0
BITMAP
FFE0
FFE0
FBE0
FBE0
FBE0
F860
FFE0
FFE0
FFE0
FFE0
FFE0
ENDCHAR
STARTCHAR U+E082
ENCODING 57474
SWIDTH 1728 0
DWIDTH 18 0
BBX 11 11 3 0
BITMAP
EEE0
E4E0
E0E0
1F00
9F20
DF60
9F20
1F00
E0E0
E4E0
EEE0
ENDCHAR
STARTCHAR U+E083
ENCODING 57475
SWIDTH 1728 0
DWIDTH 18 0
BBX 11 11 3 0
BITMAP
6000
67E0
6FE0
7F00
7F80
7BC0
3FC0
1FC0
FEC0
FCC0
00C0
ENDCHAR
STARTCHAR U+E084
ENCODING 57476
SWIDTH 1728 0
DWIDTH 18 0
BBX 12 8 3 2
BITMAP
FFE0
FFF0
C070
C070
C070
C070
FFF0
FFE0
ENDCHAR
STARTCHAR U+E085
ENCODING 57477
SWIDTH 1728 0
DWIDTH 18 0
BBX 12 8 3 2
BITMAP
FFE0
FFF0
C070
DC70
DC70
C070
FFF0
FFE0
ENDCHAR
STARTCHAR U+E086
ENCODING 57478
SWIDTH 1728 0
DWIDTH 18 0
BBX 12 8 3 2
BITMAP
FFE0
FFF0
C070
DF70
DF70
C070
FFF0
FFE0
ENDCHAR
STARTCHAR U+E087
ENCODING 57479
SWIDTH 1728 0
DWIDTH 18 0
BBX 9 11 5 0
BITMAP
1C00
FF80
FF80
C180
C180
C180
C180
C180
C180
FF80
FF80
ENDCHAR
STARTCHAR U+E088
ENCODING 57480
SWIDTH 1728 0
DWIDTH 18 0
BBX 9 11 5 0
BITMAP
1C00
FF80
FF80
C180
D180
D980
DD80
DD80
C180
FF80
FF80
ENDCHAR
STARTCHAR U+E089
ENCODING 57481
SWIDTH 1728 0
DWIDTH 18 0
BBX 9 11 5 0
BITMAP
1C00
FF80
FF80
C180
DD80
DD80
DD80
DD80
C180
FF80
FF80
ENDCHAR
STARTCHAR U+E08A
ENCODING 57482
SWIDTH 1728 0
DWIDTH 18 0
BBX 8 11 5 0
BITMAP
7E
FF
FF
C3
C3
C3
C3
C3
C3
FF
FF
ENDCHAR
STARTCHAR U+E08B
ENCODING 57483
SWIDTH 1728 0
DWIDTH 18 0
BBX 8 11 5 0
BITMAP
7E
FF
FF
C3
C3
C3
DB
DB
C3
FF
FF
ENDCHAR
STARTCHAR U+E08C
ENCODING 57484
SWIDTH 1728 0
DWIDTH 18 0
BBX 8 11 5 0
BITMAP
7E
FF
FF
C3
DB
DB
DB
DB
C3
FF
FF
ENDCHAR
STARTCHAR U+E08D
ENCODING 57485
SWIDTH 1728 0
DWIDTH 18 0
BBX 8 12 5 0
BITMAP
7E
FF
FF
C3
C3
C3
C3
C3
C3
C3
FF
FF
ENDCHAR
STARTCHAR U+E08E
ENCODING 57486
SWIDTH 1728 0
DWIDTH 18 0
BBX 8 12 5 0
BITMAP
7E
FF
FF
C3
C3
C3
DB
DB
DB
C3
FF
FF
ENDCHAR
STARTCHAR U+E08F
ENCODING 57487
SWIDTH 1728 0
DWIDTH 18 0
BBX 8 12 5 0
BITMAP
7E
FF
FF
C3
DB
DB
DB
DB
DB
C3
FF
FF
ENDCHAR
STARTCHAR U+E090
ENCODING 57488
SWIDTH 1728 0
DWIDTH 18 0
BBX 12 9 3 0
BITMAP
7FF0
7FF0
6030
E030
E030
E030
6030
7FF0
7FF0
ENDCHAR
STARTCHAR U+E091
ENCODING 57489
SWIDTH 1728 0
DWIDTH 18 0
BBX 12 9 3 0
BITMAP
7FF0
7FF0
6030
E1B0
E3B0
E3B0
6030
7FF0
7FF0
ENDCHAR
STARTCHAR U+E092
ENCODING 57490
SWIDTH 1728 0
DWIDTH 18 0
BBX 12 9 3 0
BITMAP
7FF0
7FF0
6030
E3B0
EFB0
EFB0
6030
7FF0
7FF0
ENDCHAR
STARTCHAR U+E093
ENCODING 57491
SWIDTH 1728 0
DWIDTH 18 0
BBX 12 9 3 0
BITMAP
7FF0
7FF0
6030
EFB0
EFB0
EFB0
6030
7FF0
7FF0
ENDCHAR
STARTCHAR U+E094
ENCODING 57492
SWIDTH 1728 0
DWIDTH 18 0
BBX 12 12 3 0
BITMAP
0300
6380
6380
C3F0
DBF0
DBF0
DBF0
DBF0
C3F0
6380
6380
0300
ENDCHAR
STARTCHAR U+E095
ENCODING 57493
SWIDTH 1728 0
DWIDTH 18 0
BBX 11 12 3 0
BITMAP
1800
1C00
1E00
DFE0
DFE0
DFE0
DFE0
DFE0
DFE0
1E00
1C00
1800
ENDCHAR
STARTCHAR U+E096
ENCODING 57494
SWIDTH 1728 0
DWIDTH 18 0
BBX 9 11 5 0
BITMAP
C180
C380
C380
CF80
DF80
DF80
DF80
CF80
C380
C380
C180
ENDCHAR
STARTCHAR U+E097
ENCODING 57495
SWIDTH 1728 0
DWIDTH 18 0
BBX 12 11 3 0
BITMAP
0C30
1C70
1C70
7DF0
FFF0
FFF0
FFF0
7DF0
1C70
1C70
0C30
ENDCHAR
STARTCHAR U+E098
ENCODING 57496
SWIDTH 1728 0
DWIDTH 18 0
BBX 11 11 3 0
BITMAP
1F00
3F80
7FC0
FFE0
FFE0
FFE0
FFE0
FFE0
7FC0
3F80
1F00
ENDCHAR
STARTCHAR U+E099
ENCODING 57497
SWIDTH 1728 0
DWIDTH 18 0
BBX 11 11 3 0
BITMAP
FFE0
FFE0
FFE0
FFE0
FFE0
FFE0
FFE0
FFE0
FFE0
FFE0
FFE0
ENDCHAR
STARTCHAR U+E09A
ENCODING 57498
SWIDTH 1728 0
DWIDTH 18 0
BBX 6 11 6 0
BITMAP
C0
E0
E0
F8
FC
FC
FC
F8
E0
E0
C0
ENDCHAR
STARTCHAR U+E09B
ENCODING 57499
SWIDTH 1728 0
DWIDTH 18 0
BBX 8 11 5 0
BITMAP
E7
E7
E7
E7
E7
E7
E7
E7
E7
E7
E7
ENDCHAR
STARTCHAR U+E09C
ENCODING 57500
SWIDTH 1728 0
DWIDTH 18 0
BBX 9 11 5 0
BITMAP
C180
E180
E180
F980
FD80
FD80
FD80
F980
E180
E180
C180
ENDCHAR
STARTCHAR U+E09D
ENCODING 57501
SWIDTH 1728 0
DWIDTH 18 0
BBX 12 11 3 0
BITMAP
C300
E380
E380
FBE0
FFF0
FFF0
FFF0
FBE0
E380
E380
C300
ENDCHAR
STARTCHAR U+E09E
ENCODING 57502
SWIDTH 1728 0
DWIDTH 18 0
BBX 9 14 5 -2
BITMAP
0300
0700
0C00
1C00
3C00
7800
FF80
FF80
0F00
1E00
1C00
1800
7000
6000
ENDCHAR
STARTCHAR U+E09F
ENCODING 57503
SWIDTH 1728 0
DWIDTH 18 0
BBX 12 12 3 0
BITMAP
FFF0
FFF0
C030
C030
C030
C030
C030
FFF0
FFF0
0F00
7FE0
7FE0
ENDCHAR
STARTCHAR U+E0A0
ENCODING 57504
SWIDTH 1728 0
DWIDTH 18 0
BBX 9 9 5 0
BITMAP
7F00
FF80
EF80
FF00
FF00
FC00
FF80
FF80
7F00
ENDCHAR
STARTCHAR U+E0A1
ENCODING 57505
SWIDTH 1728 0
DWIDTH 18 0
BBX 12 12 3 0
BITMAP
0F00
0F00
0F00
1F80
1F80
1F80
7FE0
7FE0
79E0
F9F0
F9F0
E070
ENDCHAR
STARTCHAR U+E0A2
ENCODING 57506
SWIDTH 1728 0
DWIDTH 18 0
BBX 9 9 5 0
BITMAP
7F00
FF80
EF80
EF80
EF80
E180
FF80
FF80
7F00
ENDCHAR
STARTCHAR U+E0A3
ENCODING 57507
SWIDTH 1728 0
DWIDTH 18 0
BBX 11 11 3 0
BITMAP
1F00
3F80
7BC0
FBE0
FBE0
F860
FFE0
FFE0
7FC0
3F80
1F00
ENDCHAR
STARTCHAR U+E0A4
ENCODING 57508
SWIDTH 1728 0
DWIDTH 18 0
BBX 8 11 5 0
BITMAP
78
7F
7F
78
7F
7F
7F
78
FE
FC
78
ENDCHAR
STARTCHAR U+E0A5
ENCODING 57509
SWIDTH 1728 0
DWIDTH 18 0
BBX 9 11 5 0
BITMAP
1980
3D80
7C00
7D80
7D80
6C00
E700
C300
C300
FE00
7C00
ENDCHAR
STARTCHAR U+E0A6
ENCODING 57510
SWIDTH 1728 0
DWIDTH 18 0
BBX 9 11 5 0
BITMAP
7F00
FF80
C180
C180
C180
C180
FF80
FF80
FF80
FF80
FF80
ENDCHAR
STARTCHAR U+E0A7
ENCODING 57511
SWIDTH 1728 0
DWIDTH 18 0
BBX 9 12 5 0
BITMAP
FF80
FF80
E380
E380
E380
E380
E380
FF80
FF80
E380
FF80
FF80
ENDCHAR
STARTCHAR U+E0A8
ENCODING 57512
SWIDTH 1728 0
DWIDTH 18 0
BBX 9 12 5 0
BITMAP
FF80
FF80
E380
FF80
FF80
E380
E380
E380
E380
E380
FF80
FF80
ENDCHAR
STARTCHAR U+E0A9
ENCODING 57513
SWIDTH 1728 0
DWIDTH 18 0
BBX 12 9 3 0
BITMAP
1F80
7FE0
6060
CF30
CF30
CF30
6060
7FE0
1F80
ENDCHAR
STARTCHAR U+E0AA
ENCODING 57514
SWIDTH 1728 0
DWIDTH 18 0
BBX 11 12 3 0
BITMAP
1F00
3F80
7FC0
EEE0
EEE0
EEE0
FFE0
FFE0
FFE0
FFE0
FFE0
DB60
ENDCHAR
STARTCHAR U+E0AB
ENCODING 57515
SWIDTH 1728 0
DWIDTH 18 0
BBX 12 12 3 0
BITMAP
1F80
7FE0
7FE0
F9F0
FFF0
EF70
EF70
FFF0
F9F0
7FE0
7FE0
1F80
ENDCHAR
STARTCHAR U+E0AC
ENCODING 57516
SWIDTH 1728 0
DWIDTH 18 0
BBX 9 9 5 0
BITMAP
FC00
FF00
C300
F980
FD80
CD80
ED80
FF80
FF80
ENDCHAR
STARTCHAR U+E0AD
ENCODING 57517
SWIDTH 1728 0
DWIDTH 18 0
BBX 12 12 3 0
BITMAP
7FE0
FFF0
C030
C030
C030
C030
C030
FF70
7F60
0380
0380
0300
ENDCHAR
STARTCHAR U+E0AE
ENCODING 57518
SWIDTH 1728 0
DWIDTH 18 0
BBX 12 12 3 0
BITMAP
0F00
1F80
1980
79E0
F9F0
F9F0
F9F0
FFF0
7FE0
1980
1F80
0F00
ENDCHAR
STARTCHAR U+E0AF
ENCODING 57519
SWIDTH 1728 0
DWIDTH 18 0
BBX 9 11 5 0
BITMAP
FF80
FF80
C180
C180
C180
C180
FF80
FF80
1C00
FF80
FF80
ENDCHAR
STARTCHAR U+E0B0
ENCODING 57520
SWIDTH 1728 0
DWIDTH 18 0
BBX 9 11 5 0
BITMAP
0C00
8E00
CF00
6D80
7F80
1F00
7F80
6D80
CF00
8E00
0C00
ENDCHAR
STARTCHAR U+E0B1
ENCODING 57521
SWIDTH 1728 0
DWIDTH 18 0
BBX 12 12 3 0
BITMAP
FF00
FF00
FF00
FF00
FF70
FF70
FF70
FF70
0070
0FF0
0FF0
0FF0
ENDCHAR
STARTCHAR U+E0B2
ENCODING 57522
SWIDTH 1728 0
DWIDTH 18 0
BBX 12 12 3 0
BITMAP
0F00
1F80
1F80
7FE0
FFF0
FFF0
6060
6F60
6F60
6F60
7FE0
7FE0
ENDCHAR
STARTCHAR U+E0B3
ENCODING 57523
SWIDTH 1728 0
DWIDTH 18 0
BBX 5 12 6 0
BITMAP
F8
F8
F8
F8
F8
F8
F8
F8
00
F8
F8
F8
ENDCHAR
STARTCHAR U+E0B4
ENCODING 57524
SWIDTH 1728 0
DWIDTH 18 0
BBX 12 11 3 0
BITMAP
FFF0
FFF0
C030
C030
C030
C030
C030
C030
C030
FFF0
FFF0
ENDCHAR
STARTCHAR U+E0B5
ENCODING 57525
SWIDTH 1728 0
DWIDTH 18 0
BBX 12 11 3 0
BITMAP
FFF0
FFF0
C330
C3F0
C3F0
C330
C3F0
C3F0
C330
FFF0
FFF0
ENDCHAR
STARTCHAR U+E0B6
ENCODING 57526
SWIDTH 1728 0
DWIDTH 18 0
BBX 12 11 3 0
BITMAP
FFF0
FFF0
C030
C030
FFF0
FFF0
FFF0
D9B0
D9B0
FFF0
FFF0
ENDCHAR
STARTCHAR U+E0B7
ENCODING 57527
SWIDTH 1728 0
DWIDTH 18 0
BBX 12 11 3 0
BITMAP
FFF0
FFF0
C030
C030
C030
C030
FFF0
FFF0
C030
FFF0
FFF0
ENDCHAR
STARTCHAR U+E0B8
ENCODING 57528
SWIDTH 1728 0
DWIDTH 18 0
BBX 12 11 3 0
BITMAP
FFF0
FFF0
D9B0
FFF0
FFF0
D9B0
FFF0
FFF0
D9B0
FFF0
FFF0
ENDCHAR
STARTCHAR U+E0B9
ENCODING 57529
SWIDTH 1728 0
DWIDTH 18 0
BBX 12 11 3 0
BITMAP
FF00
FF00
C300
C300
FF70
FF70
FE70
0030
0C30
0FF0
0FF0
ENDCHAR
STARTCHAR U+E0BA
ENCODING 57530
SWIDTH 1728 0
DWIDTH 18 0
BBX 12 11 3 0
BITMAP
FFF0
FFF0
CC30
CFF0
CFF0
CDB0
CDF0
CDF0
CDB0
FFF0
FFF0
ENDCHAR
STARTCHAR U+E0BB
ENCODING 57531
SWIDTH 1728 0
DWIDTH 18 0
BBX 12 11 3 0
BITMAP
FFF0
FFF0
CC30
CFF0
CFF0
CDB0
CFB0
CFB0
CDB0
FFF0
FFF0
ENDCHAR
STARTCHAR U+E0BC
ENCODING 57532
SWIDTH 1728 0
DWIDTH 18 0
BBX 12 11 3 0
BITMAP
FFF0
FFF0
C330
C3F0
FFF0
FF30
FFF0
C3F0
C330
FFF0
FFF0
ENDCHAR
STARTCHAR U+E0BD
ENCODING 57533
SWIDTH 1728 0
DWIDTH 18 0
BBX 12 11 3 0
BITMAP
FFF0
FFF0
C330
C330
FFF0
FFF0
FFF0
D9B0
D9B0
FFF0
FFF0
ENDCHAR
STARTCHAR U+E0BE
ENCODING 57534
SWIDTH 1728 0
DWIDTH 18 0
BBX 12 11 3 0
BITMAP
FFF0
FFF0
C330
C330
FF30
FF30
FE30
C030
C030
FFF0
FFF0
ENDCHAR
STARTCHAR U+E0BF
ENCODING 57535
SWIDTH 1728 0
DWIDTH 18 0
BBX 12 12 3 0
BITMAP
0F00
1F80
1980
6060
FFF0
FFF0
6060
6F60
6F60
6F60
7FE0
7FE0
ENDCHAR
STARTCHAR U+E0C0
ENCODING 57536
SWIDTH 1728 0
DWIDTH 18 0
BBX 11 11 3 0
BITMAP
E0E0
FFE0
DF60
71C0
60C0
60C0
60C0
71C0
DF60
FFE0
E0E0
ENDCHAR
STARTCHAR U+E0C1
ENCODING 57537
SWIDTH 1728 0
DWIDTH 18 0
BBX 12 12 3 0
BITMAP
E070
FFF0
DFB0
6060
6060
6060
6060
6060
6060
DFB0
FFF0
E070
ENDCHAR
STARTCHAR U+E0C2
ENCODING 57538
SWIDTH 1728 0
DWIDTH 18 0
BBX 11 11 3 0
BITMAP
C060
FFE0
7FC0
71C0
60C0
60C0
60C0
71C0
7FC0
FFE0
C060
ENDCHAR
STARTCHAR U+E0C3
ENCODING 57539
SWIDTH 1728 0
DWIDTH 18 0
BBX 12 12 3 0
BITMAP
C030
FFF0
7FE0
6060
6060
6060
6060
6060
6060
7FE0
FFF0
C030
ENDCHAR
STARTCHAR U+E0C4
ENCODING 57540
SWIDTH 1728 0
DWIDTH 18 0
BBX 11 11 3 0
BITMAP
DB60
DB60
0000
FFE0
FFE0
C060
FFE0
FFE0
0000
DB60
DB60
ENDCHAR
STARTCHAR U+E0C5
ENCODING 57541
SWIDTH 1728 0
DWIDTH 18 0
BBX 11 12 3 0
BITMAP
DB60
DB60
0000
FFE0
FFE0
C060
C060
FFE0
FFE0
0000
DB60
DB60
ENDCHAR
STARTCHAR U+E0C6
ENCODING 57542
SWIDTH 1728 0
DWIDTH 18 0
BBX 11 11 3 0
BITMAP
1F00
3F80
7FC0
FFE0
EEE0
EEE0
FFE0
FFE0
FFE0
FFE0
DB60
ENDCHAR
STARTCHAR U+E0C7
ENCODING 57543
SWIDTH 1728 0
DWIDTH 18 0
BBX 11 11 3 0
BITMAP
1F00
3F80
7FC0
FFE0
FFE0
FFE0
FFE0
FFE0
FFE0
FFE0
DB60
ENDCHAR
STARTCHAR U+E0C8
ENCODING 57544
SWIDTH 1728 0
DWIDTH 18 0
BBX 11 12 3 0
BITMAP
1F00
3F80
7FC0
EEE0
FFE0
FFE0
FFE0
FFE0
FFE0
FFE0
FFE0
DB60
ENDCHAR
STARTCHAR U+E0C9
ENCODING 57545
SWIDTH 1728 0
DWIDTH 18 0
BBX 11 11 3 0
BITMAP
18E0
DBE0
C3E0
0FC0
3FC0
7B00
FF00
CE00
CE00
FC00
7800
ENDCHAR
STARTCHAR U+E0CA
ENCODING 57546
SWIDTH 1728 0
DWIDTH 18 0
BBX 12 12 3 0
BITMAP
0C70
0DF0
01B0
6360
6FE0
0D80
7B00
FF00
CC00
CC00
FC00
7800
ENDCHAR
STARTCHAR U+E0CB
ENCODING 57547
SWIDTH 1728 0
DWIDTH 18 0
BBX 11 11 3 0
BITMAP
18E0
DBE0
C360
0FC0
3FC0
7B00
FF00
CE00
CE00
FC00
7800
ENDCHAR
STARTCHAR U+E0CC
ENCODING 57548
SWIDTH 1728 0
DWIDTH 18 0
BBX 9 12 5 0
BITMAP
1980
7D80
7C00
6D80
6D80
6C00
6D80
EF80
C300
C300
FF00
7C00
ENDCHAR
STARTCHAR U+E0CD
ENCODING 57549
SWIDTH 1728 0
DWIDTH 18 0
BBX 9 11 5 0
BITMAP
1980
3D80
7C00
6D80
6D80
6C00
E700
C300
C300
FE00
7C00
ENDCHAR
STARTCHAR U+E0CE
ENCODING 57550
SWIDTH 1728 0
DWIDTH 18 0
BBX 9 11 5 0
BITMAP
7C00
7F80
6F80
6C00
6F80
6F80
6F80
6C00
C300
FE00
7C00
ENDCHAR
STARTCHAR U+E0CF
ENCODING 57551
SWIDTH 1728 0
DWIDTH 18 0
BBX 9 12 5 0
BITMAP
7C00
7F80
6F80
6C00
6F80
6F80
6C00
EF00
C300
C300
FF00
7C00
ENDCHAR
STARTCHAR U+E0D0
ENCODING 57552
SWIDTH 1728 0
DWIDTH 18 0
BBX 12 12 3 0
BITMAP
0F00
1F80
1980
6060
F9F0
F9F0
1980
1980
1980
1980
1F80
1F80
ENDCHAR
STARTCHAR U+E0D1
ENCODING 57553
SWIDTH 1728 0
DWIDTH 18 0
BBX 12 12 3 0
BITMAP
1F80
1F80
1980
1980
1980
1980
F9F0
F9F0
6060
1980
1F80
0F00
ENDCHAR
STARTCHAR U+E0D2
ENCODING 57554
SWIDTH 1728 0
DWIDTH 18 0
BBX 12 12 3 0
BITMAP
0300
0380
0380
FF60
FF70
C030
C030
FF70
FF60
0380
0380
0300
ENDCHAR
STARTCHAR U+E0D3
ENCODING 57555
SWIDTH 1728 0
DWIDTH 18 0
BBX 12 12 3 0
BITMAP
0C00
1C00
1C00
6FF0
EFF0
C030
C030
EFF0
6FF0
1C00
1C00
0C00
ENDCHAR
STARTCHAR U+E0D4
ENCODING 57556
SWIDTH 1728 0
DWIDTH 18 0
BBX 11 11 3 0
BITMAP
0E00
1F00
1B00
71C0
F1E0
FBE0
FBE0
1B00
1B00
1F00
1F00
ENDCHAR
STARTCHAR U+E0D5
ENCODING 57557
SWIDTH 1728 0
DWIDTH 18 0
BBX 11 11 3 0
BITMAP
1F00
1F00
1B00
1B00
FBE0
FBE0
F1E0
71C0
1B00
1F00
0E00
ENDCHAR
STARTCHAR U+E0D6
ENCODING 57558
SWIDTH 1728 0
DWIDTH 18 0
BBX 11 11 3 0
BITMAP
0E00
0F00
0F00
FFC0
FCE0
C060
FCE0
FFC0
0F00
0F00
0E00
ENDCHAR
STARTCHAR U+E0D7
ENCODING 57559
SWIDTH 1728 0
DWIDTH 18 0
BBX 11 11 3 0
BITMAP
0E00
1E00
1E00
7FE0
E7E0
C060
E7E0
7FE0
1E00
1E00
0E00
ENDCHAR
STARTCHAR U+E0D8
ENCODING 57560
SWIDTH 1728 0
DWIDTH 18 0
BBX 12 11 3 0
BITMAP
0F00
1F00
1B00
E3F0
E3F0
C300
E3F0
E3F0
1B00
1F00
0F00
ENDCHAR
STARTCHAR U+E0D9
ENCODING 57561
SWIDTH 1728 0
DWIDTH 18 0
BBX 12 12 3 0
BITMAP
0F00
1F00
1B00
63F0
E3F0
C300
C300
E3F0
63F0
1B00
1F00
0F00
ENDCHAR
STARTCHAR U+E0DA
ENCODING 57562
SWIDTH 1728 0
DWIDTH 18 0
BBX 9 12 5 0
BITMAP
6300
6300
6300
6300
FF80
FF80
C180
E380
6300
1C00
1C00
1C00
ENDCHAR
STARTCHAR U+E0DB
ENCODING 57563
SWIDTH 1728 0
DWIDTH 18 0
BBX 9 11 5 0
BITMAP
6300
6300
6300
FF80
FF80
C180
E380
6300
1C00
1C00
1C00
ENDCHAR
STARTCHAR U+E0DC
ENCODING 57564
SWIDTH 1728 0
DWIDTH 18 0
BBX 12 11 3 0
BITMAP
1F80
3FC0
6060
CD80
CF80
C300
C3F0
C3F0
6060
3FC0
1F80
ENDCHAR
STARTCHAR U+E0DD
ENCODING 57565
SWIDTH 1728 0
DWIDTH 18 0
BBX 12 12 3 0
BITMAP
0F00
1F80
1980
1980
79E0
6060
6060
EF70
CF30
D9B0
F9F0
E070
ENDCHAR
STARTCHAR U+E0DE
ENCODING 57566
SWIDTH 1728 0
DWIDTH 18 0
BBX 12 12 3 0
BITMAP
1F80
7FE0
6060
CC60
CDE0
C180
C300
C3F0
C1F0
6060
7FE0
1F80
ENDCHAR
STARTCHAR U+E0DF
ENCODING 57567
SWIDTH 1728 0
DWIDTH 18 0
BBX 11 11 3 0
BITMAP
0E00
1F00
1B00
1B00
3B80
60C0
64C0
7FC0
DB60
FBE0
E0E0
ENDCHAR
STARTCHAR U+E0E0
ENCODING 57568
SWIDTH 1728 0
DWIDTH 18 0
BBX 12 12 3 0
BITMAP
0C00
1C60
1C60
EC30
EDB0
CDB0
CDB0
EDB0
EC30
1C60
1C60
0C00
ENDCHAR
STARTCHAR U+E0E1
ENCODING 57569
SWIDTH 1728 0
DWIDTH 18 0
BBX 12 11 3 0
BITMAP
0C00
1C40
1C60
EC30
ECB0
CDB0
ECB0
EC30
1C60
1C40
0C00
ENDCHAR
STARTCHAR U+E0E2
ENCODING 57570
SWIDTH 1728 0
DWIDTH 18 0
BBX 11 12 3 0
BITMAP
0300
0700
0F00
FB60
FB60
C360
C360
FB60
FB60
0F00
0700
0300
ENDCHAR
STARTCHAR U+E0E3
ENCODING 57571
SWIDTH 1728 0
DWIDTH 18 0
BBX 11 11 3 0
BITMAP
0300
0700
0F00
FB60
FB60
C360
FB60
FB60
0F00
0700
0300
ENDCHAR
STARTCHAR U+E0E4
ENCODING 57572
SWIDTH 1728 0
DWIDTH 18 0
BBX 9 12 5 0
BITMAP
C180
C380
C380
CD80
DD80
D980
D980
DD80
CD80
C380
C380
C180
ENDCHAR
STARTCHAR U+E0E5
ENCODING 57573
SWIDTH 1728 0
DWIDTH 18 0
BBX 12 12 3 0
BITMAP
0C30
1C70
1C70
6DB0
EFB0
CF30
CF30
EFB0
6DB0
1C70
1C70
0C30
ENDCHAR
STARTCHAR U+E0E6
ENCODING 57574
SWIDTH 1728 0
DWIDTH 18 0
BBX 12 12 3 0
BITMAP
1F80
7FE0
6060
C030
C030
C030
C030
C030
C030
6060
7FE0
1F80
ENDCHAR
STARTCHAR U+E0E7
ENCODING 57575
SWIDTH 1728 0
DWIDTH 18 0
BBX 12 12 3 0
BITMAP
FFF0
FFF0
C030
C030
C030
C030
C030
C030
C030
C030
FFF0
FFF0
ENDCHAR
STARTCHAR U+E0E8
ENCODING 57576
SWIDTH 1728 0
DWIDTH 18 0
BBX 6 12 6 0
BITMAP
C0
E0
E0
D8
DC
CC
CC
DC
D8
E0
E0
C0
ENDCHAR
STARTCHAR U+E0E9
ENCODING 57577
SWIDTH 1728 0
DWIDTH 18 0
BBX 6 12 6 0
BITMAP
CC
CC
CC
CC
CC
CC
CC
CC
CC
CC
CC
CC
ENDCHAR
STARTCHAR U+E0EA
ENCODING 57578
SWIDTH 1728 0
DWIDTH 18 0
BBX 9 12 5 0
BITMAP
C180
E180
E180
D980
DD80
CD80
CD80
DD80
D980
E180
E180
C180
ENDCHAR
STARTCHAR U+E0EB
ENCODING 57579
SWIDTH 1728 0
DWIDTH 18 0
BBX 12 12 3 0
BITMAP
C300
E380
E380
DB60
DF70
CF30
CF30
DF70
DB60
E380
E380
C300
ENDCHAR
STARTCHAR U+E0EC
ENCODING 57580
SWIDTH 1728 0
DWIDTH 18 0
BBX 11 11 3 0
BITMAP
1FE0
1FE0
1860
1860
1860
1860
78E0
79E0
DB60
FBE0
E3C0
ENDCHAR
STARTCHAR U+E0ED
ENCODING 57581
SWIDTH 1728 0
DWIDTH 18 0
BBX 11 12 3 0
BITMAP
1FE0
1FE0
1860
1860
1860
1860
1860
38E0
78E0
DB60
FBE0
E3C0
ENDCHAR
STARTCHAR U+E0EE
ENCODING 57582
SWIDTH 1728 0
DWIDTH 18 0
BBX 5 6 9 0
BITMAP
18
18
18
D8
D8
D8
ENDCHAR
STARTCHAR U+E0EF
ENCODING 57583
SWIDTH 1728 0
DWIDTH 18 0
BBX 8 9 6 0
BITMAP
03
03
03
1B
1B
1B
DB
DB
DB
ENDCHAR
STARTCHAR U+E0F0
ENCODING 57584
SWIDTH 1728 0
DWIDTH 18 0
BBX 11 12 3 0
BITMAP
0060
0060
0060
0360
0360
0360
1B60
1B60
1B60
DB60
DB60
DB60
ENDCHAR
STARTCHAR U+E0F1
ENCODING 57585
SWIDTH 1728 0
DWIDTH 18 0
BBX 5 5 9 0
BITMAP
18
18
18
D8
D8
ENDCHAR
STARTCHAR U+E0F2
ENCODING 57586
SWIDTH 1728 0
DWIDTH 18 0
BBX 8 8 6 0
BITMAP
03
03
03
1B
1B
1B
DB
DB
ENDCHAR
STARTCHAR U+E0F3
ENCODING 57587
SWIDTH 1728 0
DWIDTH 18 0
BBX 11 11 3 0
BITMAP
0060
0060
0060
0360
0360
0360
1B60
1B60
1B60
DB60
DB60
ENDCHAR
STARTCHAR U+E0F4
ENCODING 57588
SWIDTH 1728 0
DWIDTH 18 0
BBX 9 11 5 0
BITMAP
C180
C380
C380
CD80
DD80
D980
DD80
CD80
C380
C380
C180
ENDCHAR
STARTCHAR U+E0F5
ENCODING 57589
SWIDTH 1728 0
DWIDTH 18 0
BBX 12 11 3 0
BITMAP
0C30
1C70
1C70
6DB0
EFB0
CF30
EFB0
6DB0
1C70
1C70
0C30
ENDCHAR
STARTCHAR U+E0F6
ENCODING 57590
SWIDTH 1728 0
DWIDTH 18 0
BBX 11 11 3 0
BITMAP
1F00
3F80
60C0
C060
C060
C060
C060
C060
60C0
3F80
1F00
ENDCHAR
STARTCHAR U+E0F7
ENCODING 57591
SWIDTH 1728 0
DWIDTH 18 0
BBX 11 11 3 0
BITMAP
FFE0
FFE0
C060
C060
C060
C060
C060
C060
C060
FFE0
FFE0
ENDCHAR
STARTCHAR U+E0F8
ENCODING 57592
SWIDTH 1728 0
DWIDTH 18 0
BBX 6 11 6 0
BITMAP
C0
E0
E0
D8
DC
CC
DC
D8
E0
E0
C0
ENDCHAR
STARTCHAR U+E0F9
ENCODING 57593
SWIDTH 1728 0
DWIDTH 18 0
BBX 6 11 6 0
BITMAP
CC
CC
CC
CC
CC
CC
CC
CC
CC
CC
CC
ENDCHAR
STARTCHAR U+E0FA
ENCODING 57594
SWIDTH 1728 0
DWIDTH 18 0
BBX 9 11 5 0
BITMAP
C180
E180
E180
D980
DD80
CD80
DD80
D980
E180
E180
C180
ENDCHAR
STARTCHAR U+E0FB
ENCODING 57595
SWIDTH 1728 0
DWIDTH 18 0
BBX 12 11 3 0
BITMAP
C300
E380
E380
DB60
DF70
CF30
DF70
DB60
E380
E380
C300
ENDCHAR
STARTCHAR U+E0FC
ENCODING 57596
SWIDTH 1728 0
DWIDTH 18 0
BBX 12 11 3 0
BITMAP
1F80
3FC0
6060
C030
C030
C030
F9F0
F9F0
D9B0
F9F0
79E0
ENDCHAR
STARTCHAR U+E0FD
ENCODING 57597
SWIDTH 1728 0
DWIDTH 18 0
BBX 12 11 3 0
BITMAP
1F80
3FC0
6060
C030
C030
C030
F9F0
F9F0
F9F0
F9F0
79E0
ENDCHAR
STARTCHAR U+E0FE
ENCODING 57598
SWIDTH 1728 0
DWIDTH 18 0
BBX 11 11 3 0
BITMAP
1FE0
1FE0
1FE0
1860
1860
1860
78E0
79E0
FBE0
FBE0
E3C0
ENDCHAR
STARTCHAR U+E0FF
ENCODING 57599
SWIDTH 1728 0
DWIDTH 18 0
BBX 5 12 6 0
BITMAP
F8
F8
F8
00
F8
F8
F8
F8
F8
F8
F8
F8
ENDCHAR
STARTCHAR U+E100
ENCODING 57600
SWIDTH 1728 0
DWIDTH 18 0
BBX 11 11 3 0
BITMAP
FE60
FFE0
7FE0
71E0
E4E0
EEE0
E4E0
F1C0
FFC0
FFE0
CFE0
ENDCHAR
STARTCHAR U+E101
ENCODING 57601
SWIDTH 1728 0
DWIDTH 18 0
BBX 9 9 5 0
BITMAP
F980
FF80
7F80
6380
E380
E300
FF00
FF80
CF80
ENDCHAR
STARTCHAR U+E102
ENCODING 57602
SWIDTH 1728 0
DWIDTH 18 0
BBX 12 9 3 0
BITMAP
FFF0
FFF0
E070
D9B0
DFB0
CF30
C030
FFF0
FFF0
ENDCHAR
STARTCHAR U+E103
ENCODING 57603
SWIDTH 1728 0
DWIDTH 18 0
BBX 12 9 3 0
BITMAP
FFF0
FFF0
7FE0
DFB0
FFF0
E070
FFF0
FFF0
FFF0
ENDCHAR
STARTCHAR U+E104
ENCODING 57604
SWIDTH 1728 0
DWIDTH 18 0
BBX 12 12 3 0
BITMAP
0F00
1F80
1F80
7FE0
FFF0
FFF0
FFF0
FFF0
7FE0
1F80
1F80
0F00
ENDCHAR
STARTCHAR U+E105
ENCODING 57605
SWIDTH 1728 0
DWIDTH 18 0
BBX 11 11 3 0
BITMAP
0E00
1F00
1F00
7FC0
FFE0
FFE0
FFE0
7FC0
1F00
1F00
0E00
ENDCHAR
STARTCHAR U+E106
ENCODING 57606
SWIDTH 1728 0
DWIDTH 18 0
BBX 12 12 3 0
BITMAP
79E0
FFF0
FFF0
FFF0
FFF0
FFF0
FFF0
FFF0
7FE0
1F80
1F80
0F00
ENDCHAR
STARTCHAR U+E107
ENCODING 57607
SWIDTH 1728 0
DWIDTH 18 0
BBX 12 11 3 0
BITMAP
79E0
FFF0
FFF0
FFF0
FFF0
FFF0
FFF0
7FE0
1F80
1F80
0F00
ENDCHAR
STARTCHAR U+E108
ENCODING 57608
SWIDTH 1728 0
DWIDTH 18 0
BBX 11 12 3 0
BITMAP
0E00
1F00
1B00
60C0
FBE0
FBE0
1B00
1B00
1B00
1B00
1F00
1F00
ENDCHAR
STARTCHAR U+E109
ENCODING 57609
SWIDTH 1728 0
DWIDTH 18 0
BBX 11 12 3 0
BITMAP
1F00
1F00
1B00
1B00
1B00
1B00
FBE0
FBE0
60C0
1B00
1F00
0E00
ENDCHAR
STARTCHAR U+E10A
ENCODING 57610
SWIDTH 1728 0
DWIDTH 18 0
BBX 12 11 3 0
BITMAP
0300
0380
0380
FF60
FF70
C030
FF70
FF60
0380
0380
0300
ENDCHAR
STARTCHAR U+E10B
ENCODING 57611
SWIDTH 1728 0
DWIDTH 18 0
BBX 12 11 3 0
BITMAP
0C00
1C00
1C00
6FF0
EFF0
C030
EFF0
6FF0
1C00
1C00
0C00
ENDCHAR
STARTCHAR U+E10C
ENCODING 57612
SWIDTH 1728 0
DWIDTH 18 0
BBX 11 12 3 0
BITMAP
0E00
0E00
0E00
6EC0
EEE0
CE60
CE60
C460
C060
60C0
3F80
1F00
ENDCHAR
STARTCHAR U+E10D
ENCODING 57613
SWIDTH 1728 0
DWIDTH 18 0
BBX 11 11 3 0
BITMAP
0E00
2E80
6EC0
CE60
CE60
CE60
C460
C060
60C0
3F80
1F00
ENDCHAR
STARTCHAR U+E10E
ENCODING 57614
SWIDTH 1728 0
DWIDTH 18 0
BBX 11 11 3 0
BITMAP
0E00
1F00
1B00
71C0
FFE0
FFE0
FFE0
60C0
6EC0
7FC0
7FC0
ENDCHAR
STARTCHAR U+E10F
ENCODING 57615
SWIDTH 1728 0
DWIDTH 18 0
BBX 9 11 5 0
BITMAP
6300
6780
6F80
6300
6300
6300
6300
6300
FB00
F300
6300
ENDCHAR
STARTCHAR U+E110
ENCODING 57616
SWIDTH 1728 0
DWIDTH 18 0
BBX 8 11 5 0
BITMAP
18
FF
FF
C3
C3
C3
C3
C3
C3
FF
FF
ENDCHAR
STARTCHAR U+E111
ENCODING 57617
SWIDTH 1728 0
DWIDTH 18 0
BBX 8 11 5 0
BITMAP
18
FF
FF
C3
C3
C3
DB
DB
C3
FF
FF
ENDCHAR
STARTCHAR U+E112
ENCODING 57618
SWIDTH 1728 0
DWIDTH 18 0
BBX 8 11 5 0
BITMAP
18
FF
FF
C3
DB
DB
DB
DB
C3
FF
FF
ENDCHAR
STARTCHAR U+E113
ENCODING 57619
SWIDTH 1728 0
DWIDTH 18 0
BBX 12 8 3 2
BITMAP
FFE0
FFE0
C060
C070
C070
C060
FFE0
FFE0
ENDCHAR
STARTCHAR U+E114
ENCODING 57620
SWIDTH 1728 0
DWIDTH 18 0
BBX 12 8 3 2
BITMAP
FFE0
FFE0
C060
D870
D870
C060
FFE0
FFE0
ENDCHAR
STARTCHAR U+E115
ENCODING 57621
SWIDTH 1728 0
DWIDTH 18 0
BBX 12 8 3 2
BITMAP
FFE0
FFE0
C060
DC70
DC70
C060
FFE0
FFE0
ENDCHAR
STARTCHAR U+E116
ENCODING 57622
SWIDTH 1728 0
DWIDTH 18 0
BBX 12 8 3 2
BITMAP
FFE0
FFE0
C060
DF70
DF70
C060
FFE0
FFE0
ENDCHAR
STARTCHAR U+E117
ENCODING 57623
SWIDTH 1728 0
DWIDTH 18 0
BBX 12 8 3 2
BITMAP
7FF0
7FF0
6030
E030
E030
6030
7FF0
7FF0
ENDCHAR
STARTCHAR U+E118
ENCODING 57624
SWIDTH 1728 0
DWIDTH 18 0
BBX 12 8 3 2
BITMAP
7FF0
7FF0
6030
E1B0
E1B0
6030
7FF0
7FF0
ENDCHAR
STARTCHAR U+E119
ENCODING 57625
SWIDTH 1728 0
DWIDTH 18 0
BBX 12 8 3 2
BITMAP
7FF0
7FF0
6030
E3B0
E3B0
6030
7FF0
7FF0
ENDCHAR
STARTCHAR U+E11A
ENCODING 57626
SWIDTH 1728 0
DWIDTH 18 0
BBX 12 8 3 2
BITMAP
7FF0
7FF0
6030
EFB0
EFB0
6030
7FF0
7FF0
ENDCHAR
STARTCHAR U+E11B
ENCODING 57627
SWIDTH 1728 0
DWIDTH 18 0
BBX 12 12 3 0
BITMAP
0300
6380
6380
C370
DB70
DB30
DB30
DB70
C370
6380
6380
0300
ENDCHAR
STARTCHAR U+E11C
ENCODING 57628
SWIDTH 1728 0
DWIDTH 18 0
BBX 12 11 3 0
BITMAP
0300
2380
6380
C370
D370
DB30
D370
C370
6380
2380
0300
ENDCHAR
STARTCHAR U+E11D
ENCODING 57629
SWIDTH 1728 0
DWIDTH 18 0
BBX 11 12 3 0
BITMAP
1800
1C00
1E00
DBE0
DBE0
D860
D860
DBE0
DBE0
1E00
1C00
1800
ENDCHAR
STARTCHAR U+E11E
ENCODING 57630
SWIDTH 1728 0
DWIDTH 18 0
BBX 11 11 3 0
BITMAP
1800
1C00
1E00
DBE0
DBE0
D860
DBE0
DBE0
1E00
1C00
1800
ENDCHAR
STARTCHAR U+E11F
ENCODING 57631
SWIDTH 1728 0
DWIDTH 18 0
BBX 11 9 3 0
BITMAP
00C0
FFE0
FFE0
00C0
2080
6000
FFE0
FFE0
6000
ENDCHAR
STARTCHAR U+E120
ENCODING 57632
SWIDTH 1728 0
DWIDTH 18 0
BBX 11 11 3 0
BITMAP
FFE0
FFE0
C060
E0E0
FFE0
DF60
DF60
C060
C060
FFE0
FFE0
ENDCHAR
STARTCHAR U+E121
ENCODING 57633
SWIDTH 1728 0
DWIDTH 18 0
BBX 11 11 3 0
BITMAP
FFE0
FFE0
7FC0
DF60
FFE0
E0E0
FFE0
FFE0
FFE0
FFE0
FFE0
ENDCHAR
STARTCHAR U+E122
ENCODING 57634
SWIDTH 1728 0
DWIDTH 18 0
BBX 11 9 3 0
BITMAP
FFE0
FFE0
C060
E0E0
FFE0
DF60
C060
FFE0
FFE0
ENDCHAR
STARTCHAR U+E123
ENCODING 57635
SWIDTH 1728 0
DWIDTH 18 0
BBX 11 9 3 0
BITMAP
FFE0
FFE0
7FC0
DF60
FFE0
E0E0
FFE0
FFE0
FFE0
ENDCHAR
STARTCHAR U+E124
ENCODING 57636
SWIDTH 1728 0
DWIDTH 18 0
BBX 11 11 3 0
BITMAP
FFE0
FFE0
E0E0
DB60
DF60
CE60
C460
C060
C060
FFE0
FFE0
ENDCHAR
STARTCHAR U+E125
ENCODING 57637
SWIDTH 1728 0
DWIDTH 18 0
BBX 11 9 3 0
BITMAP
FFE0
FFE0
E0E0
DB60
DF60
CE60
C060
FFE0
FFE0
ENDCHAR
STARTCHAR U+E126
ENCODING 57638
SWIDTH 1728 0
DWIDTH 18 0
BBX 11 8 3 2
BITMAP
FFE0
FFE0
E0E0
DF60
DF60
C060
FFE0
FFE0
ENDCHAR
STARTCHAR U+E127
ENCODING 57639
SWIDTH 1728 0
DWIDTH 18 0
BBX 11 8 3 2
BITMAP
FFE0
FFE0
7FC0
DF60
DF60
E0E0
FFE0
FFE0
ENDCHAR
STARTCHAR U+E128
ENCODING 57640
SWIDTH 1728 0
DWIDTH 18 0
BBX 11 11 3 0
BITMAP
1F00
3F80
60C0
CE60
CF60
CF60
C760
C060
60C0
3F80
1F00
ENDCHAR
STARTCHAR U+E129
ENCODING 57641
SWIDTH 1728 0
DWIDTH 18 0
BBX 11 11 3 0
BITMAP
0E00
1F00
1B00
7FC0
EFE0
CF60
E7E0
71C0
1B00
1F00
0E00
ENDCHAR
STARTCHAR U+E12A
ENCODING 57642
SWIDTH 1728 0
DWIDTH 18 0
BBX 11 11 3 0
BITMAP
FFE0
FFE0
C060
CE60
CF60
CF60
C760
C060
C060
FFE0
FFE0
ENDCHAR
STARTCHAR U+E12B
ENCODING 57643
SWIDTH 1728 0
DWIDTH 18 0
BBX 8 12 5 0
BITMAP
18
3C
7E
FF
FF
18
18
18
18
18
18
18
ENDCHAR
STARTCHAR U+E12C
ENCODING 57644
SWIDTH 1728 0
DWIDTH 18 0
BBX 8 12 5 0
BITMAP
18
18
18
18
18
18
18
FF
FF
7E
3C
18
ENDCHAR
STARTCHAR U+E12D
ENCODING 57645
SWIDTH 1728 0
DWIDTH 18 0
BBX 12 8 3 2
BITMAP
0180
01C0
01E0
FFF0
FFF0
01E0
01C0
0180
ENDCHAR
STARTCHAR U+E12E
ENCODING 57646
SWIDTH 1728 0
DWIDTH 18 0
BBX 12 8 3 2
BITMAP
1800
3800
7800
FFF0
FFF0
7800
3800
1800
ENDCHAR
STARTCHAR U+E12F
ENCODING 57647
SWIDTH 1728 0
DWIDTH 18 0
BBX 9 12 5 0
BITMAP
6300
6F80
6F80
6300
6300
6300
6300
6300
6300
FB00
FB00
6300
ENDCHAR
STARTCHAR U+E130
ENCODING 57648
SWIDTH 1728 0
DWIDTH 18 0
BBX 12 12 3 0
BITMAP
FFF0
FFF0
C030
C030
C030
C030
C030
C030
C030
C030
FFF0
FFF0
ENDCHAR
STARTCHAR U+E131
ENCODING 57649
SWIDTH 1728 0
DWIDTH 18 0
BBX 12 12 3 0
BITMAP
FFF0
FFF0
C330
C3F0
C3F0
C330
C330
C3F0
C3F0
C330
FFF0
FFF0
ENDCHAR
STARTCHAR U+E132
ENCODING 57650
SWIDTH 1728 0
DWIDTH 18 0
BBX 12 12 3 0
BITMAP
FFF0
FFF0
C030
C030
C030
C030
FFF0
FFF0
D9B0
D9B0
FFF0
FFF0
ENDCHAR
STARTCHAR U+E133
ENCODING 57651
SWIDTH 1728 0
DWIDTH 18 0
BBX 12 12 3 0
BITMAP
FFF0
FFF0
C030
C030
FFF0
FFF0
C030
FFF0
FFF0
C030
FFF0
FFF0
ENDCHAR
STARTCHAR U+E134
ENCODING 57652
SWIDTH 1728 0
DWIDTH 18 0
BBX 12 12 3 0
BITMAP
FFF0
FFF0
D9B0
FFF0
FFF0
D9B0
D9B0
FFF0
FFF0
D9B0
FFF0
FFF0
ENDCHAR
STARTCHAR U+E135
ENCODING 57653
SWIDTH 1728 0
DWIDTH 18 0
BBX 12 12 3 0
BITMAP
FF00
FF00
C300
C300
C370
C370
FF30
FF30
0030
0C30
0FF0
0FF0
ENDCHAR
STARTCHAR U+E136
ENCODING 57654
SWIDTH 1728 0
DWIDTH 18 0
BBX 12 12 3 0
BITMAP
FFF0
FFF0
CC30
CC30
CFF0
CFF0
CDB0
CDF0
CDF0
CDB0
FFF0
FFF0
ENDCHAR
STARTCHAR U+E137
ENCODING 57655
SWIDTH 1728 0
DWIDTH 18 0
BBX 12 12 3 0
BITMAP
FFF0
FFF0
CC30
CC30
CFF0
CFF0
CDB0
CFB0
CFB0
CDB0
FFF0
FFF0
ENDCHAR
STARTCHAR U+E138
ENCODING 57656
SWIDTH 1728 0
DWIDTH 18 0
BBX 12 12 3 0
BITMAP
FFF0
FFF0
CC30
CFF0
CFF0
CC30
FC30
FFF0
CFF0
CC30
FFF0
FFF0
ENDCHAR
STARTCHAR U+E139
ENCODING 57657
SWIDTH 1728 0
DWIDTH 18 0
BBX 12 12 3 0
BITMAP
FFF0
FFF0
C330
C330
C330
C330
FFF0
FFF0
D9B0
D9B0
FFF0
FFF0
ENDCHAR
STARTCHAR U+E13A
ENCODING 57658
SWIDTH 1728 0
DWIDTH 18 0
BBX 12 12 3 0
BITMAP
FFF0
FFF0
C330
C330
C330
C330
FF30
FF30
C030
C030
FFF0
FFF0
ENDCHAR
STARTCHAR U+E13B
ENCODING 57659
SWIDTH 1728 0
DWIDTH 18 0
BBX 8 11 5 0
BITMAP
18
3C
7E
FF
FF
18
18
18
18
18
18
ENDCHAR
STARTCHAR U+E13C
ENCODING 57660
SWIDTH 1728 0
DWIDTH 18 0
BBX 8 11 5 0
BITMAP
18
18
18
18
18
18
FF
FF
7E
3C
18
ENDCHAR
STARTCHAR U+E13D
ENCODING 57661
SWIDTH 1728 0
DWIDTH 18 0
BBX 11 8 3 2
BITMAP
0300
0380
03C0
FFE0
FFE0
03C0
0380
0300
ENDCHAR
STARTCHAR U+E13E
ENCODING 57662
SWIDTH 1728 0
DWIDTH 18 0
BBX 11 8 3 2
BITMAP
1800
3800
7800
FFE0
FFE0
7800
3800
1800
ENDCHAR
STARTCHAR U+E13F
ENCODING 57663
SWIDTH 1728 0
DWIDTH 18 0
BBX 12 9 3 0
BITMAP
0060
FFF0
FFF0
0060
6060
6000
FFF0
FFF0
6000
ENDCHAR
STARTCHAR U+E140
ENCODING 57664
SWIDTH 1728 0
DWIDTH 18 0
BBX 11 12 3 0
BITMAP
1F00
3F80
60C0
DB60
DB60
DB60
C060
C060
C060
EEE0
FFE0
DB60
ENDCHAR
STARTCHAR U+E141
ENCODING 57665
SWIDTH 1728 0
DWIDTH 18 0
BBX 11 11 3 0
BITMAP
1F00
3F80
60C0
DB60
DB60
DB60
D160
C060
EEE0
FFE0
DB60
ENDCHAR
STARTCHAR U+E142
ENCODING 57666
SWIDTH 1728 0
DWIDTH 18 0
BBX 11 12 3 0
BITMAP
1F00
3F80
60C0
DB60
DB60
C060
C060
C060
C060
EEE0
FFE0
DB60
ENDCHAR
STARTCHAR U+E143
ENCODING 57667
SWIDTH 1728 0
DWIDTH 18 0
BBX 11 11 3 0
BITMAP
1F00
3F80
60C0
DB60
DB60
C060
C060
C060
EEE0
FFE0
DB60
ENDCHAR
STARTCHAR U+E144
ENCODING 57668
SWIDTH 1728 0
DWIDTH 18 0
BBX 11 11 3 0
BITMAP
FFE0
FFE0
C060
C060
DF60
DF60
DF60
DB60
DB60
FFE0
7FE0
ENDCHAR
STARTCHAR U+E145
ENCODING 57669
SWIDTH 1728 0
DWIDTH 18 0
BBX 11 11 3 0
BITMAP
FFE0
FFE0
C060
C060
DF60
DF60
DF60
DF60
DF60
FFE0
7FE0
ENDCHAR
STARTCHAR U+E146
ENCODING 57670
SWIDTH 1728 0
DWIDTH 18 0
BBX 12 12 3 0
BITMAP
FFF0
FFF0
C030
C030
C030
C030
DFB0
DFB0
D9B0
D9B0
FFF0
7FF0
ENDCHAR
STARTCHAR U+E147
ENCODING 57671
SWIDTH 1728 0
DWIDTH 18 0
BBX 12 12 3 0
BITMAP
FFF0
FFF0
C030
C030
C030
C030
DFB0
DFB0
DBB0
DBB0
FFF0
7FF0
ENDCHAR
STARTCHAR U+E148
ENCODING 57672
SWIDTH 1728 0
DWIDTH 18 0
BBX 11 11 3 0
BITMAP
1F00
1F00
1F00
FFE0
FFE0
FFE0
FFE0
DB60
FFE0
FFE0
FFE0
ENDCHAR
STARTCHAR U+E149
ENCODING 57673
SWIDTH 1728 0
DWIDTH 18 0
BBX 11 12 3 0
BITMAP
1F00
1F00
1F00
FFE0
FFE0
FFE0
FFE0
FFE0
DB60
FFE0
FFE0
FFE0
ENDCHAR
STARTCHAR U+E14A
ENCODING 57674
SWIDTH 1728 0
DWIDTH 18 0
BBX 12 11 3 0
BITMAP
FFF0
FFF0
C030
C030
C030
C030
FFF0
FFF0
0F00
7FE0
7FE0
ENDCHAR
STARTCHAR U+E14B
ENCODING 57675
SWIDTH 1728 0
DWIDTH 18 0
BBX 9 12 5 0
BITMAP
FF80
FF80
FF80
0000
7F00
7F00
7F00
7F00
0000
1C00
1C00
1C00
ENDCHAR
STARTCHAR U+E14C
ENCODING 57676
SWIDTH 1728 0
DWIDTH 18 0
BBX 12 9 3 0
BITMAP
0070
0F70
0F70
EF70
EF70
EF70
0F70
0F70
0070
ENDCHAR
STARTCHAR U+E14D
ENCODING 57677
SWIDTH 1728 0
DWIDTH 18 0
BBX 11 11 3 0
BITMAP
1FC0
3FE0
7BE0
FFC0
FFC0
FF00
FF00
FE00
7FE0
3FE0
1FC0
ENDCHAR
STARTCHAR U+E14E
ENCODING 57678
SWIDTH 1728 0
DWIDTH 18 0
BBX 11 11 3 0
BITMAP
00E0
07E0
0FE0
7FE0
FFE0
FFE0
FFE0
7FE0
0FE0
07E0
00E0
ENDCHAR
STARTCHAR U+E14F
ENCODING 57679
SWIDTH 1728 0
DWIDTH 18 0
BBX 11 11 3 0
BITMAP
E000
FC00
FE00
FFC0
FFE0
FFE0
FFE0
FFC0
FE00
FC00
E000
ENDCHAR
STARTCHAR U+E150
ENCODING 57680
SWIDTH 1728 0
DWIDTH 18 0
BBX 12 11 3 0
BITMAP
0F00
1F80
1B80
7BE0
FBF0
F870
FFF0
7FE0
1F80
1F80
0F00
ENDCHAR
STARTCHAR U+E151
ENCODING 57681
SWIDTH 1728 0
DWIDTH 18 0
BBX 11 11 3 0
BITMAP
1F00
3F80
7BC0
FBE0
FBE0
F860
FFE0
FFE0
7FC0
3F80
1F00
ENDCHAR
STARTCHAR U+E152
ENCODING 57682
SWIDTH 1728 0
DWIDTH 18 0
BBX 12 11 3 0
BITMAP
0C00
1C40
1C60
FC30
FCB0
FDB0
FCB0
FC30
1C60
1C40
0C00
ENDCHAR
STARTCHAR U+E153
ENCODING 57683
SWIDTH 1728 0
DWIDTH 18 0
BBX 12 12 3 0
BITMAP
0F00
1F80
1F80
7FE0
FFF0
FFF0
FFF0
FFF0
7FE0
0F00
1F80
1F80
ENDCHAR
STARTCHAR U+E154
ENCODING 57684
SWIDTH 1728 0
DWIDTH 18 0
BBX 12 11 3 0
BITMAP
0F00
1F80
1F80
7FE0
FFF0
FFF0
FFF0
7FE0
0F00
1F80
1F80
ENDCHAR
STARTCHAR U+E155
ENCODING 57685
SWIDTH 1728 0
DWIDTH 18 0
BBX 12 11 3 0
BITMAP
0F00
1F80
1F80
7FE0
FFF0
FFF0
FFF0
1F80
1F80
1F80
1F80
ENDCHAR
STARTCHAR U+E156
ENCODING 57686
SWIDTH 1728 0
DWIDTH 18 0
BBX 12 11 3 0
BITMAP
1F80
1F80
1F80
1F80
FFF0
FFF0
FFF0
7FE0
1F80
1F80
0F00
ENDCHAR
STARTCHAR U+E157
ENCODING 57687
SWIDTH 1728 0
DWIDTH 18 0
BBX 11 11 3 0
BITMAP
0E00
0F00
0F00
FFC0
FFE0
FFE0
FFE0
FFC0
0F00
0F00
0E00
ENDCHAR
STARTCHAR U+E158
ENCODING 57688
SWIDTH 1728 0
DWIDTH 18 0
BBX 11 11 3 0
BITMAP
0E00
1E00
1E00
7FE0
FFE0
FFE0
FFE0
7FE0
1E00
1E00
0E00
ENDCHAR
STARTCHAR U+E159
ENCODING 57689
SWIDTH 1728 0
DWIDTH 18 0
BBX 12 9 3 0
BITMAP
0F00
1F80
1F80
7FE0
FFF0
FFF0
0000
FFF0
FFF0
ENDCHAR
STARTCHAR U+E15A
ENCODING 57690
SWIDTH 1728 0
DWIDTH 18 0
BBX 11 9 3 0
BITMAP
0E00
1F00
1F00
7FC0
FFE0
FFE0
0000
FFE0
FFE0
ENDCHAR
STARTCHAR U+E15B
ENCODING 57691
SWIDTH 1728 0
DWIDTH 18 0
BBX 12 9 3 0
BITMAP
FFE0
FFE0
C060
C070
C070
C070
C060
FFE0
FFE0
ENDCHAR
STARTCHAR U+E15C
ENCODING 57692
SWIDTH 1728 0
DWIDTH 18 0
BBX 12 9 3 0
BITMAP
FFE0
FFE0
C060
D870
DC70
DC70
C060
FFE0
FFE0
ENDCHAR
STARTCHAR U+E15D
ENCODING 57693
SWIDTH 1728 0
DWIDTH 18 0
BBX 12 9 3 0
BITMAP
FFE0
FFE0
C060
DC70
DF70
DF70
C060
FFE0
FFE0
ENDCHAR
STARTCHAR U+E15E
ENCODING 57694
SWIDTH 1728 0
DWIDTH 18 0
BBX 12 9 3 0
BITMAP
FFE0
FFE0
C060
DF70
DF70
DF70
C060
FFE0
FFE0
ENDCHAR
STARTCHAR U+E15F
ENCODING 57695
SWIDTH 1728 0
DWIDTH 18 0
BBX 8 11 5 0
BITMAP
7E
FF
E7
E7
FF
FF
FF
E7
E7
FF
7E
ENDCHAR
STARTCHAR U+E160
ENCODING 57696
SWIDTH 1728 0
DWIDTH 18 0
BBX 6 11 6 0
BITMAP
78
F8
F8
78
78
78
78
78
78
FC
FC
ENDCHAR
STARTCHAR U+E161
ENCODING 57697
SWIDTH 1728 0
DWIDTH 18 0
BBX 8 11 5 0
BITMAP
7E
FF
E7
07
1F
1E
7C
78
E0
FF
FF
ENDCHAR
STARTCHAR U+E162
ENCODING 57698
SWIDTH 1728 0
DWIDTH 18 0
BBX 8 11 5 0
BITMAP
7E
FF
E7
07
3F
7E
3F
07
E7
FF
7E
ENDCHAR
STARTCHAR U+E163
ENCODING 57699
SWIDTH 1728 0
DWIDTH 18 0
BBX 9 11 5 0
BITMAP
0F00
1F00
1F00
6F00
EF00
CF00
FF80
FF80
0F00
0F00
0F00
ENDCHAR
STARTCHAR U+E164
ENCODING 57700
SWIDTH 1728 0
DWIDTH 18 0
BBX 8 11 5 0
BITMAP
FF
FF
E0
FE
FF
07
07
07
E7
FF
7E
ENDCHAR
STARTCHAR U+E165
ENCODING 57701
SWIDTH 1728 0
DWIDTH 18 0
BBX 8 11 5 0
BITMAP
1E
3E
78
F0
FC
FE
FF
E7
E7
FF
7E
ENDCHAR
STARTCHAR U+E166
ENCODING 57702
SWIDTH 1728 0
DWIDTH 18 0
BBX 8 11 5 0
BITMAP
FF
FF
07
1E
1E
1E
7C
78
78
78
78
ENDCHAR
STARTCHAR U+E167
ENCODING 57703
SWIDTH 1728 0
DWIDTH 18 0
BBX 8 11 5 0
BITMAP
7E
FF
E7
E7
FF
7E
FF
E7
E7
FF
7E
ENDCHAR
STARTCHAR U+E168
ENCODING 57704
SWIDTH 1728 0
DWIDTH 18 0
BBX 8 11 5 0
BITMAP
7E
FF
E7
E7
FF
7F
3F
0F
1E
7C
78
ENDCHAR
STARTCHAR U+E169
ENCODING 57705
SWIDTH 1728 0
DWIDTH 18 0
BBX 9 12 5 0
BITMAP
7F00
FF80
E380
E380
EF80
EF80
FB80
FB80
E380
E380
FF80
7F00
ENDCHAR
STARTCHAR U+E16A
ENCODING 57706
SWIDTH 1728 0
DWIDTH 18 0
BBX 6 12 6 0
BITMAP
78
F8
F8
78
78
78
78
78
78
78
FC
FC
ENDCHAR
STARTCHAR U+E16B
ENCODING 57707
SWIDTH 1728 0
DWIDTH 18 0
BBX 9 12 5 0
BITMAP
7F00
FF80
E380
0380
0F80
0F00
1C00
7C00
7800
E000
FF80
FF80
ENDCHAR
STARTCHAR U+E16C
ENCODING 57708
SWIDTH 1728 0
DWIDTH 18 0
BBX 9 12 5 0
BITMAP
7F00
FF80
E380
0380
1F80
1F00
0380
0380
0380
E380
FF80
7F00
ENDCHAR
STARTCHAR U+E16D
ENCODING 57709
SWIDTH 1728 0
DWIDTH 18 0
BBX 9 12 5 0
BITMAP
0F00
1F00
1F00
6F00
EF00
CF00
FF80
FF80
0F00
0F00
0F00
0F00
ENDCHAR
STARTCHAR U+E16E
ENCODING 57710
SWIDTH 1728 0
DWIDTH 18 0
BBX 9 12 5 0
BITMAP
FF80
FF80
E000
E000
FF00
FF00
0380
0380
0380
E380
FF80
7F00
ENDCHAR
STARTCHAR U+E16F
ENCODING 57711
SWIDTH 1728 0
DWIDTH 18 0
BBX 9 12 5 0
BITMAP
1F00
7F00
7800
E000
FF00
FF00
E380
E380
E380
E380
FF80
7F00
ENDCHAR
STARTCHAR U+E170
ENCODING 57712
SWIDTH 1728 0
DWIDTH 18 0
BBX 9 12 5 0
BITMAP
FF80
FF80
0380
0380
0F80
0F00
0F00
1F00
1C00
1C00
1C00
1C00
ENDCHAR
STARTCHAR U+E171
ENCODING 57713
SWIDTH 1728 0
DWIDTH 18 0
BBX 9 12 5 0
BITMAP
7F00
FF80
E380
E380
FF80
7F00
E380
E380
E380
E380
FF80
7F00
ENDCHAR
STARTCHAR U+E172
ENCODING 57714
SWIDTH 1728 0
DWIDTH 18 0
BBX 9 12 5 0
BITMAP
7F00
FF80
E380
E380
E380
E380
7F80
7F80
0380
0F00
7F00
7C00
ENDCHAR
STARTCHAR U+E173
ENCODING 57715
SWIDTH 1728 0
DWIDTH 18 0
BBX 9 11 5 0
BITMAP
FF80
FF80
E380
EF80
FF80
FF80
FF80
FB80
E380
FF80
FF80
ENDCHAR
STARTCHAR U+E174
ENCODING 57716
SWIDTH 1728 0
DWIDTH 18 0
BBX 5 11 6 0
BITMAP
78
F8
F8
78
78
78
78
78
78
78
78
ENDCHAR
STARTCHAR U+E175
ENCODING 57717
SWIDTH 1728 0
DWIDTH 18 0
BBX 9 11 5 0
BITMAP
FF80
FF80
0380
0380
FF80
FF80
FF80
E000
E000
FF80
FF80
ENDCHAR
STARTCHAR U+E176
ENCODING 57718
SWIDTH 1728 0
DWIDTH 18 0
BBX 9 11 5 0
BITMAP
FF80
FF80
0380
0380
FF80
FF80
FF80
0380
0380
FF80
FF80
ENDCHAR
STARTCHAR U+E177
ENCODING 57719
SWIDTH 1728 0
DWIDTH 18 0
BBX 9 11 5 0
BITMAP
E380
E380
E380
E380
FF80
FF80
FF80
0380
0380
0380
0380
ENDCHAR
STARTCHAR U+E178
ENCODING 57720
SWIDTH 1728 0
DWIDTH 18 0
BBX 9 11 5 0
BITMAP
FF80
FF80
E000
E000
FF80
FF80
FF80
0380
0380
FF80
FF80
ENDCHAR
STARTCHAR U+E179
ENCODING 57721
SWIDTH 1728 0
DWIDTH 18 0
BBX 9 11 5 0
BITMAP
FF80
FF80
E000
E000
FF80
FF80
FF80
E380
E380
FF80
FF80
ENDCHAR
STARTCHAR U+E17A
ENCODING 57722
SWIDTH 1728 0
DWIDTH 18 0
BBX 9 11 5 0
BITMAP
FF80
FF80
0380
0380
0380
0380
0380
0380
0380
0380
0380
ENDCHAR
STARTCHAR U+E17B
ENCODING 57723
SWIDTH 1728 0
DWIDTH 18 0
BBX 9 11 5 0
BITMAP
FF80
FF80
E380
E380
FF80
7F00
FF80
E380
E380
FF80
FF80
ENDCHAR
STARTCHAR U+E17C
ENCODING 57724
SWIDTH 1728 0
DWIDTH 18 0
BBX 9 11 5 0
BITMAP
FF80
FF80
E380
E380
FF80
FF80
FF80
0380
0380
0380
0380
ENDCHAR
STARTCHAR U+E17D
ENCODING 57725
SWIDTH 1728 0
DWIDTH 18 0
BBX 9 12 5 0
BITMAP
FF80
FF80
E380
EF80
EF80
EF80
FB80
FB80
FB80
E380
FF80
FF80
ENDCHAR
STARTCHAR U+E17E
ENCODING 57726
SWIDTH 1728 0
DWIDTH 18 0
BBX 6 12 6 0
BITMAP
1C
7C
7C
FC
FC
1C
1C
1C
1C
1C
1C
1C
ENDCHAR
STARTCHAR U+E17F
ENCODING 57727
SWIDTH 1728 0
DWIDTH 18 0
BBX 9 12 5 0
BITMAP
FF80
FF80
0380
0380
FF80
FF80
E000
E000
E000
E000
FF80
FF80
ENDCHAR
STARTCHAR U+E180
ENCODING 57728
SWIDTH 1728 0
DWIDTH 18 0
BBX 9 12 5 0
BITMAP
FF80
FF80
0380
0380
FF80
FF80
0380
0380
0380
0380
FF80
FF80
ENDCHAR
STARTCHAR U+E181
ENCODING 57729
SWIDTH 1728 0
DWIDTH 18 0
BBX 9 12 5 0
BITMAP
E380
E380
E380
E380
FF80
FF80
0380
0380
0380
0380
0380
0380
ENDCHAR
STARTCHAR U+E182
ENCODING 57730
SWIDTH 1728 0
DWIDTH 18 0
BBX 9 12 5 0
BITMAP
FF80
FF80
E000
E000
FF80
FF80
0380
0380
0380
0380
FF80
FF80
ENDCHAR
STARTCHAR U+E183
ENCODING 57731
SWIDTH 1728 0
DWIDTH 18 0
BBX 9 12 5 0
BITMAP
FF80
FF80
E000
E000
FF80
FF80
E380
E380
E380
E380
FF80
FF80
ENDCHAR
STARTCHAR U+E184
ENCODING 57732
SWIDTH 1728 0
DWIDTH 18 0
BBX 9 12 5 0
BITMAP
FF80
FF80
0380
0380
0380
0380
0380
0380
0380
0380
0380
0380
ENDCHAR
STARTCHAR U+E185
ENCODING 57733
SWIDTH 1728 0
DWIDTH 18 0
BBX 9 12 5 0
BITMAP
FF80
FF80
E380
E380
FF80
7F00
E380
E380
E380
E380
FF80
FF80
ENDCHAR
STARTCHAR U+E186
ENCODING 57734
SWIDTH 1728 0
DWIDTH 18 0
BBX 9 12 5 0
BITMAP
FF80
FF80
E380
E380
FF80
FF80
0380
0380
0380
0380
FF80
FF80
ENDCHAR
STARTCHAR U+E187
ENCODING 57735
SWIDTH 1728 0
DWIDTH 18 0
BBX 11 12 5 0
BITMAP
FFE0
FFE0
FBE0
E3E0
FBE0
FBE0
FBE0
FBE0
FBE0
E0E0
FFE0
FFE0
ENDCHAR
STARTCHAR U+E188
ENCODING 57736
SWIDTH 1728 0
DWIDTH 18 0
BBX 11 12 5 0
BITMAP
FFE0
FFE0
E0E0
DF60
FFE0
FEE0
FBE0
FFE0
EFE0
C060
FFE0
FFE0
ENDCHAR
STARTCHAR U+E189
ENCODING 57737
SWIDTH 1728 0
DWIDTH 18 0
BBX 11 12 5 0
BITMAP
FFE0
FFE0
E0E0
DF60
FFE0
F8E0
FF60
FF60
DF60
E0E0
FFE0
FFE0
ENDCHAR
STARTCHAR U+E18A
ENCODING 57738
SWIDTH 1728 0
DWIDTH 18 0
BBX 11 12 5 0
BITMAP
FFE0
FFE0
FEE0
F8E0
FCE0
EEE0
C060
FCE0
FEE0
FEE0
FFE0
FFE0
ENDCHAR
STARTCHAR U+E18B
ENCODING 57739
SWIDTH 1728 0
DWIDTH 18 0
BBX 11 12 5 0
BITMAP
FFE0
FFE0
C060
DFE0
DFE0
C0E0
FF60
FF60
DF60
E0E0
FFE0
FFE0
ENDCHAR
STARTCHAR U+E18C
ENCODING 57740
SWIDTH 1728 0
DWIDTH 18 0
BBX 11 12 5 0
BITMAP
FFE0
FFE0
E0E0
DFE0
DFE0
C0E0
DF60
DF60
DF60
E0E0
FFE0
FFE0
ENDCHAR
STARTCHAR U+E18D
ENCODING 57741
SWIDTH 1728 0
DWIDTH 18 0
BBX 11 12 5 0
BITMAP
FFE0
FFE0
C060
FF60
FFE0
FEE0
FEE0
FFE0
FBE0
FBE0
FFE0
FFE0
ENDCHAR
STARTCHAR U+E18E
ENCODING 57742
SWIDTH 1728 0
DWIDTH 18 0
BBX 11 12 5 0
BITMAP
FFE0
FFE0
E0E0
DF60
FFE0
E0E0
DF60
DF60
DF60
E0E0
FFE0
FFE0
ENDCHAR
STARTCHAR U+E18F
ENCODING 57743
SWIDTH 1728 0
DWIDTH 18 0
BBX 11 12 5 0
BITMAP
FFE0
FFE0
E0E0
DF60
DF60
DF60
E060
FF60
FF60
E0E0
FFE0
FFE0
ENDCHAR
STARTCHAR U+E190
ENCODING 57744
SWIDTH 1728 0
DWIDTH 18 0
BBX 15 6 2 2
BITMAP
783C
FC7E
FC7E
FC7E
FC7E
783C
ENDCHAR
STARTCHAR U+E191
ENCODING 57745
SWIDTH 1728 0
DWIDTH 18 0
BBX 6 6 6 2
BITMAP
78
FC
FC
FC
FC
78
ENDCHAR
STARTCHAR U+E192
ENCODING 57746
SWIDTH 1728 0
DWIDTH 18 0
BBX 3 8 8 2
BITMAP
E0
E0
E0
E0
E0
E0
E0
E0
ENDCHAR
STARTCHAR U+E193
ENCODING 57747
SWIDTH 1728 0
DWIDTH 18 0
BBX 3 9 8 0
BITMAP
E0
E0
E0
00
00
00
E0
E0
E0
ENDCHAR
STARTCHAR U+E194
ENCODING 57748
SWIDTH 1728 0
DWIDTH 18 0
BBX 9 8 5 2
BITMAP
E380
E380
E380
0000
0000
E380
E380
E380
ENDCHAR
STARTCHAR U+E195
ENCODING 57749
SWIDTH 1728 0
DWIDTH 18 0
BBX 9 9 5 0
BITMAP
E380
E380
E380
0000
0000
0000
E380
E380
E380
ENDCHAR
STARTCHAR U+E196
ENCODING 57750
SWIDTH 1728 0
DWIDTH 18 0
BBX 9 12 5 0
BITMAP
E380
E380
E380
0000
E380
E380
E380
E380
0000
E380
E380
E380
ENDCHAR
STARTCHAR char57751
ENCODING 57751
SWIDTH 1728 0
DWIDTH 18 0
BBX 11 12 3 0
BITMAP
0360
0360
0360
DBE0
FBE0
F8C0
F8C0
F8C0
60C0
FFC0
FFC0
F8C0
ENDCHAR
STARTCHAR char57752
ENCODING 57752
SWIDTH 1728 0
DWIDTH 18 0
BBX 12 12 3 0
BITMAP
0060
C3F0
C3B0
7DB0
7DF0
7DF0
7C60
7C60
1860
7FE0
7FE0
7C60
ENDCHAR
STARTCHAR char57753
ENCODING 57753
SWIDTH 1728 0
DWIDTH 18 0
BBX 12 12 3 0
BITMAP
01B0
C3B0
C3B0
7DF0
7DF0
7C60
7C60
7C60
1860
7FE0
7FE0
7C60
ENDCHAR
STARTCHAR char57754
ENCODING 57754
SWIDTH 1728 0
DWIDTH 18 0
BBX 12 12 3 0
BITMAP
C030
C030
C030
FFF0
FFF0
6F60
EF70
FFF0
FFF0
6060
7FE0
7FE0
ENDCHAR
STARTCHAR char57755
ENCODING 57755
SWIDTH 1728 0
DWIDTH 18 0
BBX 12 12 3 0
BITMAP
7FE0
FFF0
FFF0
FFF0
FFF0
FFF0
FFE0
FFE0
E000
E000
F800
7800
ENDCHAR
STARTCHAR char57756
ENCODING 57756
SWIDTH 1728 0
DWIDTH 18 0
BBX 12 12 3 0
BITMAP
FF00
FF00
C300
CFF0
FFF0
FC30
1C30
1FF0
1FF0
1980
FFF0
FFF0
ENDCHAR
STARTCHAR char57757
ENCODING 57757
SWIDTH 1728 0
DWIDTH 18 0
BBX 12 12 3 0
BITMAP
6060
79E0
1980
7FE0
7FE0
6F60
FFF0
FFF0
D9B0
DFB0
DFB0
1980
ENDCHAR
STARTCHAR char57758
ENCODING 57758
SWIDTH 1728 0
DWIDTH 18 0
BBX 12 12 3 0
BITMAP
FFF0
FFF0
FFF0
0F00
0F00
0F00
FFF0
FFF0
EF70
E070
FFF0
FFF0
ENDCHAR
STARTCHAR char57759
ENCODING 57759
SWIDTH 1728 0
DWIDTH 18 0
BBX 12 12 3 0
BITMAP
7FE0
FFF0
FFF0
FFF0
FFF0
FFF0
7FF0
7FF0
01E0
0180
0380
0300
ENDCHAR
STARTCHAR char57760
ENCODING 57760
SWIDTH 1728 0
DWIDTH 18 0
BBX 12 12 3 0
BITMAP
1F80
7FE0
79E0
FDF0
FDF0
FDB0
D9B0
D9F0
D9F0
63E0
7FE0
1F80
ENDCHAR
STARTCHAR char57761
ENCODING 57761
SWIDTH 1728 0
DWIDTH 18 0
BBX 12 12 3 0
BITMAP
7FE0
FFF0
FFF0
C030
D830
D830
CC30
DC30
D830
C030
FFF0
7FE0
ENDCHAR
STARTCHAR char57762
ENCODING 57762
SWIDTH 1728 0
DWIDTH 18 0
BBX 12 12 3 0
BITMAP
7FE0
FFF0
FFF0
C030
DFB0
DFB0
C030
DFB0
DFB0
C030
FFF0
7FE0
ENDCHAR
STARTCHAR char57763
ENCODING 57763
SWIDTH 1728 0
DWIDTH 18 0
BBX 12 12 3 0
BITMAP
7FE0
FFF0
FFF0
C030
D9B0
D9B0
C030
DFB0
DFB0
C030
FFF0
7FE0
ENDCHAR
STARTCHAR char57764
ENCODING 57764
SWIDTH 1728 0
DWIDTH 18 0
BBX 12 12 3 0
BITMAP
FDF0
FDF0
FDF0
FC00
FDF0
01F0
FDF0
FDF0
FC00
FDF0
FDF0
FDF0
ENDCHAR
STARTCHAR char57765
ENCODING 57765
SWIDTH 1728 0
DWIDTH 18 0
BBX 12 12 3 0
BITMAP
FBF0
FBF0
FBF0
FBF0
FBF0
FBF0
0000
EF70
EF70
EF70
EF70
EF70
ENDCHAR
STARTCHAR char57766
ENCODING 57766
SWIDTH 1728 0
DWIDTH 18 0
BBX 12 12 3 0
BITMAP
1FF0
1FF0
1FF0
1830
1830
1830
1830
1830
1830
F9F0
F9F0
F9F0
ENDCHAR
STARTCHAR char57767
ENCODING 57767
SWIDTH 1728 0
DWIDTH 18 0
BBX 12 12 3 0
BITMAP
7FE0
FFF0
FFF0
FFF0
FFF0
FFF0
FFF0
FFF0
7FE0
0380
0F80
0F00
ENDCHAR
STARTCHAR char57768
ENCODING 57768
SWIDTH 1728 0
DWIDTH 18 0
BBX 14 11 2 0
BITMAP
FFFC
FFFC
DFEC
EFDC
FFFC
FB7C
FFFC
EFDC
DFEC
FFFC
FFFC
ENDCHAR
STARTCHAR char57769
ENCODING 57769
SWIDTH 1728 0
DWIDTH 18 0
BBX 9 18 5 -3
BITMAP
C000
E000
E000
F800
FC00
FC00
FF00
FF80
FF80
FF80
FF80
FF00
FC00
FC00
F800
E000
E000
C000
ENDCHAR
STARTCHAR char57770
ENCODING 57770
SWIDTH 1728 0
DWIDTH 18 0
BBX 9 18 5 -3
BITMAP
C000
E000
6000
1800
1C00
0C00
0300
0380
0180
0180
0380
0300
0C00
1C00
1800
6000
E000
C000
ENDCHAR
STARTCHAR char57771
ENCODING 57771
SWIDTH 1728 0
DWIDTH 18 0
BBX 9 18 5 -3
BITMAP
0180
0380
0380
0F80
1F80
1F80
7F80
FF80
FF80
FF80
FF80
7F80
1F80
1F80
0F80
0380
0380
0180
ENDCHAR
STARTCHAR char57772
ENCODING 57772
SWIDTH 1728 0
DWIDTH 18 0
BBX 9 18 5 -3
BITMAP
0180
0380
0300
0C00
1C00
1800
6000
E000
C000
C000
E000
6000
1800
1C00
0C00
0300
0380
0180
ENDCHAR
STARTCHAR char57773
ENCODING 57773
SWIDTH 1728 0
DWIDTH 18 0
BBX 8 18 5 -3
BITMAP
C0
E0
E0
F8
FC
FE
FF
FF
FF
FF
FF
FF
FF
FF
FF
FF
FF
FF
ENDCHAR
STARTCHAR char57774
ENCODING 57774
SWIDTH 1728 0
DWIDTH 18 0
BBX 8 18 5 -3
BITMAP
FF
FF
FF
FF
FF
FF
FF
FF
FF
FF
FF
FF
7F
3F
1F
07
07
03
ENDCHAR
STARTCHAR char57775
ENCODING 57775
SWIDTH 1728 0
DWIDTH 18 0
BBX 14 11 2 0
BITMAP
7FF8
FFFC
C00C
1FE0
3FF0
6018
2FD0
0FC0
0000
0300
0300
ENDCHAR
STARTCHAR char57776
ENCODING 57776
SWIDTH 1728 0
DWIDTH 18 0
BBX 9 12 5 0
BITMAP
7F00
FF80
FF80
C180
DD80
DD80
DD80
DD80
DD80
C180
FF80
FF80
ENDCHAR
STARTCHAR char57777
ENCODING 57777
SWIDTH 1728 0
DWIDTH 18 0
BBX 2 18 8 -3
BITMAP
C0
C0
C0
C0
C0
C0
C0
C0
C0
C0
C0
C0
C0
C0
C0
C0
C0
C0
ENDCHAR
STARTCHAR char57778
ENCODING 57778
SWIDTH 1728 0
DWIDTH 18 0
BBX 12 12 3 0
BITMAP
FFF0
FFF0
0FF0
03F0
7BF0
7BF0
FDE0
FDE0
FC00
FF00
FFF0
FFF0
ENDCHAR
STARTCHAR char57779
ENCODING 57779
SWIDTH 1728 0
DWIDTH 18 0
BBX 12 12 3 0
BITMAP
0380
0F80
0D80
19F0
F9F0
F980
F980
F9F0
19F0
0D80
0F80
0380
ENDCHAR
STARTCHAR char57780
ENCODING 57780
SWIDTH 1728 0
DWIDTH 18 0
BBX 11 12 3 0
BITMAP
0E00
0E00
0E00
1F00
1F00
1F00
7BC0
7BC0
60C0
FBE0
FBE0
C060
ENDCHAR
STARTCHAR char57781
ENCODING 57781
SWIDTH 1728 0
DWIDTH 18 0
BBX 9 12 5 0
BITMAP
1C00
DF00
DB00
7B80
7F80
1F00
1F00
7F80
7B80
DB00
DF00
1C00
ENDCHAR
STARTCHAR char57782
ENCODING 57782
SWIDTH 1728 0
DWIDTH 18 0
BBX 12 12 3 0
BITMAP
E070
F9F0
1980
0F00
EF70
EF70
1F80
7FE0
7FE0
DFB0
DFB0
CF30
ENDCHAR
STARTCHAR char57783
ENCODING 57783
SWIDTH 1728 0
DWIDTH 18 0
BBX 12 12 3 0
BITMAP
E070
F9F0
1980
1980
FFF0
EF70
1F80
7FE0
7FE0
CF30
EF70
6060
ENDCHAR
STARTCHAR char57784
ENCODING 57784
SWIDTH 1728 0
DWIDTH 18 0
BBX 12 12 3 0
BITMAP
C030
E070
E070
DFB0
FFF0
FFF0
CF30
FFF0
FFF0
7FE0
FFF0
DFB0
ENDCHAR
STARTCHAR char57785
ENCODING 57785
SWIDTH 1728 0
DWIDTH 18 0
BBX 12 12 3 0
BITMAP
1F80
7FE0
7F60
FDF0
FFF0
FBF0
F830
FFF0
FFF0
7FE0
7FE0
1F80
ENDCHAR
STARTCHAR char57786
ENCODING 57786
SWIDTH 1728 0
DWIDTH 18 0
BBX 12 12 3 0
BITMAP
C030
EFF0
EFE0
7860
7C60
7C60
1F60
7FE0
7F80
FBE0
FBF0
E070
ENDCHAR
STARTCHAR char57787
ENCODING 57787
SWIDTH 1728 0
DWIDTH 18 0
BBX 12 12 3 0
BITMAP
FFF0
FFF0
C030
C030
C030
C030
DFB0
DFB0
DBB0
DBB0
FFF0
7FF0
ENDCHAR
STARTCHAR char57788
ENCODING 57788
SWIDTH 1728 0
DWIDTH 18 0
BBX 12 12 3 0
BITMAP
1F80
7FE0
6060
C030
C030
C030
C030
C030
C030
6060
7FE0
1F80
ENDCHAR
STARTCHAR char57789
ENCODING 57789
SWIDTH 1728 0
DWIDTH 18 0
BBX 12 9 3 0
BITMAP
EF00
EF00
6000
6000
7830
1830
CFF0
EFF0
6000
ENDCHAR
STARTCHAR char57790
ENCODING 57790
SWIDTH 1728 0
DWIDTH 18 0
BBX 12 9 3 0
BITMAP
0F70
0F70
0060
0060
C1E0
C180
FF30
FF70
0060
ENDCHAR
STARTCHAR char57791
ENCODING 57791
SWIDTH 1728 0
DWIDTH 18 0
BBX 12 12 3 0
BITMAP
C030
E070
E070
DFB0
FFF0
FFF0
CF30
EF70
EF70
7FE0
7FE0
0F00
ENDCHAR
STARTCHAR char57792
ENCODING 57792
SWIDTH 1728 0
DWIDTH 18 0
BBX 12 12 3 0
BITMAP
7860
FF70
CF30
1FB0
7FF0
79E0
79E0
FFE0
DF80
CF30
EFF0
61E0
ENDCHAR
STARTCHAR char57793
ENCODING 57793
SWIDTH 1728 0
DWIDTH 18 0
BBX 12 12 3 0
BITMAP
C3F0
EFF0
EF60
DF80
FFE0
F9E0
79F0
7FF0
1FB0
6F70
FF70
FC30
ENDCHAR
STARTCHAR char57794
ENCODING 57794
SWIDTH 1728 0
DWIDTH 18 0
BBX 12 12 3 0
BITMAP
1F80
7FE0
7FE0
FFF0
FFF0
FFF0
FFF0
FFF0
FFF0
7FE0
7FE0
1F80
ENDCHAR
STARTCHAR char57795
ENCODING 57795
SWIDTH 1728 0
DWIDTH 18 0
BBX 12 12 3 0
BITMAP
1F80
7FE0
7C60
FC30
FC30
FC30
FC30
FC30
FC30
7C60
7FE0
1F80
ENDCHAR
STARTCHAR char57796
ENCODING 57796
SWIDTH 1728 0
DWIDTH 18 0
BBX 12 12 3 0
BITMAP
1F80
7FE0
79E0
FFF0
FFF0
F9F0
F9F0
F9F0
F9F0
79E0
7FE0
1F80
ENDCHAR
STARTCHAR char57797
ENCODING 57797
SWIDTH 1728 0
DWIDTH 18 0
BBX 12 12 3 0
BITMAP
FFF0
FFF0
F9F0
FFF0
FFF0
F9F0
F9F0
F9F0
F9F0
F9F0
FFF0
FFF0
ENDCHAR
STARTCHAR char57798
ENCODING 57798
SWIDTH 1728 0
DWIDTH 18 0
BBX 11 12 3 0
BITMAP
FBE0
FBE0
FBE0
FBE0
FBE0
C060
FFE0
FFE0
FFE0
FFE0
FFE0
7FC0
ENDCHAR
STARTCHAR char57799
ENCODING 57799
SWIDTH 1728 0
DWIDTH 18 0
BBX 12 12 3 0
BITMAP
E000
FC00
FC00
7F00
7F80
7F80
1F80
1FE0
0F60
01B0
01F0
0070
ENDCHAR
STARTCHAR char57800
ENCODING 57800
SWIDTH 1728 0
DWIDTH 18 0
BBX 12 12 3 0
BITMAP
1F80
7FE0
6060
C030
C030
C030
FFF0
FFF0
1F80
1F80
1F80
1F80
ENDCHAR
STARTCHAR char57801
ENCODING 57801
SWIDTH 1728 0
DWIDTH 18 0
BBX 12 12 3 0
BITMAP
1C60
FF70
E330
E330
FB30
FB30
FB30
FB30
E330
E330
FF70
1C60
ENDCHAR
STARTCHAR char57802
ENCODING 57802
SWIDTH 1728 0
DWIDTH 18 0
BBX 12 12 3 0
BITMAP
7C00
FF00
E300
C180
C1E0
C060
6030
7830
1830
0C70
0FF0
03E0
ENDCHAR
STARTCHAR char57803
ENCODING 57803
SWIDTH 1728 0
DWIDTH 18 0
BBX 12 12 3 0
BITMAP
03E0
0FF0
0C30
1870
79F0
61F0
7FE0
7FE0
6380
CC00
FC00
F800
ENDCHAR
STARTCHAR char57804
ENCODING 57804
SWIDTH 1728 0
DWIDTH 18 0
BBX 12 12 3 0
BITMAP
0060
0370
0330
19B0
DDB0
CDB0
CDB0
DDB0
19B0
0330
0370
0060
ENDCHAR
STARTCHAR char57805
ENCODING 57805
SWIDTH 1728 0
DWIDTH 18 0
BBX 14 14 2 -2
BITMAP
6CD8
6CD8
6CD8
FFFC
FFFC
C00C
ECDC
ECDC
C00C
E49C
ECDC
C00C
FFFC
FFFC
ENDCHAR
STARTCHAR code
ENCODING 57806
SWIDTH 1728 0
DWIDTH 18 0
BBX 12 14 3 -2
BITMAP
6000
7000
7800
1C00
1C00
1C00
0F00
0F00
1F80
7F80
7B80
79E0
F0F0
E070
ENDCHAR
STARTCHAR char57807
ENCODING 57807
SWIDTH 1728 0
DWIDTH 18 0
BBX 11 14 3 -2
BITMAP
FF00
FF00
C300
C3E0
C3E0
C060
C060
C060
C060
C060
C060
C060
FFE0
FFE0
ENDCHAR
STARTCHAR images
ENCODING 57808
SWIDTH 1728 0
DWIDTH 18 0
BBX 18 11 0 0
BITMAP
FFFFC0
FFFFC0
C000C0
C006C0
D04FC0
D86FC0
FDFFC0
FDF0C0
FFFDC0
FFFFC0
FFFFC0
ENDCHAR
STARTCHAR media
ENCODING 57809
SWIDTH 1728 0
DWIDTH 18 0
BBX 17 14 0 -2
BITMAP
FFFF80
FFFF80
C00180
C30180
C38180
C3C180
C3E180
C3E180
C3C180
C38180
C30180
C00180
FFFF80
FFFF80
ENDCHAR
STARTCHAR char57810
ENCODING 57810
SWIDTH 1728 0
DWIDTH 18 0
BBX 17 11 0 0
BITMAP
FFFF80
FFFF80
C30180
C38180
C3C180
C3E180
C3C180
C38180
C30180
FFFF80
FFFF80
ENDCHAR
STARTCHAR git
ENCODING 57811
SWIDTH 1728 0
DWIDTH 18 0
BBX 18 15 0 -2
BITMAP
780780
7FFF80
7FFF80
7FFF80
FFFFC0
FFFFC0
FFFFC0
FFFFC0
E001C0
EF3DC0
EF3DC0
EF3DC0
780780
7FFF80
0FFC00
ENDCHAR
STARTCHAR punk_small
ENCODING 57812
SWIDTH 1728 0
DWIDTH 18 0
BBX 17 15 0 -2
BITMAP
03E000
07F000
0FF800
1FCC00
3F8E00
600300
EF7B80
E77380
E00380
FF7B80
FF7B80
6F7B00
0F7800
07F000
03E000
ENDCHAR
STARTCHAR char57813
ENCODING 57813
SWIDTH 1728 0
DWIDTH 18 0
BBX 14 15 2 -2
BITMAP
FFC0
FFE0
FCE0
FCF8
FCFC
FC0C
FFFC
FFFC
E01C
FFFC
FFFC
E01C
FFFC
FFFC
FFFC
ENDCHAR
STARTCHAR folder
ENCODING 57814
SWIDTH 1728 0
DWIDTH 18 0
BBX 15 14 2 -2
BITMAP
FC00
FFFE
FFFE
C3FE
C3FE
C006
C006
C006
C006
C006
C006
C006
FFFE
FFFE
ENDCHAR
STARTCHAR monitor
ENCODING 57815
SWIDTH 1728 0
DWIDTH 18 0
BBX 15 14 2 -2
BITMAP
FFFE
FFFE
C006
C006
C006
C006
C006
C006
FFFE
FFFE
FFFE
0FE0
0FE0
0FE0
ENDCHAR
STARTCHAR laptop
ENCODING 57816
SWIDTH 1728 0
DWIDTH 18 0
BBX 18 14 0 -2
BITMAP
7FFF80
7FFF80
600180
600180
600180
600180
600180
600180
1FFE00
7FFF80
600180
FF3FC0
FFFFC0
FFFFC0
ENDCHAR
STARTCHAR folder_open
ENCODING 57817
SWIDTH 1728 0
DWIDTH 18 0
BBX 17 12 0 0
BITMAP
FC0000
FFF000
CFF800
C00C00
C7FE00
CFFF00
D80180
F80380
E00300
C00F00
FFFE00
FFFC00
ENDCHAR
STARTCHAR image
ENCODING 57818
SWIDTH 1728 0
DWIDTH 18 0
BBX 18 14 0 -2
BITMAP
FFFFC0
FFFFC0
D800C0
FC0CC0
FC7CC0
D87CC0
CDFEC0
CDFEC0
DFFEC0
FFFFC0
FFFFC0
C000C0
FFFFC0
FFFFC0
ENDCHAR
STARTCHAR tag
ENCODING 57819
SWIDTH 1728 0
DWIDTH 18 0
BBX 12 12 3 0
BITMAP
FC00
FF00
CF00
CF80
FFE0
FFE0
7FF0
7FF0
1FF0
0FE0
0FE0
0380
ENDCHAR
STARTCHAR char57820
ENCODING 57820
SWIDTH 1728 0
DWIDTH 18 0
BBX 17 14 0 -2
BITMAP
FDE000
FFF000
CF7800
CFFC00
FFFE00
FFEF00
7FFF80
7FFB80
1FFB80
1FFF80
0FEF00
03DC00
039C00
001800
ENDCHAR
STARTCHAR film_large
ENCODING 57821
SWIDTH 1728 0
DWIDTH 18 0
BBX 18 14 0 -2
BITMAP
FFFFC0
FFFFC0
D806C0
F807C0
F807C0
D806C0
FFFFC0
FFFFC0
D806C0
F807C0
F807C0
D806C0
FFFFC0
FFFFC0
ENDCHAR
STARTCHAR barcode
ENCODING 57822
SWIDTH 1728 0
DWIDTH 18 0
BBX 18 14 0 -2
BITMAP
FFFFC0
FFFFC0
DDB6C0
DDB6C0
DDB6C0
DDB6C0
DDB6C0
DDB6C0
DDB6C0
DDB6C0
DDB6C0
DDB6C0
FFFFC0
FFFFC0
ENDCHAR
STARTCHAR book
ENCODING 57823
SWIDTH 1728 0
DWIDTH 18 0
BBX 14 14 2 -2
BITMAP
1FFC
1FFC
1FFC
781C
7FFC
7FFC
F07C
F07C
FFFC
FFFC
FFF8
C018
FFF0
7FE0
ENDCHAR
STARTCHAR char57824
ENCODING 57824
SWIDTH 1728 0
DWIDTH 18 0
BBX 15 12 2 0
BITMAP
FC00
FFFE
FFFE
FFFE
FFFE
FFFE
FFFE
FFFE
FFFE
FFFE
FFFE
FFFE
ENDCHAR
STARTCHAR char57825
ENCODING 57825
SWIDTH 1728 0
DWIDTH 18 0
BBX 17 12 0 0
BITMAP
FC0000
FFF000
FFF800
FFFC00
FFFC00
F80C00
EFFF80
FFFF80
DFFF00
7FFC00
FFFC00
FFF800
ENDCHAR
STARTCHAR char57826
ENCODING 57826
SWIDTH 1728 0
DWIDTH 18 0
BBX 11 14 3 -2
BITMAP
FFE0
FFE0
FFE0
FFE0
FFE0
FFE0
FFE0
FFE0
FFE0
FFE0
FBE0
E0E0
E0E0
C060
ENDCHAR
STARTCHAR char57827
ENCODING 57827
SWIDTH 1728 0
DWIDTH 18 0
BBX 11 14 3 -2
BITMAP
FFE0
FFE0
C060
C060
C060
C060
C060
C060
CE60
DF60
DB60
E0E0
E0E0
C060
ENDCHAR
STARTCHAR drop
ENCODING 57828
SWIDTH 1728 0
DWIDTH 18 0
BBX 11 15 3 -2
BITMAP
0E00
1F00
1F00
7FC0
7FC0
7FC0
FFE0
FFE0
EFE0
EFE0
EFE0
EFE0
7FC0
3F80
1F00
ENDCHAR
STARTCHAR pen
ENCODING 57829
SWIDTH 1728 0
DWIDTH 18 0
BBX 17 17 0 -3
BITMAP
000F00
001F80
001F80
007F80
00FF80
01DF00
03EC00
07FC00
0FF800
1FF000
1FE000
7FC000
FF8000
DF0000
EC0000
FC0000
F80000
ENDCHAR
STARTCHAR char57830
ENCODING 57830
SWIDTH 1728 0
DWIDTH 18 0
BBX 14 14 2 -2
BITMAP
1FE0
3FF0
7878
FFFC
FFFC
6018
6CD8
6CD8
6CD8
6CD8
6CD8
6018
7FF8
7FF8
ENDCHAR
STARTCHAR camera
ENCODING 57831
SWIDTH 1728 0
DWIDTH 18 0
BBX 15 12 2 0
BITMAP
FFFE
FFFE
CC06
FFFE
FFFE
DC7E
FBBE
FBBE
FBBE
FC7E
FFFE
FFFE
ENDCHAR
STARTCHAR punk_large
ENCODING 57832
SWIDTH 1728 0
DWIDTH 18 0
BBX 18 17 0 -3
BITMAP
03F000
07F800
0FFC00
1FE600
3FE700
600180
EF3DC0
EF3DC0
E001C0
FF3DC0
FF3DC0
EF3DC0
EF3DC0
6F3D80
0F3C00
07F800
03F000
ENDCHAR
STARTCHAR reddit
ENCODING 57833
SWIDTH 1728 0
DWIDTH 18 0
BBX 18 18 0 -3
BITMAP
007F80
007F80
006F80
01E000
7FFF80
7F3F80
D806C0
F807C0
E001C0
CF3CC0
CF3CC0
CF3CC0
C000C0
E3F1C0
63F180
1C0E00
1FFE00
03F000
ENDCHAR
STARTCHAR hackernews
ENCODING 57834
SWIDTH 1728 0
DWIDTH 18 0
BBX 12 12 3 0
BITMAP
7FE0
7FE0
1F80
CF30
EF70
E070
F9F0
F9F0
F9F0
F9F0
F9F0
F9F0
ENDCHAR
STARTCHAR youtube
ENCODING 57835
SWIDTH 1728 0
DWIDTH 18 0
BBX 15 12 2 0
BITMAP
7FFC
FFFE
FFFE
FDFE
FDFE
FC7E
FC7E
FDFE
FDFE
FFFE
FFFE
7FFC
ENDCHAR
STARTCHAR char57836
ENCODING 57836
SWIDTH 1728 0
DWIDTH 18 0
BBX 17 12 0 0
BITMAP
C00000
E00000
E00000
780000
3C0000
1C0000
1C0000
3C0000
780000
E00000
E0FF80
C1FF80
ENDCHAR
STARTCHAR char57837
ENCODING 57837
SWIDTH 1728 0
DWIDTH 18 0
BBX 14 15 2 -2
BITMAP
FFC0
FFE0
C0E0
C0D8
C0FC
C0FC
C00C
DFEC
DFEC
C00C
DFEC
DFEC
C00C
FFFC
FFFC
ENDCHAR
STARTCHAR find
ENCODING 57838
SWIDTH 1728 0
DWIDTH 18 0
BBX 15 15 2 -2
BITMAP
1F00
7F80
6180
C060
C060
C060
C060
E1E0
6180
1F60
1F70
0030
000C
000E
0006
ENDCHAR
STARTCHAR terminal_big
ENCODING 57839
SWIDTH 1728 0
DWIDTH 18 0
BBX 15 12 2 0
BITMAP
FFFE
FFFE
FFFE
C006
D806
D806
CC06
DDF6
D9F6
C006
FFFE
FFFE
ENDCHAR
STARTCHAR char57840
ENCODING 57840
SWIDTH 1728 0
DWIDTH 18 0
BBX 18 15 0 -2
BITMAP
01E780
03F780
03F780
0F3F80
1F3F80
1C0F80
780780
F807C0
E001C0
E3F1C0
E3F1C0
633180
633180
7F3F80
7F3F80
ENDCHAR
STARTCHAR char57841
ENCODING 57841
SWIDTH 1728 0
DWIDTH 18 0
BBX 15 11 2 0
BITMAP
FFFE
FFFE
0000
FFFE
FFFE
0000
FFFE
FFFE
0000
FFFE
FFFE
ENDCHAR
STARTCHAR char57842
ENCODING 57842
SWIDTH 1728 0
DWIDTH 18 0
BBX 15 11 2 0
BITMAP
DFFE
DFFE
0000
DFFE
DFFE
0000
DFFE
DFFE
0000
DFFE
DFFE
ENDCHAR
STARTCHAR char57843
ENCODING 57843
SWIDTH 1728 0
DWIDTH 18 0
BBX 15 11 2 0
BITMAP
FFF0
FFF0
0000
FFFC
FFFC
0000
FFF0
FFF0
0000
FFFE
FFFE
ENDCHAR
STARTCHAR char57844
ENCODING 57844
SWIDTH 1728 0
DWIDTH 18 0
BBX 15 11 2 0
BITMAP
1FFE
1FFE
0000
7FFE
7FFE
0000
1FFE
1FFE
0000
FFFE
FFFE
ENDCHAR
STARTCHAR char57845
ENCODING 57845
SWIDTH 1728 0
DWIDTH 18 0
BBX 15 11 2 0
BITMAP
FFE6
FFEE
FFEE
FFFE
FFFE
FFFE
FFFE
FFFE
FFEE
FFEE
FFE6
ENDCHAR
STARTCHAR char57846
ENCODING 57846
SWIDTH 1728 0
DWIDTH 18 0
BBX 11 18 3 -3
BITMAP
7FC0
7FC0
7FC0
7BC0
7BC0
7BC0
7FC0
7FC0
7FC0
FFE0
FFE0
FFE0
0E00
0E00
0E00
0E00
0E00
0E00
ENDCHAR
STARTCHAR char57847
ENCODING 57847
SWIDTH 1728 0
DWIDTH 18 0
BBX 14 18 2 -3
BITMAP
FFFC
FFFC
FF0C
FF0C
FF0C
FF0C
FF0C
FF0C
FF0C
FF0C
FF1C
FF1C
7F78
3FF0
1FE0
0FC0
0780
0300
ENDCHAR
STARTCHAR char57848
ENCODING 57848
SWIDTH 1728 0
DWIDTH 18 0
BBX 9 9 5 0
BITMAP
0180
0380
0380
0F80
1F80
1F80
7F80
FF80
FF80
ENDCHAR
STARTCHAR char57849
ENCODING 57849
SWIDTH 1728 0
DWIDTH 18 0
BBX 9 9 5 0
BITMAP
C000
E000
E000
F800
FC00
FC00
FF00
FF80
FF80
ENDCHAR
STARTCHAR char57850
ENCODING 57850
SWIDTH 1728 0
DWIDTH 18 0
BBX 9 9 5 0
BITMAP
FF80
FF80
FF00
FC00
FC00
F800
E000
E000
C000
ENDCHAR
STARTCHAR char57851
ENCODING 57851
SWIDTH 1728 0
DWIDTH 18 0
BBX 9 9 5 0
BITMAP
FF80
FF80
7F80
1F80
1F80
0F80
0380
0380
0180
ENDCHAR
STARTCHAR char57852
ENCODING 57852
SWIDTH 1728 0
DWIDTH 18 0
BBX 8 11 5 0
BITMAP
66
66
66
E7
E7
66
E7
E7
66
66
66
ENDCHAR
STARTCHAR char57853
ENCODING 57853
SWIDTH 1728 0
DWIDTH 18 0
BBX 11 15 3 -2
BITMAP
1F00
FFE0
FFE0
C060
C060
C060
C060
C060
C060
C060
C060
C060
C060
FFE0
FFE0
ENDCHAR
STARTCHAR char57854
ENCODING 57854
SWIDTH 1728 0
DWIDTH 18 0
BBX 11 15 3 -2
BITMAP
1F00
FFE0
FFE0
C060
C060
C060
C060
DF60
DF60
DF60
DF60
DF60
C060
FFE0
FFE0
ENDCHAR
STARTCHAR char57855
ENCODING 57855
SWIDTH 1728 0
DWIDTH 18 0
BBX 11 15 3 -2
BITMAP
1F00
FFE0
FFE0
C060
DF60
DF60
DF60
DF60
DF60
DF60
DF60
DF60
C060
FFE0
FFE0
ENDCHAR
STARTCHAR char57856
ENCODING 57856
SWIDTH 1728 0
DWIDTH 18 0
BBX 11 15 3 -2
BITMAP
1F00
FFE0
FFE0
EEE0
EEE0
EEE0
C060
C060
C060
E0E0
FBE0
FBE0
FBE0
FFE0
FFE0
ENDCHAR
STARTCHAR char57857
ENCODING 57857
SWIDTH 1728 0
DWIDTH 18 0
BBX 11 15 3 -2
BITMAP
1F00
FFE0
FFE0
FEE0
FFE0
FBE0
E3E0
E3E0
C060
F8E0
FBE0
FBE0
EFE0
FFE0
FFE0
ENDCHAR
STARTCHAR char57858
ENCODING 57858
SWIDTH 1728 0
DWIDTH 18 0
BBX 11 14 3 -2
BITMAP
0300
C700
CF00
6F00
FF00
DB00
FE00
FE00
FB00
FFC0
1EC0
0F60
0760
0300
ENDCHAR
STARTCHAR char57859
ENCODING 57859
SWIDTH 1728 0
DWIDTH 18 0
BBX 12 14 3 -2
BITMAP
0330
0770
0F60
1F00
FF00
FF00
FF70
FF70
FF00
FF00
1F00
0F60
0770
0330
ENDCHAR
STARTCHAR char57860
ENCODING 57860
SWIDTH 1728 0
DWIDTH 18 0
BBX 8 14 5 -2
BITMAP
03
07
07
1F
FF
FF
FF
FF
FF
FF
1F
07
07
03
ENDCHAR
STARTCHAR char57861
ENCODING 57861
SWIDTH 1728 0
DWIDTH 18 0
BBX 11 11 3 0
BITMAP
1FE0
1FE0
1FE0
1860
1FE0
1FE0
1FE0
1860
FBE0
FBE0
FBE0
ENDCHAR
STARTCHAR char57862
ENCODING 57862
SWIDTH 1728 0
DWIDTH 18 0
BBX 9 8 5 2
BITMAP
CC00
EE00
EF00
FF80
FF80
EF00
EE00
CC00
ENDCHAR
STARTCHAR char57863
ENCODING 57863
SWIDTH 1728 0
DWIDTH 18 0
BBX 9 8 5 2
BITMAP
1980
3B80
7B80
FF80
FF80
7B80
3B80
1980
ENDCHAR
STARTCHAR char57864
ENCODING 57864
SWIDTH 1728 0
DWIDTH 18 0
BBX 8 9 5 0
BITMAP
18
3C
7E
FF
FF
18
7E
FF
FF
ENDCHAR
STARTCHAR char57865
ENCODING 57865
SWIDTH 1728 0
DWIDTH 18 0
BBX 8 9 5 0
BITMAP
FF
FF
7E
18
FF
FF
7E
3C
18
ENDCHAR
STARTCHAR char57866
ENCODING 57866
SWIDTH 1728 0
DWIDTH 18 0
BBX 11 8 3 2
BITMAP
CE60
EF60
EF60
FFE0
FFE0
EF60
EF60
CE60
ENDCHAR
STARTCHAR char57867
ENCODING 57867
SWIDTH 1728 0
DWIDTH 18 0
BBX 11 8 3 2
BITMAP
CE60
DEE0
DEE0
FFE0
FFE0
DEE0
DEE0
CE60
ENDCHAR
STARTCHAR char57868
ENCODING 57868
SWIDTH 1728 0
DWIDTH 18 0
BBX 9 8 5 2
BITMAP
CD80
ED80
ED80
FD80
FD80
ED80
ED80
CD80
ENDCHAR
STARTCHAR berry_percent
ENCODING 57869
SWIDTH 1728 0
DWIDTH 18 0
BBX 8 11 5 0
BITMAP
63
FB
DB
7E
7E
18
7E
7E
DB
DF
C6
ENDCHAR
STARTCHAR char57870
ENCODING 57870
SWIDTH 1728 0
DWIDTH 18 0
BBX 12 9 3 0
BITMAP
0F80
1FF0
1FF0
FF80
FF80
FF80
1FF0
1FF0
0F80
ENDCHAR
STARTCHAR char57871
ENCODING 57871
SWIDTH 1728 0
DWIDTH 18 0
BBX 17 12 0 0
BITMAP
000380
078380
0FC380
1FFB80
FFF380
FFC380
FFC380
FFF380
1FF800
0FC380
078380
000380
ENDCHAR
STARTCHAR char57872
ENCODING 57872
SWIDTH 1728 0
DWIDTH 18 0
BBX 11 17 3 -2
BITMAP
1F00
FFE0
FFE0
C060
C060
C060
C060
C060
C060
C060
C060
C060
C060
C060
C060
FFE0
FFE0
ENDCHAR
STARTCHAR char57873
ENCODING 57873
SWIDTH 1728 0
DWIDTH 18 0
BBX 17 17 0 -2
BITMAP
1F0000
FFE000
FFE000
C06380
C06380
C06380
C06380
C06380
C06380
C06380
C06380
C06000
C06380
C06380
C06380
FFE380
FFE000
ENDCHAR
STARTCHAR char57874
ENCODING 57874
SWIDTH 1728 0
DWIDTH 18 0
BBX 17 17 0 -2
BITMAP
1F0000
FFE000
FFE000
C06380
C06380
C06380
C06380
C06380
C06380
C06380
C06380
D86000
DC6380
DC6380
C06380
FFE380
FFE000
ENDCHAR
STARTCHAR char57875
ENCODING 57875
SWIDTH 1728 0
DWIDTH 18 0
BBX 11 17 3 -2
BITMAP
1F00
FFE0
FFE0
C060
C060
C060
D860
DC60
DE60
CF60
CF60
DB60
DF60
DE60
C060
FFE0
FFE0
ENDCHAR
STARTCHAR char57876
ENCODING 57876
SWIDTH 1728 0
DWIDTH 18 0
BBX 11 17 3 -2
BITMAP
1F00
FFE0
FFE0
C060
C760
CF60
DB60
DF60
DE60
CF60
CF60
DB60
DF60
DE60
C060
FFE0
FFE0
ENDCHAR
STARTCHAR char57877
ENCODING 57877
SWIDTH 1728 0
DWIDTH 18 0
BBX 9 15 5 -2
BITMAP
0300
0F00
0C00
1C00
7C00
7800
7F80
FF80
FF00
0F00
1F00
1C00
1800
7800
6000
ENDCHAR
STARTCHAR char57878
ENCODING 57878
SWIDTH 1728 0
DWIDTH 18 0
BBX 8 14 5 -2
BITMAP
03
07
06
18
38
78
FF
FF
1E
1C
18
60
E0
C0
ENDCHAR
STARTCHAR char57879
ENCODING 57879
SWIDTH 1728 0
DWIDTH 18 0
BBX 12 8 3 0
BITMAP
0F70
0FF0
03E0
E180
E180
E3E0
EFF0
0F70
ENDCHAR
STARTCHAR char57880
ENCODING 57880
SWIDTH 1728 0
DWIDTH 18 0
BBX 9 6 5 0
BITMAP
7F00
FF80
C180
1C00
1C00
1C00
ENDCHAR
STARTCHAR char57881
ENCODING 57881
SWIDTH 1728 0
DWIDTH 18 0
BBX 12 9 3 0
BITMAP
7FE0
FFF0
C030
1F80
7FE0
6060
0F00
0F00
0F00
ENDCHAR
STARTCHAR char57882
ENCODING 57882
SWIDTH 1728 0
DWIDTH 18 0
BBX 15 12 2 0
BITMAP
7FFC
FFFE
C006
1FF0
7FFC
600C
0FE0
1FF0
1830
0380
0380
0380
ENDCHAR
STARTCHAR char57883
ENCODING 57883
SWIDTH 1728 0
DWIDTH 18 0
BBX 15 12 2 0
BITMAP
C000
C000
C000
0000
C1EE
C1EE
C07C
C07C
0030
C07C
C1FE
C1EE
ENDCHAR
STARTCHAR char57884
ENCODING 57884
SWIDTH 1728 0
DWIDTH 18 0
BBX 5 12 2 0
BITMAP
C0
C0
C0
00
C0
C0
C0
C0
00
F8
F8
F8
ENDCHAR
STARTCHAR char57885
ENCODING 57885
SWIDTH 1728 0
DWIDTH 18 0
BBX 9 12 2 0
BITMAP
C000
C000
C000
0000
FF80
FF80
FF80
FF80
0000
F800
F800
F800
ENDCHAR
STARTCHAR char57886
ENCODING 57886
SWIDTH 1728 0
DWIDTH 18 0
BBX 14 12 2 0
BITMAP
FFFC
FFFC
FFFC
0000
FF80
FFC0
FFC0
FF80
0000
F800
F800
F800
ENDCHAR
STARTCHAR char57887
ENCODING 57887
SWIDTH 1728 0
DWIDTH 18 0
BBX 12 2 3 0
BITMAP
EF70
EF70
ENDCHAR
STARTCHAR char57888
ENCODING 57888
SWIDTH 1728 0
DWIDTH 18 0
BBX 12 5 3 0
BITMAP
E000
E000
E000
EF70
EF70
ENDCHAR
STARTCHAR char57889
ENCODING 57889
SWIDTH 1728 0
DWIDTH 18 0
BBX 12 9 3 0
BITMAP
0F00
0F00
0F00
0F00
EF00
EF00
EF00
EF70
EF70
ENDCHAR
STARTCHAR char57890
ENCODING 57890
SWIDTH 1728 0
DWIDTH 18 0
BBX 12 14 3 -2
BITMAP
0070
0070
0070
0070
0670
0F70
0F70
0F70
0F70
EF70
EF70
EF70
EF70
EF70
ENDCHAR
STARTCHAR char57891
ENCODING 57891
SWIDTH 1728 0
DWIDTH 18 0
BBX 14 14 2 -2
BITMAP
7FF8
FFFC
C00C
CC0C
CC0C
CC0C
DB6C
DB6C
C0CC
C0CC
C0CC
C00C
FFFC
7FF8
ENDCHAR
STARTCHAR char57892
ENCODING 57892
SWIDTH 1728 0
DWIDTH 18 0
BBX 14 14 2 -2
BITMAP
7FF8
FFFC
FBFC
FBFC
FBFC
FBFC
CFCC
CFCC
FF7C
FF7C
FF7C
FF7C
FFFC
7FF8
ENDCHAR
STARTCHAR char57893
ENCODING 57893
SWIDTH 1728 0
DWIDTH 18 0
BBX 14 14 2 -2
BITMAP
6018
FFFC
FFFC
FFFC
FFFC
C00C
DB6C
DB6C
C00C
DB6C
DB6C
C00C
FFFC
FFFC
ENDCHAR
STARTCHAR char57894
ENCODING 57894
SWIDTH 1728 0
DWIDTH 18 0
BBX 14 14 2 -2
BITMAP
6018
FFFC
FFFC
FFFC
FFFC
C00C
C00C
C00C
C00C
C00C
C00C
C00C
FFFC
FFFC
ENDCHAR
STARTCHAR char57895
ENCODING 57895
SWIDTH 1728 0
DWIDTH 18 0
BBX 18 14 0 -2
BITMAP
603000
FFF9C0
FFFDC0
FFFDC0
FFFDC0
C00DC0
C00DC0
C00DC0
C00DC0
C00DC0
C00C00
C00DC0
FFFDC0
FFFDC0
ENDCHAR
STARTCHAR char57896
ENCODING 57896
SWIDTH 1728 0
DWIDTH 18 0
BBX 14 11 2 0
BITMAP
FFFC
FFFC
E01C
D86C
DCEC
CCCC
DFEC
DB6C
E01C
FFFC
FFFC
ENDCHAR
STARTCHAR char57897
ENCODING 57897
SWIDTH 1728 0
DWIDTH 18 0
BBX 14 11 2 0
BITMAP
FFFC
FFFC
DFEC
EFDC
FFFC
FB7C
FFFC
EFDC
DFEC
FFFC
FFFC
ENDCHAR
STARTCHAR art
ENCODING 57898
SWIDTH 1728 0
DWIDTH 18 0
BBX 14 14 2 -2
BITMAP
0018
007C
007C
00F8
03F8
03E0
0FC0
0FC0
1F00
7F00
7C00
7800
F800
C000
ENDCHAR
STARTCHAR w_cloud
ENCODING 57899
SWIDTH 1728 0
DWIDTH 18 0
BBX 11 8 3 3
BITMAP
1F00
3F80
7FC0
FFE0
FFE0
FFE0
FFE0
7BC0
ENDCHAR
STARTCHAR w_lightning
ENCODING 57900
SWIDTH 1728 0
DWIDTH 18 0
BBX 11 12 3 0
BITMAP
1F00
3F80
7FC0
FFE0
FFE0
FFE0
7BC0
3F80
0E00
1E00
1C00
1800
ENDCHAR
STARTCHAR w_rain
ENCODING 57901
SWIDTH 1728 0
DWIDTH 18 0
BBX 11 12 3 0
BITMAP
1F00
3F80
7FC0
FFE0
FFE0
FFE0
7BC0
3B80
0000
6EC0
FF80
DB00
ENDCHAR
STARTCHAR char57902
ENCODING 57902
SWIDTH 1728 0
DWIDTH 18 0
BBX 11 14 3 -2
BITMAP
1F00
3F80
7FC0
FFE0
FFE0
FFE0
7BC0
7BC0
0000
C400
CE00
1B00
1F60
0E60
ENDCHAR
STARTCHAR w_hail
ENCODING 57903
SWIDTH 1728 0
DWIDTH 18 0
BBX 11 14 3 -2
BITMAP
1F00
3F80
7FC0
FFE0
FFE0
FFE0
7BC0
7BC0
0E00
64C0
60C0
0E00
64C0
60C0
ENDCHAR
STARTCHAR w_morerainidunno
ENCODING 57904
SWIDTH 1728 0
DWIDTH 18 0
BBX 11 12 3 -2
BITMAP
1F00
3F80
7FC0
FFE0
FFE0
FFE0
7BC0
3B80
0000
60C0
2480
0E00
ENDCHAR
STARTCHAR char57905
ENCODING 57905
SWIDTH 1728 0
DWIDTH 18 0
BBX 12 11 3 0
BITMAP
0360
13E0
1B80
7C70
FC70
F860
FC70
FC70
FF80
FFE0
6F60
ENDCHAR
STARTCHAR w_partlymoon
ENCODING 57906
SWIDTH 1728 0
DWIDTH 18 0
BBX 12 12 3 0
BITMAP
0300
0F00
0C00
0C00
6F30
6F30
FBE0
FFE0
FC00
FF80
FF80
6F00
ENDCHAR
STARTCHAR w_moon
ENCODING 57907
SWIDTH 1728 0
DWIDTH 18 0
BBX 8 8 5 2
BITMAP
60
E0
C0
C0
C0
E3
FF
7E
ENDCHAR
STARTCHAR w_sun
ENCODING 57908
SWIDTH 1728 0
DWIDTH 18 0
BBX 11 11 3 0
BITMAP
CE60
FFE0
7FC0
71C0
60C0
60C0
60C0
71C0
7FC0
FFE0
CE60
ENDCHAR
STARTCHAR w_wind
ENCODING 57909
SWIDTH 1728 0
DWIDTH 18 0
BBX 12 11 3 0
BITMAP
0F00
FF00
FF00
0070
FFF0
FFF0
FFF0
0000
FF80
FF80
0380
ENDCHAR
STARTCHAR char57910
ENCODING 57910
SWIDTH 1728 0
DWIDTH 18 0
BBX 15 11 2 0
BITMAP
FFFC
FFFC
C00C
C00E
C00E
C00E
C00E
C00E
C00C
FFFC
FFFC
ENDCHAR
STARTCHAR char57911
ENCODING 57911
SWIDTH 1728 0
DWIDTH 18 0
BBX 15 11 2 0
BITMAP
FFFC
FFFC
C00C
DF0E
DF0E
DF0E
DF0E
DF0E
C00C
FFFC
FFFC
ENDCHAR
STARTCHAR char57912
ENCODING 57912
SWIDTH 1728 0
DWIDTH 18 0
BBX 15 11 2 0
BITMAP
FFFC
FFFC
C00C
DFEE
DFEE
DFEE
DFEE
DFEE
C00C
FFFC
FFFC
ENDCHAR
STARTCHAR char57913
ENCODING 57913
SWIDTH 1728 0
DWIDTH 18 0
BBX 15 11 2 0
BITMAP
FFFC
FFFC
FC7C
F80E
F87E
C07E
F87E
F80E
FC7C
FFFC
FFFC
ENDCHAR
STARTCHAR char57914
ENCODING 57914
SWIDTH 1728 0
DWIDTH 18 0
BBX 15 11 2 0
BITMAP
FFFC
FFFC
FDFC
F9EE
F9FE
E03E
FC7E
DC7E
FDFC
FFFC
FFFC
ENDCHAR
STARTCHAR char57915
ENCODING 57915
SWIDTH 1728 0
DWIDTH 18 0
BBX 15 11 2 0
BITMAP
7FFE
7FFE
6006
E006
E006
E006
E006
E006
6006
7FFE
7FFE
ENDCHAR
STARTCHAR char57916
ENCODING 57916
SWIDTH 1728 0
DWIDTH 18 0
BBX 15 11 2 0
BITMAP
7FFE
7FFE
6006
E1F6
E1F6
E1F6
E1F6
E1F6
6006
7FFE
7FFE
ENDCHAR
STARTCHAR char57917
ENCODING 57917
SWIDTH 1728 0
DWIDTH 18 0
BBX 15 11 2 0
BITMAP
7FFE
7FFE
6006
EFF6
EFF6
EFF6
EFF6
EFF6
6006
7FFE
7FFE
ENDCHAR
STARTCHAR char57918
ENCODING 57918
SWIDTH 1728 0
DWIDTH 18 0
BBX 15 11 2 0
BITMAP
7FFE
7FFE
7C7E
E03E
FC3E
FC06
FC3E
E03E
7C7E
7FFE
7FFE
ENDCHAR
STARTCHAR char57919
ENCODING 57919
SWIDTH 1728 0
DWIDTH 18 0
BBX 15 11 2 0
BITMAP
7FFE
7FFE
7F7E
EF3E
FF3E
F80E
FC7E
FC76
7F7E
7FFE
7FFE
ENDCHAR
STARTCHAR char57920
ENCODING 57920
SWIDTH 1728 0
DWIDTH 18 0
BBX 18 8 0 0
BITMAP
0C0000
0C0000
0C0000
FDBFC0
FDBFC0
CDB6C0
FFF6C0
FFF6C0
ENDCHAR
STARTCHAR char57921
ENCODING 57921
SWIDTH 1728 0
DWIDTH 18 0
BBX 18 11 0 0
BITMAP
0C0000
0C0000
0C0000
0C0000
FC9FC0
FDBFC0
FDBFC0
CDB6C0
CDB6C0
FFF6C0
FFF6C0
ENDCHAR
STARTCHAR char57922
ENCODING 57922
SWIDTH 1728 0
DWIDTH 18 0
BBX 18 11 0 0
BITMAP
FFFF80
FFFFC0
C001C0
C000C0
C000C0
C000C0
C000C0
C000C0
C001C0
FFFFC0
FFFF80
ENDCHAR
STARTCHAR char57923
ENCODING 57923
SWIDTH 1728 0
DWIDTH 18 0
BBX 18 11 0 0
BITMAP
FFFF80
FFFFC0
C001C0
E000C0
E000C0
E000C0
E000C0
E000C0
C001C0
FFFFC0
FFFF80
ENDCHAR
STARTCHAR char57924
ENCODING 57924
SWIDTH 1728 0
DWIDTH 18 0
BBX 18 11 0 0
BITMAP
FFFF80
FFFFC0
C001C0
F800C0
F800C0
F800C0
F800C0
F800C0
C001C0
FFFFC0
FFFF80
ENDCHAR
STARTCHAR char57925
ENCODING 57925
SWIDTH 1728 0
DWIDTH 18 0
BBX 18 11 0 0
BITMAP
FFFF80
FFFFC0
C001C0
FC00C0
FC00C0
FC00C0
FC00C0
FC00C0
C001C0
FFFFC0
FFFF80
ENDCHAR
STARTCHAR char57926
ENCODING 57926
SWIDTH 1728 0
DWIDTH 18 0
BBX 18 11 0 0
BITMAP
FFFF80
FFFFC0
C001C0
FF00C0
FF00C0
FF00C0
FF00C0
FF00C0
C001C0
FFFFC0
FFFF80
ENDCHAR
STARTCHAR char57927
ENCODING 57927
SWIDTH 1728 0
DWIDTH 18 0
BBX 18 11 0 0
BITMAP
FFFF80
FFFFC0
C001C0
FF80C0
FF80C0
FF80C0
FF80C0
FF80C0
C001C0
FFFFC0
FFFF80
ENDCHAR
STARTCHAR char57928
ENCODING 57928
SWIDTH 1728 0
DWIDTH 18 0
BBX 18 11 0 0
BITMAP
FFFF80
FFFFC0
C001C0
FFE0C0
FFE0C0
FFE0C0
FFE0C0
FFE0C0
C001C0
FFFFC0
FFFF80
ENDCHAR
STARTCHAR char57929
ENCODING 57929
SWIDTH 1728 0
DWIDTH 18 0
BBX 18 11 0 0
BITMAP
FFFF80
FFFFC0
C001C0
FFF0C0
FFF0C0
FFF0C0
FFF0C0
FFF0C0
C001C0
FFFFC0
FFFF80
ENDCHAR
STARTCHAR char57930
ENCODING 57930
SWIDTH 1728 0
DWIDTH 18 0
BBX 18 11 0 0
BITMAP
FFFF80
FFFFC0
C001C0
FFFCC0
FFFCC0
FFFCC0
FFFCC0
FFFCC0
C001C0
FFFFC0
FFFF80
ENDCHAR
STARTCHAR char57931
ENCODING 57931
SWIDTH 1728 0
DWIDTH 18 0
BBX 18 11 0 0
BITMAP
FFFF80
FFFFC0
C001C0
FFFEC0
FFFEC0
FFFEC0
FFFEC0
FFFEC0
C001C0
FFFFC0
FFFF80
ENDCHAR
STARTCHAR char57932
ENCODING 57932
SWIDTH 1728 0
DWIDTH 18 0
BBX 18 11 0 0
BITMAP
FFFF80
FFFFC0
E001C0
E000C0
E000C0
E000C0
E000C0
E000C0
E001C0
FFFFC0
FFFF80
ENDCHAR
STARTCHAR char57933
ENCODING 57933
SWIDTH 1728 0
DWIDTH 18 0
BBX 18 11 0 0
BITMAP
FFFF80
FFFFC0
F801C0
F800C0
F800C0
F800C0
F800C0
F800C0
F801C0
FFFFC0
FFFF80
ENDCHAR
STARTCHAR char57934
ENCODING 57934
SWIDTH 1728 0
DWIDTH 18 0
BBX 18 11 0 0
BITMAP
FFFF80
FFFFC0
FC01C0
FC00C0
FC00C0
FC00C0
FC00C0
FC00C0
FC01C0
FFFFC0
FFFF80
ENDCHAR
STARTCHAR char57935
ENCODING 57935
SWIDTH 1728 0
DWIDTH 18 0
BBX 18 11 0 0
BITMAP
FFFF80
FFFFC0
FF01C0
FF00C0
FF00C0
FF00C0
FF00C0
FF00C0
FF01C0
FFFFC0
FFFF80
ENDCHAR
STARTCHAR char57936
ENCODING 57936
SWIDTH 1728 0
DWIDTH 18 0
BBX 18 11 0 0
BITMAP
FFFF80
FFFFC0
FF81C0
FF80C0
FF80C0
FF80C0
FF80C0
FF80C0
FF81C0
FFFFC0
FFFF80
ENDCHAR
STARTCHAR char57937
ENCODING 57937
SWIDTH 1728 0
DWIDTH 18 0
BBX 18 11 0 0
BITMAP
FFFF80
FFFFC0
FFE1C0
FFE0C0
FFE0C0
FFE0C0
FFE0C0
FFE0C0
FFE1C0
FFFFC0
FFFF80
ENDCHAR
STARTCHAR char57938
ENCODING 57938
SWIDTH 1728 0
DWIDTH 18 0
BBX 18 11 0 0
BITMAP
FFFF80
FFFFC0
FFF1C0
FFF0C0
FFF0C0
FFF0C0
FFF0C0
FFF0C0
FFF1C0
FFFFC0
FFFF80
ENDCHAR
STARTCHAR char57939
ENCODING 57939
SWIDTH 1728 0
DWIDTH 18 0
BBX 18 11 0 0
BITMAP
FFFF80
FFFFC0
FFFDC0
FFFCC0
FFFCC0
FFFCC0
FFFCC0
FFFCC0
FFFDC0
FFFFC0
FFFF80
ENDCHAR
STARTCHAR char57940
ENCODING 57940
SWIDTH 1728 0
DWIDTH 18 0
BBX 18 11 0 0
BITMAP
FFFF80
FFFFC0
FFFFC0
FFFEC0
FFFEC0
FFFEC0
FFFEC0
FFFEC0
FFFFC0
FFFFC0
FFFF80
ENDCHAR
STARTCHAR layout_full
ENCODING 57941
SWIDTH 1728 0
DWIDTH 18 0
BBX 17 11 0 0
BITMAP
FFFF80
FFFF80
C00180
C00180
C00180
C00180
C00180
C00180
C00180
FFFF80
FFFF80
ENDCHAR
STARTCHAR layout_mirror
ENCODING 57942
SWIDTH 1728 0
DWIDTH 18 0
BBX 17 11 0 0
BITMAP
FFFF80
FFFF80
C00180
C00180
FFFF80
FFFF80
FFFF80
C1C180
C1C180
FFFF80
FFFF80
ENDCHAR
STARTCHAR layout_tall
ENCODING 57943
SWIDTH 1728 0
DWIDTH 18 0
BBX 17 11 0 0
BITMAP
FFFF80
FFFF80
C1C180
C1C180
C1FF80
C1FF80
C1FF80
C1C180
C1C180
FFFF80
FFFF80
ENDCHAR
STARTCHAR wifi_1
ENCODING 57944
SWIDTH 1728 0
DWIDTH 18 0
BBX 2 2 2 2
BITMAP
C0
C0
ENDCHAR
STARTCHAR wifi_2
ENCODING 57945
SWIDTH 1728 0
DWIDTH 18 0
BBX 5 3 2 2
BITMAP
18
D8
D8
ENDCHAR
STARTCHAR wifi_3
ENCODING 57946
SWIDTH 1728 0
DWIDTH 18 0
BBX 8 5 2 2
BITMAP
03
1B
1B
DB
DB
ENDCHAR
STARTCHAR wifi_4
ENCODING 57947
SWIDTH 1728 0
DWIDTH 18 0
BBX 11 6 2 2
BITMAP
0060
0360
0360
1B60
DB60
DB60
ENDCHAR
STARTCHAR wifi_5
ENCODING 57948
SWIDTH 1728 0
DWIDTH 18 0
BBX 14 8 2 2
BITMAP
000C
006C
006C
036C
036C
1B6C
DB6C
DB6C
ENDCHAR
STARTCHAR wifi_alt_1
ENCODING 57949
SWIDTH 1728 0
DWIDTH 18 0
BBX 14 2 2 2
BITMAP
DB6C
DB6C
ENDCHAR
STARTCHAR wifi_alt_2
ENCODING 57950
SWIDTH 1728 0
DWIDTH 18 0
BBX 14 3 2 2
BITMAP
1800
DB6C
DB6C
ENDCHAR
STARTCHAR wifi_alt_3
ENCODING 57951
SWIDTH 1728 0
DWIDTH 18 0
BBX 14 5 2 2
BITMAP
0300
1B00
1B00
DB6C
DB6C
ENDCHAR
STARTCHAR wifi_alt_4
ENCODING 57952
SWIDTH 1728 0
DWIDTH 18 0
BBX 14 6 2 2
BITMAP
0060
0360
0360
1B60
DB6C
DB6C
ENDCHAR
STARTCHAR wifi_alt_5
ENCODING 57953
SWIDTH 1728 0
DWIDTH 18 0
BBX 14 8 2 2
BITMAP
000C
006C
006C
036C
036C
1B6C
DB6C
DB6C
ENDCHAR
STARTCHAR calendar_large
ENCODING 57954
SWIDTH 1728 0
DWIDTH 18 0
BBX 18 14 0 -2
BITMAP
1B6C00
FFFFC0
FFFFC0
DB6CC0
DB6CC0
C000C0
DB6DC0
DB6DC0
C000C0
DB6DC0
DB6DC0
C000C0
FFFFC0
FFFFC0
ENDCHAR
STARTCHAR film_small
ENCODING 57955
SWIDTH 1728 0
DWIDTH 18 0
BBX 15 11 2 0
BITMAP
FFFE
FFFE
D836
F83E
FFFE
DFF6
FFFE
F83E
D836
FFFE
FFFE
ENDCHAR
STARTCHAR folder_small
ENCODING 57956
SWIDTH 1728 0
DWIDTH 18 0
BBX 12 9 3 0
BITMAP
F800
FFF0
FFF0
FFF0
FFF0
FFF0
FFF0
FFF0
FFF0
ENDCHAR
STARTCHAR view_calendar_month
ENCODING 57957
SWIDTH 1728 0
DWIDTH 18 0
BBX 14 12 2 0
BITMAP
FFFC
FFFC
FFFC
DB6C
FFFC
FFFC
DB6C
FFFC
FFFC
DB6C
FFFC
FFFC
ENDCHAR
STARTCHAR calendar_small
ENCODING 57958
SWIDTH 1728 0
DWIDTH 18 0
BBX 15 14 2 -2
BITMAP
6DB0
FFFE
FFFE
EDB6
EDB6
C006
DB6E
DB6E
C006
DB6E
DB6E
C006
FFFE
FFFE
ENDCHAR
STARTCHAR char57959
ENCODING 57959
SWIDTH 1728 0
DWIDTH 18 0
BBX 15 12 2 0
BITMAP
FFFE
FFFE
FFFE
C006
DB6E
DB6E
C006
DB6E
DB6E
C006
FFFE
FFFE
ENDCHAR
STARTCHAR editor_large
ENCODING 57960
SWIDTH 1728 0
DWIDTH 18 0
BBX 15 12 2 0
BITMAP
7FFC
FFFE
FFFE
C006
DFF6
DFF6
C006
DFF6
DFF6
C006
FFFE
FFFE
ENDCHAR
STARTCHAR char57961
ENCODING 57961
SWIDTH 1728 0
DWIDTH 18 0
BBX 15 12 2 0
BITMAP
FFFE
FFFE
FFFE
C006
DBF6
DBF6
C006
DBF6
DBF6
C006
FFFE
FFFE
ENDCHAR
STARTCHAR char57962
ENCODING 57962
SWIDTH 1728 0
DWIDTH 18 0
BBX 14 14 2 -2
BITMAP
6018
FFFC
DFEC
FFFC
FFFC
DB6C
FFFC
FFFC
DB6C
FFFC
FFFC
DB6C
FFFC
FFFC
ENDCHAR
STARTCHAR layout_deck
ENCODING 57963
SWIDTH 1728 0
DWIDTH 18 0
BBX 12 12 3 0
BITMAP
FDF0
FDF0
FDF0
FDF0
FDF0
FDF0
FDF0
FDF0
FDF0
FDF0
FDF0
FDF0
ENDCHAR
STARTCHAR char57964
ENCODING 57964
SWIDTH 1728 0
DWIDTH 18 0
BBX 14 14 2 -2
BITMAP
FFFC
FFFC
FFFC
C30C
C30C
C30C
C30C
C30C
C30C
C30C
C30C
C30C
FFFC
FFFC
ENDCHAR
STARTCHAR web_invert
ENCODING 57965
SWIDTH 1728 0
DWIDTH 18 0
BBX 12 12 3 0
BITMAP
1F80
7FE0
79E0
FBF0
FBF0
DBF0
D9B0
F9B0
F9B0
7C60
7FE0
1F80
ENDCHAR
STARTCHAR char57966
ENCODING 57966
SWIDTH 1728 0
DWIDTH 18 0
BBX 8 12 5 0
BITMAP
7E
FF
FB
C7
C7
C3
66
7E
7E
7E
3C
18
ENDCHAR
STARTCHAR keyboard_layout
ENCODING 57967
SWIDTH 1728 0
DWIDTH 18 0
BBX 18 12 0 0
BITMAP
FFFFC0
FFFFC0
DB60C0
C006C0
FB6EC0
FB6EC0
C000C0
DBF6C0
DBF6C0
C000C0
FFFFC0
FFFFC0
ENDCHAR
STARTCHAR Quarter
ENCODING 57968
SWIDTH 1728 0
DWIDTH 18 0
BBX 5 11 6 0
BITMAP
18
18
18
18
18
18
18
18
F8
F8
F8
ENDCHAR
STARTCHAR Eighth
ENCODING 57969
SWIDTH 1728 0
DWIDTH 18 0
BBX 8 11 5 0
BITMAP
1E
1F
1B
1B
1B
18
18
18
F8
F8
F8
ENDCHAR
STARTCHAR Beamed
ENCODING 57970
SWIDTH 1728 0
DWIDTH 18 0
BBX 8 11 5 0
BITMAP
7F
7F
63
63
63
63
63
63
E7
E7
E7
ENDCHAR
STARTCHAR Beamed
ENCODING 57971
SWIDTH 1728 0
DWIDTH 18 0
BBX 8 11 5 0
BITMAP
7F
7F
7F
73
7F
7F
7F
63
E7
E7
E7
ENDCHAR
STARTCHAR Music
ENCODING 57972
SWIDTH 1728 0
DWIDTH 18 0
BBX 5 11 6 0
BITMAP
C0
C0
C0
C0
C0
C0
F8
F8
D8
F8
F0
ENDCHAR
STARTCHAR Music
ENCODING 57973
SWIDTH 1728 0
DWIDTH 18 0
BBX 6 12 6 0
BITMAP
C0
CC
CC
DC
FC
EC
DC
FC
EC
CC
CC
0C
ENDCHAR
STARTCHAR Music
ENCODING 57974
SWIDTH 1728 0
DWIDTH 18 0
BBX 8 12 5 0
BITMAP
06
27
67
7E
FE
E6
67
7F
7E
E6
E4
60
ENDCHAR
STARTCHAR char57975
ENCODING 57975
SWIDTH 1728 0
DWIDTH 18 0
BBX 12 14 3 -2
BITMAP
0F00
1F80
1F80
7FE0
7FE0
7FE0
7FE0
7FE0
7FE0
FFF0
FFF0
0000
0F00
0F00
ENDCHAR
STARTCHAR char57975
ENCODING 57976
SWIDTH 1728 0
DWIDTH 18 0
BBX 12 14 3 -2
BITMAP
CF00
FF80
7F80
1FE0
3FE0
6FE0
7BE0
7BE0
7DE0
FFF0
FF70
0030
0F10
0F00
ENDCHAR
STARTCHAR char57977
ENCODING 57977
SWIDTH 1728 0
DWIDTH 18 0
BBX 15 11 2 0
BITMAP
0FFE
1FFE
1FFE
7F6E
FFFE
FFBE
FFFE
7F6E
1FFE
1FFE
0FFE
ENDCHAR
STARTCHAR char57978
ENCODING 57978
SWIDTH 1728 0
DWIDTH 18 0
BBX 12 12 3 0
BITMAP
FF80
FFF0
DBF0
DBB0
DBB0
DBB0
DBB0
DBF0
DBE0
FF80
FF80
FF80
ENDCHAR
STARTCHAR char57979
ENCODING 57979
SWIDTH 1728 0
DWIDTH 18 0
BBX 9 9 5 0
BITMAP
E000
FF80
FF80
FF80
FF80
FF80
FF80
FF80
FF80
ENDCHAR
STARTCHAR char57979
ENCODING 57980
SWIDTH 1728 0
DWIDTH 18 0
BBX 11 11 3 0
BITMAP
E000
FFE0
FFE0
FFE0
FFE0
FFE0
FFE0
FFE0
FFE0
FFE0
FFE0
ENDCHAR
STARTCHAR char57981
ENCODING 57981
SWIDTH 1728 0
DWIDTH 18 0
BBX 15 12 2 0
BITMAP
1FF0
1FF0
1830
FFFE
FFFE
FFFE
C006
FC7E
FC7E
FFFE
FFFE
FFFE
ENDCHAR
STARTCHAR char57982
ENCODING 57982
SWIDTH 1728 0
DWIDTH 18 0
BBX 12 12 3 0
BITMAP
C000
C300
C300
C360
DB60
DB60
DB60
DB60
DB60
C000
FFF0
FFF0
ENDCHAR
STARTCHAR char57982
ENCODING 57983
SWIDTH 1728 0
DWIDTH 18 0
BBX 12 12 3 0
BITMAP
C300
C360
C360
DBE0
DFF0
DFF0
DFF0
DFF0
DFF0
C000
FFF0
FFF0
ENDCHAR
STARTCHAR char57984
ENCODING 57984
SWIDTH 1728 0
DWIDTH 18 0
BBX 15 12 2 0
BITMAP
FFFE
FFFE
C006
C006
C006
C006
C006
C006
C006
01F0
FFFE
FFFE
ENDCHAR
STARTCHAR char57985
ENCODING 57985
SWIDTH 1728 0
DWIDTH 18 0
BBX 11 11 3 0
BITMAP
FFE0
FFE0
FFE0
FF60
FFE0
FEE0
FFE0
DBE0
EFE0
FFE0
FFE0
ENDCHAR
STARTCHAR char57985
ENCODING 57986
SWIDTH 1728 0
DWIDTH 18 0
BBX 11 11 3 0
BITMAP
FFE0
FFE0
FFE0
FFE0
FFE0
FBE0
FFE0
FFE0
FFE0
FFE0
FFE0
ENDCHAR
STARTCHAR char57987
ENCODING 57987
SWIDTH 1728 0
DWIDTH 18 0
BBX 11 11 3 0
BITMAP
1FE0
DFE0
DFE0
DFE0
DFE0
DFE0
DFE0
DFE0
C000
FFC0
FFC0
ENDCHAR
STARTCHAR char57988
ENCODING 57988
SWIDTH 1728 0
DWIDTH 18 0
BBX 11 11 3 0
BITMAP
FF00
FF60
FF60
FF60
FF60
FF60
FF60
FF60
0060
7FE0
7FE0
ENDCHAR
STARTCHAR char57989
ENCODING 57989
SWIDTH 1728 0
DWIDTH 18 0
BBX 11 11 3 0
BITMAP
FFC0
FFC0
C000
DFE0
DFE0
DFE0
DFE0
DFE0
DFE0
DFE0
1FE0
ENDCHAR
STARTCHAR char57990
ENCODING 57990
SWIDTH 1728 0
DWIDTH 18 0
BBX 11 11 3 0
BITMAP
7FE0
7FE0
0060
FF60
FF60
FF60
FF60
FF60
FF60
FF60
FF00
ENDCHAR
STARTCHAR char57991
ENCODING 57991
SWIDTH 1728 0
DWIDTH 18 0
BBX 15 14 2 -2
BITMAP
7FF0
7FFE
7FFE
7FF6
7FF6
7FF6
7FFC
7FFC
7FF0
3FF0
1FE0
0000
FFFC
FFFC
ENDCHAR
STARTCHAR char57992
ENCODING 57992
SWIDTH 1728 0
DWIDTH 18 0
BBX 12 12 3 0
BITMAP
CF30
FFF0
7FE0
79E0
FFF0
EF70
EF70
FFF0
79E0
7FE0
FFF0
CF30
ENDCHAR
STARTCHAR char57993
ENCODING 57993
SWIDTH 1728 0
DWIDTH 18 0
BBX 9 9 5 0
BITMAP
DD80
FF80
7F00
E380
E380
E380
7F00
FF80
DD80
ENDCHAR
STARTCHAR char57994
ENCODING 57994
SWIDTH 1728 0
DWIDTH 18 0
BBX 14 14 2 -2
BITMAP
1FE0
3FF0
7FF8
FFDC
FFFC
FC7C
FB7C
FB7C
F8FC
FFFC
EFFC
7FF8
3FF0
1FE0
ENDCHAR
STARTCHAR char57995
ENCODING 57995
SWIDTH 1728 0
DWIDTH 18 0
BBX 12 12 3 0
BITMAP
1F80
7FE0
7FE0
F9F0
FFF0
EFF0
EFF0
FFF0
F9F0
7FE0
7FE0
1F80
ENDCHAR
STARTCHAR char57996
ENCODING 57996
SWIDTH 1728 0
DWIDTH 18 0
BBX 12 12 3 0
BITMAP
7FE0
FFF0
FFF0
FFF0
FFF0
FFF0
FFF0
FFF0
7FE0
0380
03E0
01E0
ENDCHAR
STARTCHAR char57996
ENCODING 57997
SWIDTH 1728 0
DWIDTH 18 0
BBX 12 12 3 0
BITMAP
7FE0
FFF0
FFF0
FFF0
FFF0
FFF0
FFF0
FFF0
7FE0
1C00
7C00
7800
ENDCHAR
STARTCHAR char57996
ENCODING 57998
SWIDTH 1728 0
DWIDTH 18 0
BBX 14 15 3 -2
BITMAP
C000
E000
6000
1FE0
FFF0
EFF8
FBF8
FFF8
FCF8
FF78
FFF8
7FD8
1C0C
3C0C
7800
ENDCHAR
STARTCHAR char57999
ENCODING 57999
SWIDTH 1728 0
DWIDTH 18 0
BBX 15 15 2 -2
BITMAP
0030
003C
003C
FFFE
FFFE
003C
0030
1830
1800
7800
FFFE
FFFE
7800
7800
1800
ENDCHAR
STARTCHAR char57999
ENCODING 58000
SWIDTH 1728 0
DWIDTH 18 0
BBX 15 15 2 -2
BITMAP
0030
003C
003C
FFFE
FFFE
003C
0030
1830
1800
7800
FFFE
FFFE
7800
7800
1800
ENDCHAR
STARTCHAR char57999
ENCODING 58001
SWIDTH 1728 0
DWIDTH 18 0
BBX 14 15 2 -2
BITMAP
0060
0070
0078
FFFC
FFFC
0078
0060
1860
1800
7800
FFFC
FFFC
7800
3800
1800
ENDCHAR
STARTCHAR char57999
ENCODING 58002
SWIDTH 1728 0
DWIDTH 18 0
BBX 15 11 2 0
BITMAP
0030
0038
003C
FFFE
FFFE
0000
FFFE
FFFE
7800
3800
1800
ENDCHAR
STARTCHAR char57999
ENCODING 58003
SWIDTH 1728 0
DWIDTH 18 0
BBX 15 12 2 0
BITMAP
0030
003C
003C
FFFE
FFFE
0000
0000
FFFE
FFFE
7800
7800
1800
ENDCHAR
STARTCHAR char57999
ENCODING 58004
SWIDTH 1728 0
DWIDTH 18 0
BBX 12 12 3 0
BITMAP
0180
01E0
01E0
FFF0
FFF0
0000
0000
FFF0
FFF0
7800
7800
1800
ENDCHAR
STARTCHAR char58005
ENCODING 58005
SWIDTH 1728 0
DWIDTH 18 0
BBX 15 12 2 0
BITMAP
1830
187C
187C
19FE
19FE
1830
1830
FF30
FF30
7C30
7C30
1830
ENDCHAR
STARTCHAR char58005
ENCODING 58006
SWIDTH 1728 0
DWIDTH 18 0
BBX 18 12 0 0
BITMAP
180600
180F80
180F80
183FC0
183FC0
180600
180600
FF0600
FF0600
7C0600
7C0600
180600
ENDCHAR
STARTCHAR char58005
ENCODING 58007
SWIDTH 1728 0
DWIDTH 18 0
BBX 12 12 3 0
BITMAP
1980
19E0
19E0
19F0
19F0
1980
1980
F980
F980
7980
7980
1980
ENDCHAR
STARTCHAR char58005
ENCODING 58008
SWIDTH 1728 0
DWIDTH 18 0
BBX 15 12 2 0
BITMAP
1830
183C
183C
183E
183E
1830
1830
F830
F830
7830
7830
1830
ENDCHAR
STARTCHAR char58009
ENCODING 58009
SWIDTH 1728 0
DWIDTH 18 0
BBX 18 11 0 0
BITMAP
0007C0
0087C0
0181C0
0306C0
070EC0
0C0C00
DC3800
D83000
E06000
F84000
F80000
ENDCHAR
STARTCHAR char58009
ENCODING 58010
SWIDTH 1728 0
DWIDTH 18 0
BBX 18 14 0 -2
BITMAP
006000
00E000
018000
030FC0
870FC0
CC07C0
F807C0
F807C0
F80CC0
FC3840
FC3000
006000
01C000
018000
ENDCHAR
STARTCHAR char58009
ENCODING 58011
SWIDTH 1728 0
DWIDTH 18 0
BBX 18 11 0 0
BITMAP
0007C0
0087C0
0181C0
0306C0
070EC0
0C0C00
DC3800
D83000
E06000
F84000
F80000
ENDCHAR
STARTCHAR char58009
ENCODING 58012
SWIDTH 1728 0
DWIDTH 18 0
BBX 18 11 0 0
BITMAP
0007C0
0007C0
0001C0
0306C0
070EC0
0C0C00
DC3800
D83000
E00000
F80000
F80000
ENDCHAR
STARTCHAR char58013
ENCODING 58013
SWIDTH 1728 0
DWIDTH 18 0
BBX 12 11 3 0
BITMAP
0180
01C0
01E0
C1F0
FFF0
7F80
7F80
7F80
6180
6180
6180
ENDCHAR
STARTCHAR char58014
ENCODING 58014
SWIDTH 1728 0
DWIDTH 18 0
BBX 14 12 2 0
BITMAP
FC78
FCF8
C0F8
C3E0
C7EC
CFCC
DB0C
DF0C
DC0C
C00C
FFFC
FFFC
ENDCHAR
STARTCHAR char58014
ENCODING 58015
SWIDTH 1728 0
DWIDTH 18 0
BBX 14 14 2 -2
BITMAP
FF1C
FF7C
C07C
C0F8
C3F8
C3E0
CFCC
CFCC
DB0C
DF0C
DC0C
C00C
FFFC
FFFC
ENDCHAR
STARTCHAR char58016
ENCODING 58016
SWIDTH 1728 0
DWIDTH 18 0
BBX 11 11 3 0
BITMAP
00E0
03E0
03E0
0FC0
1FC0
1F00
7F00
7E00
D800
F800
E000
ENDCHAR
STARTCHAR char58017
ENCODING 58017
SWIDTH 1728 0
DWIDTH 18 0
BBX 18 14 0 -2
BITMAP
F80000
FFFFC0
1FFFC0
0FFF80
0FFF80
0FFF80
03FE00
03FE00
03FE00
03FE00
000000
03FE00
03FE00
030600
ENDCHAR
STARTCHAR char58018
ENCODING 58018
SWIDTH 1728 0
DWIDTH 18 0
BBX 11 14 3 -2
BITMAP
CE60
E4E0
60C0
1F00
1F00
1F00
1F00
1F00
1F00
1F00
1F00
1B00
1B00
1B00
ENDCHAR
STARTCHAR char58019
ENCODING 58019
SWIDTH 1728 0
DWIDTH 18 0
BBX 17 15 2 -2
BITMAP
01FC00
FFFC00
FFCC00
DBFC00
FFFC00
FFCC00
DBFC00
FFFF80
FFCF80
DBFD80
FFFF80
FFFF80
DBFD80
FFFF80
FFFF80
ENDCHAR
STARTCHAR char58020
ENCODING 58020
SWIDTH 1728 0
DWIDTH 18 0
BBX 11 17 5 -2
BITMAP
0E00
1F00
1B00
FFE0
FFE0
C060
FFE0
FFE0
FFE0
FFE0
FFE0
FFE0
FFE0
FFE0
FFE0
FFE0
FFE0
ENDCHAR
STARTCHAR char58020
ENCODING 58021
SWIDTH 1728 0
DWIDTH 18 0
BBX 11 17 5 -2
BITMAP
0E00
1F00
1B00
FFE0
FFE0
C060
FFE0
FFE0
FF60
FFE0
FFE0
DBE0
FFE0
EFE0
FFE0
FFE0
FFE0
ENDCHAR
STARTCHAR char57998
ENCODING 58022
SWIDTH 1728 0
DWIDTH 18 0
BBX 11 11 3 0
BITMAP
1F00
1F00
1F00
7FC0
7FC0
1F00
1F00
0E00
0000
FFE0
FFE0
ENDCHAR
STARTCHAR char57998
ENCODING 58023
SWIDTH 1728 0
DWIDTH 18 0
BBX 12 11 3 0
BITMAP
1F80
1F80
1F80
7FE0
7FE0
1F80
1F80
0F00
0000
FFF0
FFF0
ENDCHAR
STARTCHAR char58024
ENCODING 58024
SWIDTH 1728 0
DWIDTH 18 0
BBX 14 17 2 -3
BITMAP
0CC0
1CE0
1CE0
7CD8
FCDC
DCCC
FCDC
FCFC
D87C
DCFC
CCFC
CCFC
ECFC
6CF8
1CE0
1CE0
0CC0
ENDCHAR
STARTCHAR char58025
ENCODING 58025
SWIDTH 1728 0
DWIDTH 18 0
BBX 18 11 0 0
BITMAP
FC07C0
FC7FC0
CC7E00
FFF000
FFF000
038000
FFF000
FFF000
CC7E00
FC7FC0
FC07C0
ENDCHAR
STARTCHAR char58025
ENCODING 58026
SWIDTH 1728 0
DWIDTH 18 0
BBX 17 11 0 0
BITMAP
F81F80
F8FF80
D9FC00
FFE000
FFE000
0F0000
FFE000
FFE000
D9FC00
F8FF80
F81F80
ENDCHAR
STARTCHAR char58023
ENCODING 58027
SWIDTH 1728 0
DWIDTH 18 0
BBX 12 15 3 -2
BITMAP
1F60
1F70
1F70
DF00
DFF0
DFF0
DFF0
DFF0
DFF0
DFF0
DFF0
DFF0
C000
FFE0
FFE0
ENDCHAR
STARTCHAR char58028
ENCODING 58028
SWIDTH 1728 0
DWIDTH 18 0
BBX 3 17 8 -3
BITMAP
E0
E0
E0
00
E0
E0
E0
E0
00
E0
E0
E0
E0
00
E0
E0
E0
ENDCHAR
STARTCHAR char58027
ENCODING 58029
SWIDTH 1728 0
DWIDTH 18 0
BBX 17 3 0 3
BITMAP
EF7B80
EF7B80
EF7B80
ENDCHAR
STARTCHAR char58030
ENCODING 58030
SWIDTH 1728 0
DWIDTH 18 0
BBX 18 11 0 0
BITMAP
03F000
07F800
0FFC00
7F3F80
FF3FC0
FC0FC0
FF3FC0
7F3F80
0FFC00
07F800
03F000
ENDCHAR
STARTCHAR char58030
ENCODING 58031
SWIDTH 1728 0
DWIDTH 18 0
BBX 18 12 0 0
BITMAP
0C0000
0FF000
03F000
0DFC00
7FFF80
7F7F80
FC3FC0
FF3FC0
7F0F80
0FF600
0FF780
03F180
ENDCHAR
STARTCHAR char58032
ENCODING 58032
SWIDTH 1728 0
DWIDTH 18 0
BBX 15 14 2 -2
BITMAP
0060
00F0
01F0
03FC
07FE
0FFE
1BFC
1BFC
61F0
38F0
1860
0D80
FFFE
FFFE
ENDCHAR
STARTCHAR char58033
ENCODING 58033
SWIDTH 1728 0
DWIDTH 18 0
BBX 15 15 2 -2
BITMAP
F83E
F83E
E00E
D836
DC76
0C60
0380
0380
0380
0C60
DC76
D836
E00E
F83E
F83E
ENDCHAR
STARTCHAR char58033
ENCODING 58034
SWIDTH 1728 0
DWIDTH 18 0
BBX 12 12 3 0
BITMAP
F9F0
F9F0
E070
D9B0
DFB0
0F00
0F00
DFB0
D9B0
E070
F9F0
F9F0
ENDCHAR
STARTCHAR char58035
ENCODING 58035
SWIDTH 1728 0
DWIDTH 18 0
BBX 14 15 3 -2
BITMAP
00FC
FCFC
FC1C
C06C
C0EC
C0CC
C300
C710
CC18
C018
C018
C018
C018
FFF8
FFF8
ENDCHAR
STARTCHAR char58036
ENCODING 58036
SWIDTH 1728 0
DWIDTH 18 0
BBX 17 15 0 -2
BITMAP
01C000
03E000
03E000
03E000
07F000
0F7800
0F7800
1F7C00
1F7C00
1F7C00
3FFE00
7FFF00
7F7F00
FFFF80
FFFF80
ENDCHAR
STARTCHAR U+E02D
ENCODING 58037
SWIDTH 1728 0
DWIDTH 18 0
BBX 12 12 3 0
BITMAP
FF00
FF80
0180
FC60
FF70
0330
F9B0
FDB0
0DB0
EDB0
EDB0
EDB0
ENDCHAR
STARTCHAR U+E02D
ENCODING 58038
SWIDTH 1728 0
DWIDTH 18 0
BBX 12 12 3 0
BITMAP
0FF0
1FF0
1800
63F0
EFF0
CC00
D9F0
DBF0
DB00
DB70
DB70
DB70
ENDCHAR
STARTCHAR char57807
ENCODING 58039
SWIDTH 1728 0
DWIDTH 18 0
BBX 12 15 3 -2
BITMAP
FF80
FFE0
C360
C330
C3F0
C3F0
C030
C030
C030
C030
C030
C030
C030
FFF0
FFF0
ENDCHAR
STARTCHAR char57807
ENCODING 58040
SWIDTH 1728 0
DWIDTH 18 0
BBX 12 15 3 -2
BITMAP
FF00
FF80
CD80
CC60
CC70
CC30
CFF0
CFF0
C030
C030
C030
C030
C030
FFF0
FFF0
ENDCHAR
STARTCHAR char57807
ENCODING 58041
SWIDTH 1728 0
DWIDTH 18 0
BBX 12 15 3 -2
BITMAP
FD80
FDE0
FDE0
FDF0
FDF0
FC00
FFF0
FFF0
FFF0
FFF0
FFF0
FFF0
FFF0
FFF0
FFF0
ENDCHAR
STARTCHAR char57807
ENCODING 58042
SWIDTH 1728 0
DWIDTH 18 0
BBX 12 15 3 -2
BITMAP
FB00
FB80
FB80
FBE0
FBF0
FBF0
F800
FFF0
FFF0
FFF0
FFF0
FFF0
FFF0
FFF0
FFF0
ENDCHAR
STARTCHAR char58043
ENCODING 58043
SWIDTH 1728 0
DWIDTH 18 0
BBX 9 15 5 -2
BITMAP
F800
FF80
FF80
FF80
FF80
FF80
FF80
FF80
CF80
C000
C000
C000
C000
C000
C000
ENDCHAR
STARTCHAR char58044
ENCODING 58044
SWIDTH 1728 0
DWIDTH 18 0
BBX 11 14 3 -2
BITMAP
1F00
3F80
60C0
CE60
DF60
DB60
C360
C360
6E60
3CE0
18C0
0300
1F00
1E00
ENDCHAR
STARTCHAR char58045
ENCODING 58045
SWIDTH 1728 0
DWIDTH 18 0
BBX 14 14 2 -2
BITMAP
FFFC
FFFC
7FF8
1FE0
1FE0
0FC0
0300
0300
0300
0300
0300
0300
1FE0
1FE0
ENDCHAR
STARTCHAR char58045
ENCODING 58046
SWIDTH 1584 0
DWIDTH 17 0
BBX 15 14 2 0
BITMAP
003C
FFFE
FFE6
7FF6
7FFE
1FEC
0F80
0F80
0300
0300
0300
0300
1FE0
1FE0
ENDCHAR
STARTCHAR char58047
ENCODING 58047
SWIDTH 1728 0
DWIDTH 18 0
BBX 15 17 2 -3
BITMAP
1F00
FF80
FF80
03F0
03FE
03FE
0F7C
0F7C
0F30
1E10
1C00
1C00
7C00
7800
7800
F000
E000
ENDCHAR
STARTCHAR char58048
ENCODING 58048
SWIDTH 1728 0
DWIDTH 18 0
BBX 15 9 2 0
BITMAP
0F00
DFFE
DFFE
DFE0
DFE0
DFE0
DFE0
DFE0
DF80
ENDCHAR
STARTCHAR char58049
ENCODING 58049
SWIDTH 1728 0
DWIDTH 18 0
BBX 14 14 2 -2
BITMAP
1FE0
3FF0
6018
C00C
C00C
C00C
DCEC
DCEC
DCEC
FCFC
7CF8
1CE0
1CE0
1CE0
ENDCHAR
STARTCHAR char58050
ENCODING 58050
SWIDTH 1728 0
DWIDTH 18 0
BBX 15 15 2 -2
BITMAP
7C00
FF00
FF00
FF80
FFE0
FFE0
7FF0
7FFC
1FFC
0FF0
0FF0
03F0
018C
018E
0006
ENDCHAR
STARTCHAR char58051
ENCODING 58051
SWIDTH 1728 0
DWIDTH 18 0
BBX 17 17 0 -3
BITMAP
C00000
F80000
780000
7F0000
7FE000
1FE000
1FFC00
1FFF80
0FFF80
0FFF80
0FFF00
03FC00
03FF00
03FF00
01EF80
01EF80
01C380
ENDCHAR
STARTCHAR char58052
ENCODING 58052
SWIDTH 1728 0
DWIDTH 18 0
BBX 14 15 3 -2
BITMAP
FFE0
FFFC
FFFC
FFEC
FFEC
000C
03F8
07F0
0F00
0F00
0F00
0F00
0F00
0F00
0F00
ENDCHAR
STARTCHAR char58053
ENCODING 58053
SWIDTH 1728 0
DWIDTH 18 0
BBX 18 11 0 0
BITMAP
1BFE00
3FFE00
7C0600
FF0600
FF0600
180600
183FC0
183FC0
180F80
1FFF00
1FF600
ENDCHAR
STARTCHAR char58053
ENCODING 58054
SWIDTH 1728 0
DWIDTH 18 0
BBX 18 14 0 -2
BITMAP
03FE00
13FE00
180600
7C0600
FE0600
FF0600
180600
180600
183FC0
181FC0
180F80
180600
1FF200
1FF000
ENDCHAR
STARTCHAR char58053
ENCODING 58055
SWIDTH 1728 0
DWIDTH 18 0
BBX 18 14 0 -2
BITMAP
01FE00
11FE00
180600
7C0600
FE0600
FF0600
180600
180600
183FC0
181FC0
180F80
180600
1FE200
1FE000
ENDCHAR
STARTCHAR char58053
ENCODING 58056
SWIDTH 1728 0
DWIDTH 18 0
BBX 18 14 0 -2
BITMAP
01FC00
11FE00
180E00
7C0600
FE0600
FF0600
180600
180600
183FC0
181FC0
180F80
1C0600
1FE200
0FE000
ENDCHAR
STARTCHAR char58057
ENCODING 58057
SWIDTH 1728 0
DWIDTH 18 0
BBX 14 14 2 -2
BITMAP
1860
3C70
7C78
FF7C
FF7C
0078
1860
1860
7800
FBFC
FBFC
78F8
38F0
1860
ENDCHAR
STARTCHAR char58057
ENCODING 58058
SWIDTH 1728 0
DWIDTH 18 0
BBX 14 14 2 -2
BITMAP
1860
3C70
7C78
FFFC
FFFC
1878
1860
1860
7860
FFFC
FFFC
78F8
38F0
1860
ENDCHAR
STARTCHAR char58059
ENCODING 58059
SWIDTH 1728 0
DWIDTH 18 0
BBX 15 15 2 -2
BITMAP
FC00
FC00
E000
FC00
FC00
E000
FC00
FC00
E000
FDB6
FDB6
EDB6
DFFE
FFFE
7FFE
ENDCHAR
STARTCHAR char58060
ENCODING 58060
SWIDTH 1728 0
DWIDTH 18 0
BBX 17 8 0 2
BITMAP
DB6D80
DB6D80
DB6D80
FFFF80
FFFF80
FFFF80
FFFF80
FFFF80
ENDCHAR
STARTCHAR char58061
ENCODING 58061
SWIDTH 1728 0
DWIDTH 18 0
BBX 15 17 2 -3
BITMAP
FFFE
FFFE
FFE6
FFFE
FFFE
0000
FFFE
FFFE
FFE6
FFFE
FFFE
0000
FFFE
FFFE
FFE6
FFFE
FFFE
ENDCHAR
STARTCHAR char58062
ENCODING 58062
SWIDTH 1728 0
DWIDTH 18 0
BBX 12 14 3 -2
BITMAP
7FF0
7FF0
6030
0C30
FE30
FF30
FFB0
FFB0
FF30
FE30
0C30
6030
7FF0
7FF0
ENDCHAR
STARTCHAR char58063
ENCODING 58063
SWIDTH 1728 0
DWIDTH 18 0
BBX 8 11 5 0
BITMAP
18
3C
7E
FF
FF
00
FF
FF
7E
3C
18
ENDCHAR
STARTCHAR char58063
ENCODING 58064
SWIDTH 1728 0
DWIDTH 18 0
BBX 8 12 5 0
BITMAP
18
3C
7E
FF
FF
00
00
FF
FF
7E
3C
18
ENDCHAR
STARTCHAR char58065
ENCODING 58065
SWIDTH 1728 0
DWIDTH 18 0
BBX 18 8 0 2
BITMAP
000C00
001E00
003600
F861C0
F861C0
0D8000
078000
030000
ENDCHAR
STARTCHAR char58065
ENCODING 58066
SWIDTH 1728 0
DWIDTH 18 0
BBX 18 14 0 -2
BITMAP
000C00
000C00
000C00
003600
003600
003600
F861C0
F861C0
0D8000
0D8000
0D8000
030000
030000
030000
ENDCHAR
STARTCHAR char58067
ENCODING 58067
SWIDTH 1728 0
DWIDTH 18 0
BBX 17 17 0 -3
BITMAP
03E000
03E000
03E000
03E000
03E000
01C000
01C000
3FFE00
7FFF00
7FFF00
61C300
61C300
FBEF80
FBEF80
FBEF80
FBEF80
FBEF80
ENDCHAR
STARTCHAR char58068
ENCODING 58068
SWIDTH 1728 0
DWIDTH 18 0
BBX 18 14 0 -2
BITMAP
183C00
183C00
180000
183E00
183E00
180000
183E00
183E00
180000
FF3F80
FF3F80
7C0000
3C3FC0
183FC0
ENDCHAR
STARTCHAR char58068
ENCODING 58069
SWIDTH 1728 0
DWIDTH 18 0
BBX 18 14 0 -2
BITMAP
183FC0
183FC0
180000
183F80
183F80
180000
183E00
183E00
180000
FF3E00
FF3E00
7C0000
3C3C00
183C00
ENDCHAR
STARTCHAR char58070
ENCODING 58070
SWIDTH 1728 0
DWIDTH 18 0
BBX 17 15 0 -2
BITMAP
E1E000
E0E000
C06000
C06000
C06380
C06380
C06380
E0E380
61C300
1F0300
1F0300
0C0300
030C00
03FC00
01F800
ENDCHAR
STARTCHAR char58071
ENCODING 58071
SWIDTH 1728 0
DWIDTH 18 0
BBX 12 12 3 0
BITMAP
FFE0
FFE0
FFE0
0000
7FF0
7FF0
7FF0
7FF0
0000
FFE0
FFE0
FFE0
ENDCHAR
STARTCHAR char58072
ENCODING 58072
SWIDTH 1728 0
DWIDTH 18 0
BBX 18 17 0 -3
BITMAP
01F000
01F800
003C00
180C00
3C0E00
7C0E00
FF0600
FF0600
180600
183FC0
183FC0
1C0F80
1C0F00
0C0600
0F0000
07E000
03E000
ENDCHAR
STARTCHAR char57981
ENCODING 58073
SWIDTH 1728 0
DWIDTH 18 0
BBX 15 12 2 0
BITMAP
1FF0
1FF0
1830
FFFE
FFFE
E38E
0000
E38E
E38E
FFFE
FFFE
FFFE
ENDCHAR
STARTCHAR char57981
ENCODING 58074
SWIDTH 1728 0
DWIDTH 18 0
BBX 15 14 2 -2
BITMAP
1FF0
1FF0
1830
FFFE
FFFE
FFFE
E38E
E38E
0000
E38E
E38E
FFFE
FFFE
FFFE
ENDCHAR
STARTCHAR char58075
ENCODING 58075
SWIDTH 1728 0
DWIDTH 18 0
BBX 18 15 0 -2
BITMAP
01E000
0FFC00
0FFC00
7FFF80
FFFFC0
FFFFC0
79E780
79E780
79E780
79E780
FFFFC0
FFFFC0
000000
FFFFC0
FFFFC0
ENDCHAR
STARTCHAR char58076
ENCODING 58076
SWIDTH 1728 0
DWIDTH 18 0
BBX 12 15 3 -2
BITMAP
0F00
1F80
1980
6060
6060
6060
FFF0
FFF0
FFF0
FFF0
FFF0
FFF0
FFF0
FFF0
FFF0
ENDCHAR
STARTCHAR char57998
ENCODING 58077
SWIDTH 1728 0
DWIDTH 18 0
BBX 11 11 3 0
BITMAP
FFE0
FFE0
0000
0E00
1F00
1F00
7FC0
7FC0
1F00
1F00
1F00
ENDCHAR
STARTCHAR char57998
ENCODING 58078
SWIDTH 1728 0
DWIDTH 18 0
BBX 14 12 2 0
BITMAP
FFFC
FFFC
0000
0300
0780
0FC0
1FE0
3FF0
7FF8
1FE0
1FE0
1FE0
ENDCHAR
STARTCHAR char58079
ENCODING 58079
SWIDTH 1728 0
DWIDTH 18 0
BBX 15 12 2 0
BITMAP
6DB6
FFFE
DB6C
0000
6DB6
6DB6
DB6C
DB6C
0000
6DB6
FFFE
DB6C
ENDCHAR
STARTCHAR char58080
ENCODING 58080
SWIDTH 1728 0
DWIDTH 18 0
BBX 14 15 2 -2
BITMAP
0300
0780
0FC0
1FE0
3FF0
7FF8
C00C
DFEC
DFEC
DFEC
DFEC
C00C
DFEC
DFEC
DFEC
ENDCHAR
STARTCHAR char58080
ENCODING 58081
SWIDTH 1728 0
DWIDTH 18 0
BBX 14 15 2 -2
BITMAP
0300
0780
0FC0
1FE0
3FF0
7FF8
C00C
DFEC
DFEC
C00C
DFEC
DFEC
C00C
DFEC
DFEC
ENDCHAR
STARTCHAR char58082
ENCODING 58082
SWIDTH 1728 0
DWIDTH 18 0
BBX 12 11 3 0
BITMAP
FFE0
FFE0
C000
FFF0
FFF0
FFF0
FFF0
FFB0
FFF0
FFF0
FFF0
ENDCHAR
STARTCHAR char58083
ENCODING 58083
SWIDTH 1728 0
DWIDTH 18 0
BBX 9 15 5 -2
BITMAP
FF80
FF80
FF80
FF80
FF80
FF80
FF80
FF80
FF80
7F00
7F00
1C00
7F00
FF80
FF80
ENDCHAR
STARTCHAR char58083
ENCODING 58084
SWIDTH 1728 0
DWIDTH 18 0
BBX 9 15 5 -2
BITMAP
FF80
FF80
C180
C180
FF80
FF80
FF80
FF80
FF80
7F00
7F00
1C00
7F00
FF80
FF80
ENDCHAR
STARTCHAR char58085
ENCODING 58085
SWIDTH 1728 0
DWIDTH 18 0
BBX 9 14 5 -2
BITMAP
FF80
FF80
C180
6300
7F00
1C00
1C00
1C00
1C00
7F00
6300
C180
FF80
FF80
ENDCHAR
STARTCHAR char58085
ENCODING 58086
SWIDTH 1728 0
DWIDTH 18 0
BBX 9 14 5 -2
BITMAP
FF80
FF80
C180
6300
7F00
1C00
1C00
1C00
1C00
7F00
7F00
FF80
FF80
FF80
ENDCHAR
STARTCHAR char58085
ENCODING 58087
SWIDTH 1728 0
DWIDTH 18 0
BBX 9 14 5 -2
BITMAP
FF80
FF80
FF80
7F00
7F00
1C00
1C00
1C00
1C00
7F00
7F00
FF80
FF80
FF80
ENDCHAR
STARTCHAR U+E015
ENCODING 58088
SWIDTH 1728 0
DWIDTH 18 0
BBX 12 12 3 0
BITMAP
1F80
7FE0
7BE0
FBF0
FBF0
FBF0
FDF0
FFF0
FF70
7FE0
7FE0
1F80
ENDCHAR
STARTCHAR U+E015
ENCODING 58089
SWIDTH 1728 0
DWIDTH 18 0
BBX 15 14 2 -2
BITMAP
600C
E7CE
CFE6
1DF0
3DF8
7DFC
7DFC
7DFC
7F7C
7FFC
7FBC
1FF0
1FF0
0FE0
ENDCHAR
STARTCHAR char58090
ENCODING 58090
SWIDTH 1728 0
DWIDTH 18 0
BBX 15 12 2 0
BITMAP
FFFE
FFFE
C006
DC06
DC06
D806
C036
C076
C076
C006
FFFE
FFFE
ENDCHAR
STARTCHAR char58091
ENCODING 58091
SWIDTH 1728 0
DWIDTH 18 0
BBX 12 11 3 0
BITMAP
FFF0
FFF0
C030
F9F0
FFF0
FFF0
FFF0
0000
F9F0
FFF0
FFF0
ENDCHAR
STARTCHAR char58092
ENCODING 58092
SWIDTH 1728 0
DWIDTH 18 0
BBX 14 11 2 0
BITMAP
FFFC
FFFC
FFFC
FFFC
EFFC
EFDC
EFDC
ECDC
ECDC
FFFC
FFFC
ENDCHAR
STARTCHAR char58093
ENCODING 58093
SWIDTH 1728 0
DWIDTH 18 0
BBX 14 14 2 -2
BITMAP
FFFC
FFFC
FCFC
FCFC
FCFC
FCFC
FFFC
FFFC
FCFC
FFFC
FFFC
7800
F800
E000
ENDCHAR
STARTCHAR char58093
ENCODING 58094
SWIDTH 1728 0
DWIDTH 18 0
BBX 17 17 0 -3
BITMAP
FFFF80
FFFF80
FFFF80
FF7F80
FF7F80
FF7F80
FF7F80
FF7F80
FF7F80
FFFF80
FFFF80
FF7F80
FFFF80
FFFF80
780000
F80000
E00000
ENDCHAR
STARTCHAR char58095
ENCODING 58095
SWIDTH 1728 0
DWIDTH 18 0
BBX 15 11 2 0
BITMAP
FFFE
FFFE
E03E
FFFE
FFFE
E1FE
FFFE
FFFE
E00E
FFFE
FFFE
ENDCHAR
STARTCHAR char57826
ENCODING 58096
SWIDTH 1728 0
DWIDTH 18 0
BBX 14 17 3 -3
BITMAP
7FFC
7FFC
000C
FFEC
FFEC
FFEC
FFEC
FFEC
FFEC
FFEC
FFEC
FFEC
FFEC
FBEC
E0EC
E0EC
C060
ENDCHAR
STARTCHAR char58097
ENCODING 58097
SWIDTH 1728 0
DWIDTH 18 0
BBX 18 11 0 0
BITMAP
003000
103200
183600
606180
E061C0
C060C0
E1C1C0
618180
1B8600
138200
030000
ENDCHAR
STARTCHAR char58098
ENCODING 58098
SWIDTH 1728 0
DWIDTH 18 0
BBX 14 8 2 2
BITMAP
006C
00FC
00D8
DB60
DB60
6CC0
3F80
1B00
ENDCHAR
STARTCHAR char58099
ENCODING 58099
SWIDTH 1728 0
DWIDTH 18 0
BBX 11 15 3 -2
BITMAP
FFE0
FFE0
DF60
FFE0
FFE0
DF60
FFE0
FFE0
DF60
FFE0
FFE0
DF60
FFE0
FFE0
DF60
ENDCHAR
STARTCHAR char58100
ENCODING 58100
SWIDTH 1728 0
DWIDTH 18 0
BBX 14 14 2 -2
BITMAP
7FF8
7FF8
0000
7FF8
FFFC
FFFC
FFFC
FFFC
FFFC
FFFC
6018
6018
7FF8
7FF8
ENDCHAR
STARTCHAR char58101
ENCODING 58101
SWIDTH 1728 0
DWIDTH 18 0
BBX 12 14 3 -2
BITMAP
1F80
FFF0
FFF0
0000
3FC0
7FE0
7FE0
7FE0
7FE0
7FE0
7FE0
7FE0
7FE0
7FE0
ENDCHAR
STARTCHAR char58101
ENCODING 58102
SWIDTH 1728 0
DWIDTH 18 0
BBX 18 14 0 -2
BITMAP
1F8000
FFF000
FFF000
000000
3FCFC0
7FEFC0
7FE000
7FE000
7FEE00
7FEE00
7FE000
7FEF80
7FEF00
7FE000
ENDCHAR
STARTCHAR char58103
ENCODING 58103
SWIDTH 1728 0
DWIDTH 18 0
BBX 15 9 2 2
BITMAP
C000
E180
6180
1B60
1F76
0C36
000E
003E
003E
ENDCHAR
STARTCHAR char58104
ENCODING 58104
SWIDTH 1728 0
DWIDTH 18 0
BBX 15 9 2 2
BITMAP
003E
003E
000E
0C36
1F76
1B60
6180
E180
C000
ENDCHAR
STARTCHAR char58105
ENCODING 58105
SWIDTH 1728 0
DWIDTH 18 0
BBX 14 14 2 -2
BITMAP
0FC0
0FC0
0FC0
0FC0
FFFC
FB7C
FFFC
FFFC
FB7C
FFFC
0FC0
0FC0
0FC0
0FC0
ENDCHAR
STARTCHAR char58106
ENCODING 58106
SWIDTH 1728 0
DWIDTH 18 0
BBX 11 11 3 0
BITMAP
FFE0
FFE0
FBE0
FBE0
FBE0
C060
FBE0
FBE0
FBE0
FFE0
FFE0
ENDCHAR
STARTCHAR char58106
ENCODING 58107
SWIDTH 1728 0
DWIDTH 18 0
BBX 14 14 3 -2
BITMAP
7FFC
7FFC
000C
FFEC
FFEC
FBEC
FBEC
FBEC
C06C
FBEC
FBEC
FBEC
FFEC
FFE0
ENDCHAR
STARTCHAR char58106
ENCODING 58108
SWIDTH 1728 0
DWIDTH 18 0
BBX 14 14 3 -2
BITMAP
7FFC
7FFC
000C
FFEC
FFEC
FFEC
FFEC
FFEC
FBEC
FFEC
EFEC
FFEC
FFEC
FFE0
ENDCHAR
STARTCHAR char58106
ENCODING 58109
SWIDTH 1728 0
DWIDTH 18 0
BBX 14 14 3 -2
BITMAP
7FFC
7FFC
000C
FFEC
FFEC
EFEC
E3EC
E3EC
E0EC
E3EC
E3EC
EFEC
FFEC
FFE0
ENDCHAR
STARTCHAR char58109
ENCODING 58110
SWIDTH 1728 0
DWIDTH 18 0
BBX 12 14 3 -2
BITMAP
01F0
81F0
C070
61B0
73B0
1B00
0C00
0C00
1B00
73B0
61B0
C070
81F0
01F0
ENDCHAR
STARTCHAR char58109
ENCODING 58111
SWIDTH 1728 0
DWIDTH 18 0
BBX 14 14 2 -2
BITMAP
C07C
E07C
601C
186C
1CEC
0CC0
0300
0300
0CC0
1CEC
186C
601C
E07C
C07C
ENDCHAR
STARTCHAR char58112
ENCODING 58112
SWIDTH 1728 0
DWIDTH 18 0
BBX 14 12 2 0
BITMAP
F87C
F87C
E01C
D86C
DC6C
0C00
0300
0300
0300
0300
0300
0300
ENDCHAR
STARTCHAR char58093
ENCODING 58113
SWIDTH 1728 0
DWIDTH 18 0
BBX 17 17 0 -3
BITMAP
FFFF80
FFFF80
FFFF80
E00380
FFFF80
FFFF80
F00F80
FFFF80
FFFF80
FFFF80
F00780
FFFF80
FFFF80
FFFF80
780000
F80000
E00000
ENDCHAR
STARTCHAR char58114
ENCODING 58114
SWIDTH 1728 0
DWIDTH 18 0
BBX 17 12 2 0
BITMAP
03FF80
03FF80
03FF80
000000
1FFC00
1FFC00
1FFC00
1FFC00
000000
FFE000
FFE000
FFE000
ENDCHAR
STARTCHAR char58115
ENCODING 58115
SWIDTH 1728 0
DWIDTH 18 0
BBX 12 17 3 -3
BITMAP
EF70
EF70
EF70
0000
E670
EF70
EF70
EF70
0000
EF70
EF70
EF70
E670
0000
0F00
0F00
0F00
ENDCHAR
STARTCHAR char58116
ENCODING 58116
SWIDTH 1728 0
DWIDTH 18 0
BBX 14 14 2 -2
BITMAP
7FF8
7FF8
0000
FFFC
FFFC
FCFC
FCFC
FCFC
E01C
F87C
F87C
FCFC
FFFC
FFFC
ENDCHAR
STARTCHAR char58102
ENCODING 58117
SWIDTH 1728 0
DWIDTH 18 0
BBX 15 15 2 -2
BITMAP
1FF0
7FFC
600C
FFFE
FFFE
FDFE
FC7E
FC7E
FC3E
FC7E
FDFE
FDFE
FFFE
FFFE
7FFC
ENDCHAR
STARTCHAR char58118
ENCODING 58118
SWIDTH 1728 0
DWIDTH 18 0
BBX 14 17 2 -3
BITMAP
00C0
03E0
0360
0E18
1C1C
180C
7018
E038
C060
E0E0
71C0
1B00
1F00
0C00
E0FC
FFFC
FFFC
ENDCHAR
STARTCHAR char58119
ENCODING 58119
SWIDTH 1728 0
DWIDTH 18 0
BBX 14 14 2 -2
BITMAP
FC00
FC00
C000
C0DC
F0FC
F8EC
C0CC
C0CC
C0CC
FCCC
FCCC
0000
FFFC
FFFC
ENDCHAR
STARTCHAR char58119
ENCODING 58120
SWIDTH 1728 0
DWIDTH 18 0
BBX 15 14 2 -2
BITMAP
7C00
7C08
180C
180C
187C
187C
198C
198C
198C
7CFC
7C7C
0000
FFFE
FFFE
ENDCHAR
STARTCHAR char58121
ENCODING 58121
SWIDTH 1728 0
DWIDTH 18 0
BBX 14 8 2 2
BITMAP
EFFC
EFFC
CC0C
CFEC
CFEC
C00C
FFFC
FFFC
ENDCHAR
STARTCHAR char58122
ENCODING 58122
SWIDTH 1728 0
DWIDTH 18 0
BBX 11 15 5 -2
BITMAP
FFE0
FFE0
C060
C060
C060
C060
C060
C060
C060
C060
FFE0
FFE0
E0E0
FFE0
FFE0
ENDCHAR
STARTCHAR char58123
ENCODING 58123
SWIDTH 1728 0
DWIDTH 18 0
BBX 15 8 2 2
BITMAP
FFFE
FFFE
EFFE
C3B6
C3B6
EFFE
FFFE
FFFE
ENDCHAR
STARTCHAR char58124
ENCODING 58124
SWIDTH 1728 0
DWIDTH 18 0
BBX 12 17 3 -3
BITMAP
FFF0
FFF0
F9F0
F9F0
FFF0
FFF0
F9F0
F9F0
E070
EF70
CF30
CF30
E670
E070
F9F0
FFF0
FFF0
ENDCHAR
STARTCHAR U+E016
ENCODING 58125
SWIDTH 1728 0
DWIDTH 18 0
BBX 12 15 3 -2
BITMAP
1F80
1F80
1F80
6060
EC70
CC30
CC30
CFB0
CFB0
C030
E070
6060
1F80
1F80
1F80
ENDCHAR
STARTCHAR U+E016
ENCODING 58126
SWIDTH 1728 0
DWIDTH 18 0
BBX 12 14 3 -2
BITMAP
6060
FFF0
DFB0
6060
E470
CC30
CC30
CC30
CFB0
C7B0
C030
6060
3FC0
1F80
ENDCHAR
STARTCHAR char58127
ENCODING 58127
SWIDTH 1728 0
DWIDTH 18 0
BBX 15 8 2 2
BITMAP
C3FC
D3FE
DBFE
DBFE
DBFE
C3FE
FFFE
FFFE
ENDCHAR
STARTCHAR char58128
ENCODING 58128
SWIDTH 1728 0
DWIDTH 18 0
BBX 15 15 2 -2
BITMAP
0380
1FF0
1FF0
7FFC
FFFE
FFFE
FFFE
FFFE
0180
0180
0180
0180
0D80
0F80
0300
ENDCHAR
STARTCHAR U+E05C
ENCODING 58129
SWIDTH 1728 0
DWIDTH 18 0
BBX 15 12 2 0
BITMAP
0FFE
0FFE
0FFE
0C06
0C06
0C06
0C06
0C06
0C06
FC7E
FC7E
FC7E
ENDCHAR
STARTCHAR char58130
ENCODING 58130
SWIDTH 432 0
DWIDTH 5 0
BBX 3 12 2 0
BITMAP
E0
E0
E0
E0
E0
E0
E0
E0
E0
E0
E0
E0
ENDCHAR
ENDFONT
